<mxfile host="app.diagrams.net" modified="2024-02-15T17:46:43.156Z" agent="Mozilla/5.0 (Windows NT 10.0; Win64; x64) AppleWebKit/537.36 (KHTML, like Gecko) Chrome/121.0.0.0 Safari/537.36" etag="-hBzEea1-UD-gDE16eHv" version="23.1.4" type="device">
  <diagram name="Page-1" id="9rQIHubvcDTc3jUhnZu1">
    <mxGraphModel dx="1877" dy="522" grid="1" gridSize="10" guides="1" tooltips="1" connect="1" arrows="1" fold="1" page="1" pageScale="1" pageWidth="827" pageHeight="1169" math="0" shadow="0">
      <root>
        <mxCell id="0" />
        <mxCell id="1" parent="0" />
        <mxCell id="xMjrJX3AMS1QwowmWkhw-20" style="edgeStyle=orthogonalEdgeStyle;rounded=0;orthogonalLoop=1;jettySize=auto;html=1;entryX=0.1;entryY=0.5;entryDx=0;entryDy=0;entryPerimeter=0;" edge="1" parent="1" source="xMjrJX3AMS1QwowmWkhw-45" target="xMjrJX3AMS1QwowmWkhw-17">
          <mxGeometry relative="1" as="geometry" />
        </mxCell>
        <mxCell id="xMjrJX3AMS1QwowmWkhw-8" value="" style="sketch=0;outlineConnect=0;fontColor=#232F3E;gradientColor=none;fillColor=#232F3D;strokeColor=none;dashed=0;verticalLabelPosition=bottom;verticalAlign=top;align=center;html=1;fontSize=12;fontStyle=0;aspect=fixed;pointerEvents=1;shape=mxgraph.aws4.mobile_client;" vertex="1" parent="1">
          <mxGeometry x="820" y="614.52" width="100.07" height="190.38" as="geometry" />
        </mxCell>
        <mxCell id="xMjrJX3AMS1QwowmWkhw-9" style="edgeStyle=orthogonalEdgeStyle;rounded=0;orthogonalLoop=1;jettySize=auto;html=1;entryX=1;entryY=0.5;entryDx=0;entryDy=0;" edge="1" parent="1" source="xMjrJX3AMS1QwowmWkhw-57" target="xMjrJX3AMS1QwowmWkhw-7">
          <mxGeometry relative="1" as="geometry">
            <Array as="points" />
          </mxGeometry>
        </mxCell>
        <mxCell id="xMjrJX3AMS1QwowmWkhw-5" value="" style="shape=image;imageAspect=0;aspect=fixed;verticalLabelPosition=bottom;verticalAlign=top;image=data:image/avif,AAAAIGZ0eXBhdmlmAAAAAGF2aWZtaWYxbWlhZk1BMUIAAADybWV0YQAAAAAAAAAoaGRscgAAAAAAAAAAcGljdAAAAAAAAAAAAAAAAGxpYmF2aWYAAAAADnBpdG0AAAAAAAEAAAAeaWxvYwAAAABEAAABAAEAAAABAAABGgAAc88AAAAoaWluZgAAAAAAAQAAABppbmZlAgAAAAABAABhdjAxQ29sb3IAAAAAamlwcnAAAABLaXBjbwAAABRpc3BlAAAAAAAAAfQAAAEWAAAAEHBpeGkAAAAAAwgICAAAAAxhdjFDgQAMAAAAABNjb2xybmNseAABAA0ABoAAAAAXaXBtYQAAAAAAAAABAAEEAQKDBAAAc9dtZGF0EgAKChgiPnFWCAhoNCAyvecBRGwAccccQMMwu23TgvRRHgKOi5L8YSzX4BDh4iQnfkq4Y7u4KnZz2UTr50yJQbLnqhxfnowC9ylX2gNwhh63JWghVA1iGc2ZI4RCeduIQhfTdC4edPUpnymSVAZ+XWtTYxPowH9ZzPCUP/fbnvIpRj51iVqFzbFWil+3iVrNpcDRMl1oLUOW4flaofj1wLjwsK8MM8urQjnUj/v1Xbx36M9/15pAHbpwzVSdCnzTWiH1PNl6xLZ4CtLQzuCtrYGSm8c56I7//7nCRf/9S5kfSYbmKhM5JNIrJGOqVEFEXyMvI/9Z1P4ylazjT3lubad8EEg7cbaY5mr5eloORFr8j3IvrML+67G/mBPpxOhyakYBI8IurZ6YuOyjm9fVfyGXe7xa7IqGH2AVgWDxNOZwpFeQ7nV7pPlDp/z5gkJQV5K3j1SZCxxafW0ogAAjte+ZTq0EDV/JaMZcKFLYeqG4Rtr8w/+W9ABODbCCryrj2uEJkZxH9wK8qXGKxtYooKDwqpvrgdcI2UO9ynwo9AibmOObbve8gXchqAO8bST/aQN+QT5ncyOaKFBnLLrOWIDHZIwIeGkjMZGsuaKiJT0O3vxdes/jBqb4/babxF3gZIG4NxmjY92sbkHDRvxiuMhUgVvIYmcRsQQDYWDQdPr+JjKoQL0ze3o5KTiLTGTQhCDK5dzDk43zzWhLxhir1AtoSFB9NRm0g0el7dEZY11y0n+/jFVeIzEJWeVzORr5iOnsTYgERIJ622G79p7ljGVBi/xkvPP0DQsljeUG7jBjZz53p47Y4Xsw1OV0II1L+f+VB7Ch+ctrk1A4zNJAQ5HyqWHjKzg+UCHQMwP+ezNZAmURQ5cuRmh6PtkCRyvv7IvX3OCoaTONzY6DO2mvh2lx/VNUcO0dppYbS23TL6HsxhM21zhHBuGIdQ9QtkcADGDJvPeNBjOnTlH7rkioRZxvMyNESYOxNT1BqrVZlK6j72AknLVXdTUVajRqfsP+baHIi3it9swRLeifCqkKnzuKSqhIKVUA1nth+w/u2srpfNZAgvALZ8MKIs/0ns3QBACROv2vftEuaYlUJTA/I0AFsfwVwy1xhOsw4z/FwKwn3O1FtQJcAJK643ZOGDD7ClxmX/GeV+BgMWwieKT6TGb+fdDQK6kMumKXJ+pxEzqoFhnIfxbPa37Pdx0Mqp7OA5xTvt3O4+Tialzn4M6bjC4K1jEwjVkbkdJ09hTC5bfJ2UpMk5e6LptaX97AZbcfKFGGRPhIgvj+0p5LNlfNO9pTOO9GN1gmjcjRjmb06uk6BF53c1MjZ077z/aJXFJxr01uOB1CJeiSffR70Dt7OJgwwqQsrBqgOi2ET+QhaHTRSHTu4zSTFGHDpExYislY4gZSS6wzLHz7gzCaf2x8A5RfZ9FEh+rKI4Cfe7+thOkIBFRm1ZFFHUa1567bbNhfa+Tak8TJqzYXF9qf1kipEPu3dO1SDtMaYz/26TFafPSSJJui0KpYq7yKd1pSd+0613wd//cF2qpRsGYf6V+oAFWkwJMm9m1exOtjEK6TcCrIu7PUevYy+XfDi/WRHS7Ks5yt6DSEcDTCA/DRh3zHfmGZja3PP8GCg56oB11G3car5BPWbSb9i8NISRwEAUQ05BHrv3XBGuoLa2TWq90MEkZiGao/OLBMTUk1eXwefSOznbOeiunxP+ndwVoYSi2Daq8aRs2aHlwfXDfFgVAFbr3o71POrMMiW50QG2U5aaRsV0fjChC4PkQcQ9XSZicIpo8ksh8YCwoRKiPfiXMHH9Ix+PoZpgFnetgDQ8axGPMjX6GA7+Fi6rf/219oxZ/rgkF9xAML3O1EfG8ntfoAswf///IKtcl8LDOWdOGbKiGxeUcws07/t5OD0KcO0kw7A/XrnuN5t/Sjmogl4VJdDZEW3c2MRdoj2z/utKoPdPxnSIFudcwU81GhnZpLB/eltAwqWdT9CczKaxbZxEX1bIYlO1DiMdfdScVoRz6vcG/8uJgc0baDZZG92eh2OdwqMYjh0POMw5tsjW+N8zfU/GzHzaH3+zLIe8S74j9d9M9VRa5kkeSw73ymOF4/zBR+W/GtIkJmuKnHMMUyfVyaZ2q45V5uwEXJkKhrDy9J0/2paufTw+JXN8SMDGs5WECDRh8ObqMJfTxzRKa0VTcJGPySBzxx6e81xAEjmZ8ckZwpiuDzvuPJUrE7jhJ+/PJatxIoOdlddX9dXiWuQiNfnccPfkJnWSzpIiyo6iI0gHXwJz30xjkiYK96AJNptIEOYA6VF1hJ28ibLYjtB5oTVrMMDAsJg3SPmEYq8sF5Wnoj4i3Edo99LpYBrx+reC6HQ7i5KI1z6fRtUynSK0b9yXIHBe3gJ5RR79GI9m0k6PmvlvbGWgtFttAlD9R0NaYTSy7oCg4qIbHntJy/xgd0SRhO6FeF9vxz1+NjJ1zCOy9m5zdX1tEa1JTluQetN4Nm1K9kMS+sYbbEkmr6NUVrDJ5ToW6sIY12ee/NoNAwq+ED7vQj6xP8h9o2XH/vfcwoUQeJUP8qcmQFk/qd8mBfNzTj94q5+3v3mcd5sJfXusEIJ/6yQUwe3NrTbHVYzys9VA+CQLp/SXe+h5+HpZc+PcR9HT5ozvtoH/OY9GTxSh1zA3iPBCvvzl01MIFc8zZimz7tMsdC1difWXyw8H3ObFXz/gxhDhd7DsdJaAlr27eRg1RmZVqK3CKcVcuGLlP7RjEdwoTX0fWeLeOzTtntr28+6FyO/v0vLerJSAj+3G8Z6ftywUBRal7bvTxLKWOG9ID3F82aoa8ZR/R1tcW3bqxZekDkuszsLnxM32lXuFbis8HBVz947Rp+3f9PADBMylOiE5bKn4P4raQdv5x48EAb6jCYGGJCRI8uhcX0EqtEy4MzSxGrifV1UNHxpQWI6l5HabuiQcZb1brpgCSVxjoYllF2dGXcsDJ3RrqCycxB77fEP4hLgZdIoGT6R1fim1CWW5a6Hrn22gdKUaj8wG82jmkaWuw/v3F/qKrxBXuMvdTCissJBlxHme7ohD0keolW5vsjtxXUKgJEb2iorWcdTWAjoicPoVdBcILzSlAJvraBBFLNegDyiH435Be6BCORfG+lyflDfXDCIOhusYHPzKNESorvt3J9PQD2sYfN2/2h7ZrRsq85y2ftYRBUZzn6ltkw9MDRmDF/VliQgCQeN4/8hQvRitGfj1dQayFACxq8Rbpvw8kW7qMya6/oHzmZhyEG08wcdq8VKvtUtTEeMVh0XBOsfiS6ZK6/xzWlkI3KEBNfBDzGSSHXjFTdxNyonZnktEtPuAuRZ97iIBDTsXvfk2FUvgf+hVKodhwCA7Y3M8fq7CGiv4OmwaIrPWIr2FBhnc2gJzYuAKHoMWqW3huCDFrCbTDglWV+n3NIHyd8rSI/DjkKa1CiSCJGQMOVFQy1nSVD1IHxtSqHWp1snf/Yf/z7tB4x3SyL/WrBQeBocfnofV5zpNf+AhzCvXxn6iY6cKzK70ITVccNhrgV8pUs+500zVeuoxeB3IGIWKUEoqEQ/2OyngZQKzxxcVZX7wsXtxmjJS7Rl7BnTzevxePuAOa/VJiQ+UoPNdkRoWBH7tHQ6mD2RrgZdftMk6dw6mmpLkUH93Naq2oMgwy06cgLAI0Hqm5O5KXSN3+wNT+19h6whUJsB7KB9tJRo3bGJ0RWCkvkId6DIqkE3DDpgdzn+iuY70iftT5nOySbS6/4aY0ov793T7aZ0w3xn0l1D7cpHH1B9V5o6VS180EZpEEJTky4cFIO6BZDi8DbYHDNuYonCrBardDVwd/v3r+7wb915jpFMvwZJgoxEyRiqGf6rHKmaZcmsC1xFZCUlowk+aG92Z+TaNN44bf8MHtJCzmeJg8wFfiUU8j+AYTYOcd9S7ZON1znimFKg+76Tww96itT3AHAaQM2rbGnQ+2zXkrXpE2Y+U7SntBk7QIxUpeunIDqnLMKQPmVYWxGU75OyrGQrJMhk29skadqE17I45PiCyBaRNcQfK/UlhR2DcWtG+EcAGiAzwTvE5XDDBywcIOx+xh5DHGVRSByJ2d4sWvEe+0uM8MbvCRO37mZAE7N1ZnZakaTzNcYJZlTGBohoUaamRbfyTAfNFH62Q/oSNydnhyQRtW8Jpd8VjJtzEvh1xzUOTbdYy8M5FJ8JAC02Q82H304fL7rU9KCYffpQkNYm5/jYygPRX3Tc11LImmry8zkd2oV9vkmOP/ppm5UvepcKmCtTmfp6Z0ZFHoaYLFdehtP0wZR6gYFghxKicKrqV7i77t0hM9J2ymdZ8FLUQh4IZ4VRl5LEUOZXStdKsQy69TWu3JIh+tZszT71B5a12R4YIoEofGhDkTVBjsZxjvZH/TUy9a6ojlNHYKA1uMpWglphc9o/K4i59HNJ9/8awBywuot8MWJdgoSHppk0CKblBdE0L6woXvGI7Lp6LgR/+xMpO5X+cJIkJOssEiPxm89FU5kMD7IuVPQWZ1hHMEX0QqP/dn7ITyK4sXtLMlmmSsOsAodl/k94NtW/WteBVTmykq5q5kVj5lsqSZFw/C9UysiAdVBaDG3F9o+yX8wVIBm3oLGHcni1JNJXBNrZxhRdD2ft+YlhypnbApjnD+GIY9Xkxxld2G6HNfGLtAOwf1hBsLLEZ0c5o7U348UlOwvu/MgjuNTfOxT+gg3oq25EmxqiuPfkuY9y6aHV4DfNTf+0X0fgfJNJ35rslG8P7Fq1h7Fl7UmFQUcbeius/nHH6U8GrbJADkSbichKtnUOgCC3J2MCjN78k8PB3RXMPmpahs0rKbj1xmSZnAJNYnG4M+uZGp9V4qaq0USPc4TLkn2L7aeX7fuA/JH3pbIxDuL4HdU770bV1fFXJZ4OTCwO3X6atl9crxGWfipNmvvSR0TPpzLYz5cLzEPIUBEoqmXLBN5E5pwxpTWp9gz8tRb++UykZ4qT4c52IkzMUiMDe2tYp2gUNkIoASVY8LHgLYXYsEDt0CcInmPGt/mqFwI+RLSYubCBGySvjysUpH5XBvZiVOb5WWe47EkfOD1kpjuReHwLInn+Cdqb0dERifvORA+M3GK79T9sSm0g2y4Hkooi519fZEL5kslXmYJ/uGBJD4RN9m6Aggg3zWD2s2dpwLXP64MY79lU5dQeC3JulPxZfGhVauGFYFU/yA1ovmJEGXwqq+TxVg4AAWVz+MWdMbr11+tEmpAgtv8QFZHRVRwdMLPpTcODhNGvSIjrfrFjcX0YsZzpZKC8TOFmx6HWhSgBQmWpB+F8+7t5afdQek04QazuC3JLaUSuuTPPIrPTVmW+CYSf3qVl776yc31pmaHMImBtydbxgQQAcZMBQEMFFZvZu9xpT8GgmTKmQSIobo83JauSvuTHDOqr4MaDq+yWvjfrpUkwMrrIEdCWq3tDzujRrwHLY4pmUPACwRTJdHluqpxeVFfj0hlNIng408Sya6DL+zxO4LaWeFidXCtvuqOVvFSLW5OFwPLocQ3uVfxbfoGdo/DGQ8HvjSgT1jMieGxpUni3VrxpSIDyAzntiJ44QXfQi2wh7pguZjExiKQgAs5KYl1BrJUiiGCR/xNEerGgM+Tl9p21Q3ZI/LP2tAVDOzfYNC5Pb+I/wZzMK20zFLhSF0NBSImdJQxOPUsesutKdjMMMATtlpAKdmMhpwZqsqfiY9oJQ0FD/vZP5jha47LNlqF7Bq9sTWK1PSXZ6SKo1jXdGDAT0UPZiXM9+owxm+hjSQg5vI4zR7NFYtkKjHPhRcZGDStHZ+YZbQVUNCjyKaMb3enCyB/a1PbF5hkmStDmtVL1cL0X1OBWUKdf5oJK7BiSDKsJouFnEKOeXBvT5t8CS0M/gW+M7zTaPGwaqIP0p9QkXZ42DbndbwWYfxXiHRO7TqTQq5Jr6LqJGbeAo9cdL8i+OT+LkQ2syC0fjSGUluDTcXh05uZBKeP92S38rjMHEgVU90kW1lhjEJy84XV6KpStryVQB5R8CGDy53JS3WKB7yM9EOZiNLBchd+EV1bhrWMIqhe80xrvJ5pB6FMS09hfP3vICRSowSHx/tAEcOZc+9DmAnjbP8zfVESFxec6jzwGcqQMM7xcVCzL8bGSslso6NQRBE8J4p2zN9V7KdnbznS8htft4TOoJgHjY1is6CWc9V7gXsOMMIPDBBTwRMNyYDH0u5wt8AfFow3u2mXhdCq6dONpDHKRZ6ubVqkfEYnTUK8IDyuCtHFTQHcOza3ecyP/Qo5HGf3zInClJmp3K8eAfY+TJdW6LAHbHwXsQj8KAnAkXCA21LBKpaBOI3E8vhqPsi/IAPMVC+imqk57hLrOG1w6i2vKBciXzirqqEMePlv+AlGK4Ev3qm7wwv/nwkPlZtLaJkD2YammtH2qUQt/kXr1J9jE4Tu0Z93EMryjxpMsBFkA3H+UoK5nNa70iphWj1G7ynU6b6DZ/ki7OPeUwtGFtXT/4xn3+obuNGBm4VFyDHm2wIMAdYVI2O/CbB5cpoK2FzkZpcaRflFofZzWapR8hznERy9gqUkD8dtcAAE9Euw4sJANyTAo7RxOlT3Gk0I9Y3ZLJjka5C84cyF0vcm3guBXkCLIlE//9S0gBoX0/X6PBVpTQDi1eR2+V4PYP8rmsKAmk48JO56XHNEpnnTsNzmCk0jp05XgdUVI6/Yl+0LoDd67RVSjiop/cvZNFNSP01LoAwBFzTFof72UlnshmLDk23uqE55Gkc8Y/2E1q0Ai7d3aMNPIr7Uej17N5fa6MhXiULkFGRMyDMM0eJh21pjYvz2Lqy3ltSCTYGsAKAdKx7v87EP6sXUCOGyT4j+OJxwFYU0QbRpmcAxxKEorV9cJ483egdXaLmLJ88vfa4oxP7w0WTKolXZVdONdjycpt3b5QgCOF3B+5XMA45s6w8+VGmrCSCj1pgFYAJPhUHTX60iMU3D0DmfXnJi3O3bT4B4y7w5CiFGsKpdakGM/4J04hXJyjvCQ1hbmt3ZynQ7VFTww/8d5h8xfgL+PUtXbJh4M5YeFylt/jobRo0Qsdwj5fVwXR46sv75FPw9gNG4khbwLleidS36mbi0cwMp32vXGHbokzqHMWdOWjc0r8dFoG97Kf4myuXDs2TvUPE4gi2SlN9aifP13XkdAjPtBAgpXwE6KCpnpsiH/6ESDEDyXNSbpaVUkXAc+xTyKVao50eW1hCZNh6aVAH2Nf5JtcDjFyW4U4f/o2j2pjm6evs5639VW2P7yosL/P6ZIvTkbQYCcHEBkvGoCmo+VA4ap8MRlgk+S9ZcNT7MexG54PC+DsS0ZshIUWQM51GACKTQb7rSS/jdzAxgdd+H+S9nSZ2CsaN9qlcCmxPZhb6rWEBlLrj9m3cPaYj4/jOQNnfrCPTpbMvPwPnNSL+6WZpfLvyrRmiPo7Ajf7aS8vmm0d/y5mlv+upSmQySrDHM/DTkS+ow99L3pd+32Za/xR2KvTlY5LdeCN96Garit8OacUTKlaBQojvFY5mHf9Em1qaUE1jvHJV0hisvcLdofsIiR8a4q5tB1E99m1tVrQU95GOlTGcIbmp4quBpSp1WlauGqDt0TzRRoiR5aJUtIKoik/kjkG8Qb01R+MbBrep5KuHw7/m7NLQZ0ubvPhWQlvygGQRlGTuleXaurf6kKq9GU0vY4UQMo554sKrgXaNLsQ6RNSUu/+AMSCTguXpl3pZ4QY4osTQRNkeua4S4UO1mcZXSwEq9DkPrgxsPMAGSDnB2MXPpIDUKntOAABJ4v0SwY8NCWxbZvu6qUGa2oDwwtOmT5RHY92f2+KJOt2pwMHylx4te79QCIwD4Ss0vqKSakBpj+ajVbjyWaZVYQgs+OAuPfLWqTzlBBJBt1ohyB1L/GPD0Ps2kKqHv20Vf13YU+W3YfkngrziSD+n3TbiGdnl659Epapj6TLhw5q283YiCH5cFWZNt9GEjM4VSl+KhUJxNY/6OThUt0C+7BKlucSN5Iyh5pf7doucef6jqEDzLzTu3FuDiNrtrgTOwGIwzW2Z1sXdG7fEdN9oatjWg1XG7WwLwqHCMTcDNWWVYWAbsGScm2LPTsAbeUTR/PMQJyaZysB4v9y7yyJ24KajGbVynBP/wz1pIafLMQs2jxXYe5XPfXhFo+e7k2Nv/ZtUe6gE1hs+OJ8mYZVyDdpA1R4zAp2+2NnLcn1V9mxOB2SrKolxBNFkod6rGWlqrOaDl+DWj5a4Jn0JR+5stSB/1zS+oczuq2dLizSlevn9InBeRI5IzvQ2ezfQaWATMyggbPQKrlPpqa352xh735yFGkrqzJPrhae9OSu9uCWEhv5OQev6BL1RVL0wlhl1URrUiuzfI0ezTS7/d/VFk5rHfmCSnRySC+xYE/MLmWL2S8OGsb94zW5ILIUeGAay9vXwU94bDJdhSLvpVM8UAWpSva9wCZx6z06NE1CzeJmKg9smn0/4QYghpOxkd2aymMDLJ7pQAaq4jShclBfK2uJElZaGQaKR25rKa1OnZCGkzoy1TUYcSl9JBnYsBkPHG/nTNfKc4fAZy9wt97PfSnp9rk+qtT8XXPYJYq/2KMC5Z9AST1f0tzHlHx84c6YalEKM7BEdd0dK+IvWdMLKJCQPFjQtCvXHPI4qieAWPhejruzzaSPXBlzyGwFbP1lgbiF8L8l/RSLJjNAuTN/Z4pNFsTEJJ0ldUUwhR9nIeHISERyyWf8dG9QxryXFHC9hnfX2Pkg6JSeVJhKqHDIe1e1VAYGW6PiPwyewxandbQxEgpxEKFvBe33kiDXN6atp3JwpgFL0TlFgaq496hx0Rvy8MHOs+KXMENVMuEgzdTo/3NzoCxhhGCroXzln1B6ElZadtBdWxja3FrXJi2t4yG5D+BQIBpLbWjljYUQnDTc/cYn/MM8LBMGXR9NSSmdHG7kadpmoASU6jFdIgP07VOlcT/1MnY2s0pSgIhxL2ixsWOr2zi5LKtqTSbt7ImysLHU7n7YiLNdZc+gJiep2UH5c/g3JQAOk2Py8H4/GSZF+syOYY1U3rgjClV+J2EyfeDnKfP7qL1WZXMbO80mM6PRPOFin/SZ09B9NH04Rq0HKieixj19ELFkwYelkrQU2YwTRWL40hFoNplH2qx5G60rVIT0zpZtnp+AzXANCOqLrs0yGyk5+v3Cr8+MXy6+q0VIiekb3c/3F56/rkkjd5p5k/5g4NFu3W/Tbf+DHU3tJGQh4VlTEl6eL8PqcKPmiokRgJ/Lf1kkPOrrTglD2WobglDjxBvVAyEVrA8YYrQf18m2rwXvJK+A2Y21NlYL3xo8lw0mSf82ltOKDmPwfzE5wEg91KrSossNxU+Ivptlc00hFBQiLez6KUF3p85Y4QGl9Lm/COoaejkRfc8EhCd37Lf6bUw98PCcvxAzzU88Zf8Tow/dpvE05U7XCID/i5BneNNC0ssLdIkDkmQg74XAMsqFu9MCN4ZUKmvdDotvj1Bk0swwfVgGE9YTiOe9IxBfyovvASXMKoParQyuy/JVP4XfYJNy5Xc6qwZoF4r/rFoR+NGNt1eRJicZqER25aXp26S0dRWTXez7vxP8itfiu89EEH6ViOb4oTz1bbh3BisfDUIH67Fcd/6Num7xL0wNZojsDz00Sp64/0EB9gf086QNP1TLMvYj/WVkaoXoPX2QXThE2AdGO46pqs031BbyXbnOYOtLdkTk35rX9zh3sgo9aGPvZpTJQOeBKlMe/L8qBTDdT/0OC4/ZA2guaHIQv4cKHQDMEJObu2mtw/bsXo0vCKSf2UU1Gqae597R1Y0GdsGrUTMnpPjrwlDFgIEf0Ccspi9AdyDrnrKdYITSuM3tQbYYVKeVov+NGZvDv2VKzl19lsCWyKVbnl3jmszf2B6gDSFm1nVGa3nl4X0fmLwmqZHMGN1nr2SOFErOGA50LhoYsXi03ZNn4g0+WOImHyqHRzdoAby9rCQPD0Bpa6sGfyM5L9M/W02hDkhfqgbh7GK+pdVaGD5UHpHIfXDXfHQarYR02VfFfrBr9UdHGXzl467e8M4vnZeihDlhzkaTLw6N8J9ImPlb6lI4THLbTzbfLFkNyQy5F184R9tu+XnauynaU0Xq6+Bsamr//N4fFDqwcC2IqZFQkAKOo1xLEFLevs9kstOdoJs+kZPacxiGxRCFKyamWwGBB23QJiN4c9A/RGl8RPuIlPZ/J9TJEpTCcyc1alf8aHYg454HUG6C40POg6tj7fBZiHVY8MSvy1JkeiXI8xisswBziMe3OQyrKGxlhHObcbBvsIn79pCJH0yybVVvmE1OpJUfooHRe+zz1XtV4bN6ILM1GMhI63wB5WAXaGVR3206KfIXrgGo8xcPIZEMOqMfAyF3uGn1j41Ju8JMbi+pdFSQn5/SJNrxPPtBvqjo8lAmE9L/l27oBvmKn6b5FTb7f0aek0V3GbIe0r1x3S6zbKYNSqelFpSNEZgjIIJ2WjnLMXfd3yfv7C4X1HjtvUOR/IGql7KA4eK2gV26W4JEAHuSRdoQXn9W6XimtZGUW6R51W2EDY3gdCu+8fDd19AJ/BtnuWlk7g6i0nyeNxH3Nj4fAPm3zveXFi6ftfJHGlU1wHVESmsuG1/+mPOn0c8vu5Rysp6kou3YEW3gIkBFZKNnaEIdvOmyl7XVogMu3EuX3n4uWWHEYjjwtkUc0yGXM6aSEi+qFWQei5cMOjA6/iygh8yo5IcdbMiG6rbrzVXMtrbD6iEqUIVqQegjQ9ru5/cKwTGu2eVcyfOQg8Q9hHYvxyVjgd8ScQhuvgWhKcByBGKm4loo7FjyMv8r/7CZ35ey8zQ/NdO6f5eOvXQUkkduu2vq5E+q8ESlgoYXh4b/PW16B8+q2N10+CuqXhralWFCtiGA7gNYHd/AAIVDkwQ4m5vlIPDJgjNE7Pv/rOSF3N3pfTAEVjGYIYbrn+Gu5j2DDYDFGIp6o8xTnrndAB3PwgOe2fswg6wbWEf1vHKhCGqWaortlAT2pEYjgRe4W/wA10ySqV+OWQrOsQfvtI3Bn4k6ayvquG9cwZP5MYcSeguAtTSM07HXfEFDCiepp/PDSsZPCMIEUK2qpi+VVwSuhRcGoy0SW0RqypXzsp7I91lTuua0B4oysh3MwQlWKixFR6+pNyKb1SFkqUaRqDYTA9Jj3iEqy8w4EyvgDbkPr87Fk2xF0x493w+UlyQP2ShX9BVU5ZR5Zg7YiqRyY8Fhe0oRHpu36MPwSgVFvp8cquvWiZUbKPTJ21amjUtjz6v69OYe/c3ZSeg26VRZdQ0h/r8H8UvRtjz/rTZgy2RcOBRCrCvD93yrsA21HYkXo4vJq/bsD1IWpETO6mKiVVGOJdVnfAWYYtICGtZtFA/kpS/DQnVBemawhzACZf7pJqDRKXuGQ9aK43l0e9Ms7hZ4DwHdUlY3sfYYOqM/8D/No3M6SkRr06gfAwIModYMpdpQb8X+O4/AJQ+8VFyMu19rYxU5uV0YlXA8yxRdYoUdfAn5KEjG0CnqODEFZKKh8EQ6KFeRewstKJyl4A0z+xIlg4qUzYNmxRFrlOWry0hTZSkJXozxwmj72JK49pnucORbyG5IThc/s1PfsAVu6r/XwzrU6ZCjsrUBzqBy1IYwzKMCqJsa9qS0DsC+JknK1mFozFzQI1DBznhtWaL82shYg/sZCha1E6j2jUaToiM+B7JZbOnoO/gd5RZnM+C07O0N/9yqcU3aAwjWmSxcMM0wJy8ypQj7XNHLMLtmoekUiN3H7h6gmUhndpu5+e7rsBGNlnkTBqVblg4u+QoZN3W74dth7pf/MuZsb3yQCRsJJvi63aeWg/PcYfZQd0LHSABy6XXfS4KRguoiydZoQpvmQFekx4wKPadolEHj10zF5L4bb2Vdm9VwYaApui5VYJrfPK8E+bc/eduhSECMJBVdsHPuWYFLKSCp/tbW4C3VxN0V82oT/ty4utS4t6yzo9JMHRutDJx7y/IQFh2ScwxOnv4wkakVBQlM1yFxyhKYGpBLb7NlFMdaxBjkIazwOgtYyGZyE1Sn/jocRcJywTg2Ug67KNEnbT0FwAUhgsIAAcqzHGZX/GSP3UP07oM/cyt1C5Bc8R/mwHn9YlEd0Wz7yo7eAYkbGpSKea1xo8DipO+0RcbQwtvRgUkPH1Xgzs1/bFvc5a9u6kRgtIPijiqKOIlZFardzHMjb4/OZ70O4nO0sZMMIV60kZ5u7g4JPf3DekYCByFSNXPwZLLKlTVzbGT1P4ox7gpnk/RTFOpg8BVNMPT6oeW312eXtEWCEavXqVd0JnMsL31eYqWUPH+IbHR8QlXKVbiOTIOG7oauYIUNLzd7CKJjg6k13xxhNlPVYn1ufSf/1g1MLs8JtSA5T1DBoQoJ9gCPqklA6CAJwlmBGxQ1TIJb38wvTtEOJ+p3oMuIoxPq/smbPFESfNG0U2x7L//svmWlQtO1MfzNGi2AHiiD87PdW5PiFr1wk92nPOuF8S8HtAWJmVHE2CWGmg1e58H6IT89roZ/OPRYgG4awQlW8VVrFSmrrI6zCjUe32+k7pywtlzr+8vraaejW38J/+xGwOA/FtminnEIFChEwgmd5esQNf5d5mSzYm5dvZnjJkVaEQb7vjT4DWllfrycADoQMXHt3UH2PWR28a6L9IDX0m2U49tVg82lZjIlLJ+tyhbdiXLWithgE0cbCekzIgEoT95eSsYUlVPvA3OtNJSlHUWCoLYtzUPrxxwxpOsZ9QGPTGfy3xIYXSr0ZtjvR7goCyW59qI/2gqqdIeys4her9YVl7+U20H4vsJjMiSiPUEEemWzzDg3QYKPId1uFENE/rsZnULz+zEWuLQwXi6zNpdCLTD3db1DRSZEoS9yBm9l3MbOacMhATgwZwoyxHqkdO8cuGDcU4vXNE556LajzcImqw/SjIiV1UPfkC1a5rjzB/XjzQtztbissn2oLtAM5ukVPfwSFJUO0f0uizJhgk6BrW5UoxBhMhOtB164G1D7EMtbH0Pc5WaLtPH1eofC9plZwC9aPmQju0TP4ydfSFBAGPUB48Jmwf5Uew9LW9O8WlRZ1IeciKnRj8Rjgodg7wqq5DaRMq5k1WLn9HNYzbPBXCTfZccXHdLA6VMKuJ4upovzo4CCt1C2qaD9t4neZsd4ZE+MQAcP8TKIXaOCMy6AeAgjAykZKfAEP0lMxa1JlnnVlFRoedq2oRmmLcbLyUOQp50ymigcm3nqdoZx3uw2ajq9Rz3iAB6U9QEvjyWGsCMc/oeT8ohKcP0ZC1GAvaSCHRHokqbZ+ws/HBdE+bts5FnK3hahYXmD4gERdAw+a3Px2ZnUmxmFZ7fITxeTf8foVMNLVSvG5PtDPH5LCGDtfou+4bDXHYQq7hlT6rO4byKhlrQvwSUyf2wt1YvBBYHjAwKOs6Npyh2WOStWdJi4lgydWZBiDAsGfajHgAV2EmsYORKoZVPTGtisHx27NBJ5nch/uJHP9mUI5vP9EHVGoWq2+wn9scQYNWtFKK7tv5pOqXMNLFzwjAgAoRKtyeVq0aYAzV3LIyohjYLcn6z8A5LrMVeoXZjRzJiBI2+qX2/eU2ebusIUqGjpkJTT41jds4rB+cVZcEmSeDRSzwZuu3xtYIMeM/E/Azyny+d1tc746Q7x350b7e4SQOaRVEkJMsJUOLbH+mfs6MxGvnjCxLM1M6mrX78oWKHWz/XFSh93KHz/V0q3yxXxOUq3cNVFTfHg1tYep7kF0q8ztMC+74u7ktlngYXNPOaiKwGes6dEe7aJpkTywcFTlkUXMdYiBjxRc1YmwidmPUOg6bLDIdXcWXOgbOvTAZgkQtF1uOROm0Wk2mbZ1aMIf8UIa32EkpAzr8rcxvPmam2bmqrjpm7uhzgwxt2JcTWLHmyKgOX2iqPkoRFXSXoZtxdrgVEoFKiT21vJJj6TSPB5UIdZy56/P6XcGN87Yz2BwieqcIZcUCQwpu5SyUMVq1crp4R7mCRKoyP9Jf5zY3cu3530f0t31wq+thGZ67wlsxivjVDNTaWtt2OOEla0kC/7RWYqeMDo3nvKWMHNov98VZi42n9zgoSKw6vMsaT02BZFw5hDZ4pHVkY7nEc0cS6XMu3t+BDwccO/RE1Rd/7pjTPWZAgKa408l7fqF97E+rg1WkM+3IbYNZGNr/bEl2HuE/tzejUeB+GolcdsVy2QmWyKFdx4Mq8oREB6lYIv2Aos6fjovmItY2yYFi1VJ2tElUY86szCLCRkOqV92PMpVjIga9BfQGF9OQVQsfw2jhjuUXwQnlQV4GalMHTzWf6YuA+rxqYefn2Z6FC9Ia4Vj/yjDzx+GrPnfLsd6b7msA8fEzt2KZRb3A4yfTpyAF4AZFPQtDeXpkijcIoFg99nEBlYRyqQxOpE5iGUvRP6JxsC/9FqlpWwwR5TWt4PqfYt7iD9s6PZjC7N+APlua3aQvkcf/0iBFEy1zepSlWhjLNCeyy45Nxbx/jol08PzhtuQFcjIygEcJovVGA/LfnkhzCGuUY1PCFNPd1jyCt/h98IsGLlINp5mSJY5CG+o4RC4Kc5+pIy0oaJP82GLxrdC2XZN7KkKeB9tGPrFqWMzewYXphjw2RSP/6KBlofZg6jkXMzUT3xxYJpXRe2bhXXpzy4R7emhVvft9fg6NPtj0cZzKH3oJZgwzZ0I3gpmizOFRQWmvRWJaWzFNJGxTOjVC9482nmOVqrvR1cEXafiZ7atB0KxxcDJDeCWT9GZM65DJk0++Y6j9eGosZ6+PkN7qL4svmqpanBPrOJNqJlQTa8a3icml75RCeqh1XBkfWRJXXNeT8X88Eth9xnd/EqEAAWlz1if4490a8n3Zqsql5wBlLviFyLlKhf2FOiF84s2xjAnEpg8tEjcui0w5Sc7bLpZ1+aXcBbI7d+9PHSEEBGars35vhEx4I36nDJI3TweTaDlFCsSg+wcyvlRK6V+wFIW5ENDdc3rUCyUZYA3KwoppIXWZ+PJehDEjjfz/vQh0O8B7Irx41t31c/W29PZ5McZy61QT5M4uRpsxQ1aq5wz6v5CtahrbXUvee83S9QTwiIXDSjzMY2aQB+Y90lGJnqr5Nf//HZ0CEANP11CKEYcHnUzWbGY3eKqcvl9qffLeuSUEmL0OdIaalkOCSPml1/ekuEgUnPc3eN7xaRXlib1A0GyBzkvvP89JtgDQ0wFkcJByrpt9FpRFbb1sSgvpSmrYA/o9bwE1BgVJ5+RXIOlscDdwQh+4meKr7coVGn+b8TuSp88fOZKIGi6Pyf2WE8kuwIzBnnm3cIqff5sT25+UBRtN4Vs7wT+gCQMAWUyrnfaDkUba9tcGNBf5ZumITyhq0wAgNaPpym2dU2CXgYekdV9xT7vRn7+TwjL3ilTxmSsAShXtcUihInKtaGY4HwkBw8l1Nxlhu2t0LQOVjQsW03D9ubSaOw6JTxdoBlkzTRnPS0NKrwo5f2ZIiNmoFAc9P8JMzolNpJyWXUFhqR9/CdIa5dhJ/907nKXoJEUkEF7d/BN+/zUqZmLUpmVRhmAfuG/0qiHWkVRF8uE4CJBL3XVz7msholVnbMXXPY6nCZecD+z09geabjpIy7mbJljZz/nw0g12+TG/tJjwEP4lJ9NxY/D9VP0BXLQpQ1V8h/YJNIJpqAiDo5G5iPlLYsjMKzrUJMKHYG9HBdAtAdpLgX4S+oFY79p77b7swJJF2vBZrl2fT+7NnuVjdgGN0IWB5xdoJoWWivJXg4+WM1zILXvsrGp39FS6LdNRdRD7/0oRU8O4hFcisWUCSFw+nY3pOuU//mCoV1Qo/dzQncC4WFEZTmz1aop+kEnt87yGPfmDNYgxpKoDb0c03GyV+K7D9l7vZyEs9MfvyaSlfh0EaIHPDoRZZepRPZwa6wKzHu8bkO4k0CzD1wTGRhNyT2VYbV/sZy5ayfKPIT+pYs8Z+qhpJGzjBzrs8q67Q2GYmMy08RCrM1FsHD/4yu4FKyvlOP7W6s3G6mf5ngk/vJvJy7H7husPdpbLmP2Ubk7/YF5Z78grTsySXbyN7gpnBav/S+Vr/l8UaGYNWfShiAa2EoB5oEHsYzcIMPeeDg/rWgnVk9KPQP5QCYt1XuIRxeIIoadhk6D1CKg2hYYWEOng44etqx3FwMr/+rlEYdmiUgZVER2jXEgg0lc6A48Tfi7JfHTSSrwO0ZMCQ3cBlUIchj2zeRcAJmdf0aKDMqlH17qU4jO71Q5nV9lL3AkuM6RdmRBJtA/WMZ56K6W7mE69FUDWSW8Zrto38QOYpsA8kAliVnYhaP7I25uRJd7s9uTTTXQ43sAPsdUPPIPUJ31pg+QBzQr0GuuQYhDT0Q8Vf3p2wt5r8CKRpojAyBpRqhMJYt2IrDyge7uEGGpyrdUR8+aTjVUBBmVdpPH+ISo8z6Bt9vSmcrgHte8axymFx9A5EanpNGGGedQRu7XRkvCa7yAUdqKvN7fecTM9D1q/rKgjSu468JsErza371NbyDNW/Yaecn1JWG4YRpIwWgejcQ6DKhsBH071o9JXh5hiW4X1hkJRN6yvHZroIgIPp+4trJDDGlArqmCcoE9baKRyk2tHrqbDblGCzjwFyjt5CEHxH/h/ZoDEjkR+67MDC3FL/LPPUo9OZx8GK64np2ADollNWvHo/YJfDFH+b3OPk2Hyz3YiTH/zRskQFTsqsZHEFrcM7sjsThdF7y+oWiHL7LmcTLO8o1xYBfoeOiWUg1SdsodVZATdTT6OV7pBZGRNdBikH55zbFd39gt7ODdr3TMTBujZ49S4iu8kxYQelmuGIbWN/J5imGhSCH13Z4NHbOWc9MT7sMAUca1LIRSwK7MIw3+fJt7bPm4y9flMhGZApX0NzhKMkdt3gmMn15rcHLBfnkpGBW4w5u4CIj0TUC9syPz2Ar8TqWuLOVR8QbRJ+d0F7zDSG32xp8uoNR7fAkGRBbIYpG7oQFg6VmPQ6kRsi5wL+gtMUoih78s0zOCQpwOWvpVWJO6rrk8+GFKE0RyJFgiPOKq7PRGP9lAPKak+tpk6iGsIUOw09jWb4V/ngm4U2wODnfTwXz/6zvlmo6wYTkbNJPPnBpJapCAcOEd3H0lYgfrywpiIocOicaSahVQpy/b4otTN0N5W47kxyZK0+arxtH0Ud5F0tawRji3cCXdyDHgrdguE+DnV6H1i+Vrokd8ME3lhp5KecjKCOY3myXChdTKOH8IjnbBxQCpkAf1r+sP4qfnnO4g1Q40Ab+JVl3i2X7FFTH6qed5Vz0g/hSagFpmkDM57vRqCqai5utEm7D5QQO5xlvvn0N895ooTFt0GVarLhW9b0U7MEZyyD/jb+kMrO8Q6KlAE8udLmeHmc9GcidCSPQUWJcVrStlS9hg4wqB2xN4Rvty673bP7vz3GEonRI9U6SCs7iLs+RzZC7ZuxbFzLC+aqfk19+Z8R9v8TIN0ndCYaPwbIR75YY30Gjq/EvLIcM48YpKodxFlWpxLrDJ3SvMGjQCRnalC6JfB+kECVDi5nTxxy9t1a2RhhSwmKLI4z1IQNo5tiXNPNcGMp5/+dzAZ8cO+KVdmgK770MGH3r+01PZguhn/l+j/6erWXGPGzK/RhFQfIZm/ez1xdywZuGAhEf2Im/tMejq1XaZQYTgPsUkdtK2KUGeY8iw8uzXHPvUAkcjtegz8xMQsS0iH7XrhPPqKjPKSVGrao8+kXVkGdHI2lgiO1yxyCd775JRT637YoAMcxu39A8Kr1Ed78pAsh2LqicD7OsLmiUdnca1Qbp0i4h+LKmRJhcZL4eMDjsGO/e1IESKV0Zr3oRv5QVT/RT0ZYFv3aZT0Yns3nAoMJejmKHelGPjJyXakRdpOjfLoDbYxeBRhs7CWxJpinwRrFqZ879zIf8hxYfTqlo4cX5mzI0dO1PhzjWDKC7C1BQpSeOy4wTPPNfLH3WXtRzLFNC+4y1SeXUgCLaum7t0JkAvWq8L/8eOMvS7oJlnxpAT27Ktwg+BQMxRerBLOWMBM0/NFX7f5HumNsCmv+6/1K2bGyfc35N30gUX1O8VfTOFrcg7FsobO36H0wyrC0EkdmTxJa4rNvd2Q4AsBLR7dkCt60kUBmRcwXWpWY3mvcLmKcLpbqwy2WGGo+r2pYZnpGMcL2V6mrDABfYNkGQ4W4zf41Egy7Q8SQVX29JeFZhrRa6+FIDo7l83zilH03CroACJlcF0LD4OnHfs8XJUHW7BWMDdA6gRj6x/yvdN99+n1pZJi7WRZOHg/4WQYO9EWSP1/jIXjf7bjbBG4ta2RfZ/Ff7HgHz9x2L/yd5LT23ZTveRf6WJNVb+FpzGlW4Ig3CCEZOfBRS2XAGQDYYmQ7xTvqUoIjohoTsWXqHK2zrR6Oblbi27MKyl8pTstaq/YcdQ+AsiSboUaa8mh5mzyyjpUbL6SSWo9YM4/gWxj5WHpceU2XFG9lXI/4eQLyyNsbnH0TJopbn/6KdSCdHuMU0udsB0Cq3C6Glg+dojLPj8PgN0YcFw+E3CeoYs91wXMMcrF9mDZYzmp92Gwr17Hska1G65k5ehxIlUl8XaEdApj10AuzikTGZ5S8cOqGwQx5xJ33F86LrC3jLDoBgLrQI+MyKyPH4AQNtuBmHWj78ddUnGHGbN5yHBhRTBMvQsaxufmKED9UlmSHqY3i/UCom7DH3wuKJGH3e9TPbb/R9NMnDQPXBX/uqyPZpaDyvgtoRaPW5i5ggBkAtdyUk5bVTy9YOupEe76BKzHCVKsxQ4wTu2nSom8KsdRDZQBdcZ7HXr08AyQCMGZWRft60Q1VixcoCfNJpAj788V3/DYwdoHpHILi5V0BbKNIPvW6UqirTfIUdqiXZj3t0adf76ogvl9vKTpMeUnfkVNufmTIvNugRUJqXnN8majt01Eq1YlKVCGbavzDyLxRCBD2aThP81v2IeMtWsjhX1MrsfRHxTCm0WpCw6TYLa32PzcWg1mvKhKV3cYi1p0pBoFKhBbWgzs+1bGPY3jVf+xCrQiFazy20Fl6f5cefzNvPLtAtRe3D6A9lWw5/rp4UrrQyf13r9/A7yZ7pYBXXDC/6tdv6E6HEBaTcQMbOgPxm/sytltTLR1DA8tpgnjuhpHa1hWALhCguA/luO7hmGKAmTVFHtsa5oKzdh2Fu5UUH6s/txWEdreiz311MrBjdx737b9UOWvIiUY5mGnJueEjjZpJNhi21x71wFlqWdSHQNlT0AtNXxHVqVCVvV5HVE5RI3zbYYfbu/PgNvrpMPNSlwyibqEZkAL09bJa7+5oFOk0OCTOL0fW1F5UybJ5kjhM+SdOFRFGaR6RzFSIEw3HFHr2PQfemvczd6g6Q1ryQiQU2EWhqe0pEs6/YktbYZvKhXDLRL7pEgoEchPXzscw9KCcEEXEGGVFuBt9RX1fZsh93foKpIOtoniAbDowbNT5WNJWFt1879Xc/4HQ71JgSNICCOJtqcZOiW3QZhia/IK7AOzAP3v9/O24rEIsxg96+LuNNbMQG+lBiyKXO/PUaQq1ugc2lGw5gOMXjSg9iP3vvzWeVBAEgBTTt5DJ8nWP3Tb20VnVgT5TM2HCFIjhfGdatD0LDlrmmk/dw25DodSGwXDjsNgzEQt/dAqpl6whn1h0v/Q0c4ok8V6cxraB2vEdPT9BvkKrdP/66A4zUMEJf8EYaylUhfOMLSA3I1Z94OHqxNkDwwDVFPnIRaNyO9F/xy6BHVEoLBYW8RP9sa48It1SN73dczIFYGkdVJw+hNTjJ+/FL8vxRYjzBKjRG7d8FrfM1JKXn7pEuLOelGb1jef/DisjedndrAK+dXlS8vwzcl57nuz3KI8yueRP2EJ4tjesjaVAjWQ3Ny3mc3kePqWJjbeePH5S/rhXNEEoigtWl3DGKZnCdMIKvJGgEc+v8ss4ySJ3vgc+ALqenEWxGWhfW/Zc/myyE2MSzpqC5L2EyWbMH1Dwz6l+KGDZ9veocWQZ7EshQovdLZbmHy9FkQnqF3yeaDq/V9npdNzIUgW6Zv8BqU8KbX8BXOunWOTgYM1UqzPWenLozs6jzAB+eJApaoVBK426pBjU7VTsKnreabHECpiHibSF0fW6xtTesikWmKTx53yVH45x/dA02IxLhsMJiLjtQQMMKUzsqy26vJXl+H3Wb74isjpEaAh/PuEopgU6l9vhVLDi6qmsM/qPwJ21mmqobw0hK2VKDqQFmKe14RgX4tPApSXKdV3Se4rM1aGH4Mi/mSDnQLfCeuEaVG2Pm/AaekdI1glDAlIuFS4dIC0YK8m6/eyU64A9z6hB/L6+mzmA3Xo6x5uC408zptqXfemQ2MrOJm6rtrt+b32Li0J8ZSDVZTurf/yjBnnKZ57E9LXjkZhfGVB4UAC0ajGowDT70KsQ46L/MOR4nYhqnefGc0TWHL16ms+Cycg65uyzv6ts8RREjTZQDHQ1RPbgJliiDzMjJTU0h6knsTCV5yqPJi918dt/x9z9Y53IL2/AnmsVvccIUvFm91cwG8uIbQJEQxJY6N5cmdCIFI5mHeuDiPwGM9fASMjBNZvJDEUKy8o+vff6VIrJC6loM1SlKdu/5DlJTSDuzjmD06z3s5IbgHnvSfQXVI7NWJHYfbo3z7+DxCO0r0lvvWUjbqJvfXQH1VG/TpcxMBdv1hmnWdT/Xtvy0z7N9BBydSLFknUNN4BxhWLnGX/N3Z1izY3Zg3Kce8mSNEhCcXp4qcoY1lRuQ5QZUUEpbMWAUPMBME+o4RZvBpMQFK/yKyNEo1RJb/4KygNNouOJDJ5qnmEoZd2pXiFIsRon1OLsX/PLVvhkjYYyPDnwV/W54/ZtO/JPMZO0lNJ+53SC8VtFahee4FyvT1uA0321wqhP28QiNpWmtyVdXYPXYnq5EFLj9U9qOjtTfKW9PlKej7CWY3cJXTv+dvgklsbDbtrLuoSa+uX2drgYa0mNPxlJ+M2ZNZAmHZOOqtwZ+A1mLkupmAjl7Y3yShqglCdNm4QPOvQe94v9msS3T4rssyLpxRF4ZW8JcROdR8Zis8s9SyFB3Bv+MY/ir2lHWbLCYl3bFW0SWyVZJpvLacUFztGTl327M1wv25e8tdqaf8PCj4QxdIeXJq/3wJZ/SgI2XctviRudfPe52JflGm5zbcqxZhd1XMbel/nenq8X45YVkqJ6sc0xXofNp4O2pFnET60zeOygnWCaRzz1JoP3DHHNiBDWa44Q1LZAUow7yptJDNC0TaQHy09h3JVMJjs1qPlxOCRAIjMeQTBygi0dQnk1qFrhO+iuWnEVty1EXdiSNqW4Dw/rs81oEdJqXNxrtA7yLL/eCBO2xqSCiDZxzSy1bKGGYqRlX1Jn1vg+WMtW1OdMRwdJmVasyRNMrLoqlRqpg1VpdsAwTEOPwSrdtJbwWMN//4DySa9uTJKxskFMMP7jTBXAa9RHW70HZBsxshlfryEMil5HS5O3/tQh+eHbnvvEAQiJqn80I19ZI/SA+kUFy9xT5/gQg8FsZHq7Yw0/jDfllxMRnqbuCUmrdHwsALj/+cqlFnClhDwNTU5hDHyH9TIM6NZE1WqROYxKsxqArve7ww5/ugKiN7OPFAZk1DpdM3osnPTv3AqyPc9xRVff//lhJaBzg0UILLSa6XJ9dbzcbltI9pG1iQ84+wqdhehCu1DLJHozljmDcAmejeQ9mGWWwoXfaOZ9S+mcujSALX36d//8q1T3jTTklQcqPVxt1sBu5oetuwtTM1hTHm2dpgI5S+gv+TLfRWvHfNT3MZan14j6Dt3JVPint3B/NGgaJAiCr2GBGfZ4OzheJUMK+nRR6dH5VOixMpHbEZLtVAKyFIk9omxEk6D/GaA5fz7o4EcbLrQQwObAwDe++WlOD0Wtz9Ksf3pEmIAw4pXL7xnGOBQRCWekGDBTEUAvUFNLhPcc2kvERATeGlCTzEZ2CTZJIdCZjpReEBWhXChPIrbD+meXo8F6XG2dBw/S/ac9YBj2qAPhhy/KsxV3XiX1K+p+bXbYBMEFo2lkUZZt3Iw3HFV+8Ko0CTOo+nitSqJYl70ybCiDfItoRQ6JtGYSg3qRaSOAUNC/901HXvT5XC7CX+FzB3FYFzH0jehtUWGc3B+XDdiKeIGNyXzYovPubCFNJVTrLiQ27FsUdDD3qgGyQGJxYNboS9PPnutj+VCeqCMptDVkmJ0+YmynlfGfOibxl+7XcEwxlhpBHFiOU1rtoZwRvYGw1Ify1gkhKc6k1LH++DCo1hqdwjpl1HAVi14/DVCnWYBZB7vv8jXiOyahMVrSGwmj362miDE7APs+Ne9ZAOuaBc+/LzWeBkxqU0xZdENCd7j9yx3BdHZJ0rjmMiY+RTdgW9T6hxjehJagYBIC0ZSQBNzkRZdD4HyUPkJNIhhlm8AVgyq7djmUY95yDZjEo//fX+7a+1s2jBBuONH4CxG2UIOG6mYAeqRptZ+q/nwwijSvk89uX35otqPQoM4rv3k/yQdwELi1ptfYDZafKqc3DMNt9QugdJ/GCmzuflxjTqXrZKzKX72bYpWlh2Vs553opq0XV4UAPDA6J4LZbuVWlTzRggiMk28lHsqeTz3r35Wr1RG2rvKI19VtYEnn5X0LvmqF0qYYqA1Mtr3+oYlSiyTiSazZv6bl40s2UXkf28hbh0btEa013SvWiaqIj8i+4+40ijF329MfA77j3+zFB+72aX0Qfhma2qCbXOwsYSWUuvfZr6hq2mbepao6rtdDWtv/Sy8zirSGL2+qI3m2c1e7xGkqvFFgDsQ2yhjAyDQnRZZ6uYCSnUfoXRz986E6YrBO9WL8JCOHkxVVFeQpay5w3A1XFHZ0Vqm+yQgMGUPxsE9L7Js6yAp/IkglYuIuOu0s8a3aWIs6t7XhilNC1Hn6KQbZATQTrTwore7ahC9xXBOhU+u+MMxc3BCR6hfkIzOfmuwFOeWO5DkV/DkM5IoTiZAP3LHSh20GRBRHgGq9eOrGgraTzAHgdSjCB2l9j8tUWMvb8ECk8fYwE8npZuD/M3FoSRw4TW5F060ZZepHmjyoj2gmSEUPNx7yeRhRZUSS5iZXRRfI0gMFfjHvPp/bpPfnWkThLIWXV4/krjtl3VyUGw5j/1QiclAgOy7j0NtOaD4N0C1QDRHc+BjErP8XGxJq+3oZUl6uqRH4Ro+q+ivvfbIwh8/ikDmocSBm3aUEiEnvqVjtZdNbwhFaaJ/XIwD98/nWN4mHpajh+D3zX4d0VZYQOxs+by2fipTUa25w1/6lCuJNDHCUdcPLIY/sYts7Ka4as7Jf3XkSHaH9eSNy+vcGeXtPPDk3hpY3guGjcvOJQwDsQUgCedwZPs9mv4k6PvklC2G3hxde0NzeS0i5hKdojHgtyPv/pQ3bIi0Doy7SM+H5pnrraLHIS8xvMKEuzuUqz8DpuD6qgKfamZwJKPK4HPZ6LAOjDg+/4Fo1BTJMS5kwCb4747v2BeN3pn7JFpeF5O8OB+IXGYRO5cFVtzpVz+ng95p4dauKXfjSVyVJH5EgF9zM6S1W7DxZFaNl/JgAAS8EH7FK/J//0l2qPNGAKk5jNzQAEUnO1foUjBl0PwK86q9hEx8Pi83tJFQcgQFU1hcmuZ8eGyA/eOi4IKbRVIr233abFI/AwQGq5UB+icd5MpGM9LmU/wHwY48fudljIFDVc13ZLS5ZiIYLZV3zrOSkfNQ1gwdGoWlUGWKYYr3puLoFgSTapWeuMMxztQf3rwXXoi+6/vDOLxuFRzH2qbqH13Wf7/hatQ2zOOC5noocADS8MfQtOpUjnhHK4Of/3K+qac2OihP5vnpSbITQiaTTmjpehI82aJZ7O4znk6MfuEpEsO19GH33he3cgQVj+FoW/OeM/+az3YME7bpLK6vD5QEIp9SHw7t02DZet1bCvLIfY/6C5grrTKw4oG2jAgib4CLtFRL/Q2I7NHzf9JXnoN3WPsd/XINKG2RSU4RQLXaO/tYcClzEmbKTaBvik1SHNh174hyxJKPCeqNMQkl8WJ+/pblEKt30Nt8i3ETWb7HqtBAkG8ZscxsIlhr+ryqS7sNHeWP07YEhzUM98wwv1J338d7/UlGhrZouWVl4AIYNlOoVbHq9x6aNfm7bKM7ItbjfoUZKVTWSKYM/HT7MISu8u9vz2IBKfr6EK4rY4r+fENdoAQkk1gh17eUTqHc1nonh2NhuRljjJ/Mo7AgErpiUhfT7eIqDPkNO4RDALcd2e+BWXhnQ61o4pS58gx6YRw1aYxcgjXuuGoxCA8WQH9FZSAHoyRiKDbausXS++MBIBqJaOM5Z+mB/Z9BzG67fqjK5z34kaPxP47svGDt7wcLKc8I8b6q4GNgyjY7aSR9NTjPM6lRJS5MIdBnwKJ3tOsampMtwsc/1vNUxD2lqgBYWBPgf+vPIIWmgPIrbi37A2u5DHxFlYtGSGehBcJvZiHnv1PJoH2Q5VuKBWEJvQKHQxre1YcHjUNG20NQ+uoglLg0/pY8cCwxNDs5CuSxGyBIAD0Q7aUrSPo8sjHH4pOiXgNa4DvYRRy3a/JmY0h+9jzUcUZKpb+cUlyid/PsnDG0AS4ZQozVOvPBK1NbOk3yhrHPE+C4l39Zm3rRsZebARIuzZUnWzagITp9GvWpyq+gW29/h7otH/VC3MvPRBNBw1zYnPc1rPXx6GR83fqe2La0puc7wsiDXTk7zwxMNVEO1UVt7xi9uSq7GaEGl0zdej0avLJ+FLZW/wh1YAbJYk4EiQ4ITmWB3RVTtKUm6Yq3K3vdYM46AS6IcBh4aqM3Ouk0GdwOwlJb+BUxILoSnYtaCvKJkRLSjFa5t+i+BdE2siHXHt0UuXpRF5eg1x5H6XlkUTbMLVx0Dty8dDwjFhyX27hyMr1EvB2SdnetXchw3Cxw/XREbUtuT8FgWFyYxD0yVhbbDv9MYjvCRdHwZ9iAhyMfXvqZcKl6h2iTo6woMtY88lbY/hzMde8CGHxXhOtu8JQC9sup++sFzcqyg9YEUglwNkEKRa4/9OzBIbJ4cyYhZ4WPHeEz9wr4yjBrT3tPCNmNYNVKlR80dACK7DHvf9XOTQBMfXuT/BoAg3WKQIsYuijUrzmMFLQNfHutDDvM8rnnlABSuRZUZ7eeAbZNeXE0lnziV7BEd1QunMOped6Jr58WN5rTrJtbFoZYuiyBmdnoTgBPTRA4K/uXSeaVUvA0vxfr7MjgvqSZedsVxXYJw8WklOX+T/e8E4oG+rgJg9Y7lj247WYJlW+lelfVAvd2rlmFZWtCZx55gr20cdSxuu+uutWZVjANCp0RGdnkQJtqne0cKTcVKK3IsMKGhOVPUEMznz4psP2khTcFyDYvMvaG08uiOVgoPGpqu97R7siUZ1BMAQgDCYlWR9G1YNUZB+WjWyoP9vKSp89Itg4u1u9nUF+wpoadKjh56Hh/jk9CZ1Dq5HRG4u/I3xFSMShQoiUkEWax8eX2E7h99MtusOmsbkOasPqK/6on9NcTjuVuD5gjssTswLMSGIgDOY30zZhYYl0r39c9YPQCDJMzqofYyKcRNVcJbfj+Z2iJuoAUJygucAeUBNZ0L7t0+4a9i56Agd4L+VWZAIWnlL0fX8QX/AarwFx+2uQsw5PaQTPXdDpAp5JK4nkjOXn9zvsOlIbUJz5Lml59ebz/cvHOMnAS4qWcGfp0SZvE1BeVvB0G+1BnDbNSa4ZGL2fJrLrQgcWKxr2p5ANB0ZJgMlWRyY6ong0dB3T+KVZj/wgPJPkXIyxE563XReY2EahKFZ/BnWr5y9Vrkqj6SAytprnQqKMxl3BVNlbg58TKQ1HxCcZL/B3Har+xfKIzRZuAd6QvUpx7gWSFvqlt27Y5GG9lkCcI4UdU8o08JXi/1c8Yd8LAPSynPY1Dh85w8mSYIZqk4sB1GG3ZkB1vRtSARcirYtFL0PnzZ6e8Sel42pGJqGEi321My/dZY3ymCcNiQM+zVVAblW93sa6Bwj5AQXpRx0k8URsu4n0svtyRSNyBt10W0uTtsfoGogPl3NDq7i0ALP3nlmjskBIBoRP8iSxd9WidYODC7b8ZcP882HAJrtyZ1yNXlJKUrxofjVaQb+iFaT3ZG0dvNqbKiN2SZCxLEqXTucSd1/mzvaSQkZq5T2eQZr8vjwFBybMQkdcFOyXo9187ToMkEIdOpH4i9ME4u833v0fzq7+SkcfC9b1fi3FmGXeSpdap83GQ4p7k4SMUlRzNkRk2gI/PScxNZHmjBMIjDYDfZwd5JzdKv7J9yhQiSUDRtNiNT1rFVjB6kz/JfwGw3oHp1Aw85miSLcgvWntHu9mcaazDoTz87xhOPkyZQ5Hoaimje48+PJZ2IlAuyXvV7GsEb5ENJRl/Ie/25nxdxQ5F+64ieEZhOE8B9wgq8Tjh4dGmbjkdcZ+Cc8L09+1YXs0qoShwn18eG4hzFM478iMHBdUfk/oTbwqkMGq5Ou1TRDJpTCDxi3NZde+RBJspU4e11vOiJPbuQfkDZ4Db5N5Q6RRu9qBnO9cwch7K7XdfKqe7e8h8Oe+yZTatf/+OH5fuJAAAAG7hV537cEQ0x9dAABfcoPfl8KJyCiJSiLrNsIr5xkKAoAifO3p20EbNqUh+4v3YxjC9ea0ebe4g4spIVu4mSbPt1GMVXn9wCYkGOrZh/WRmAq7O5IHwzM6UAG44G1IqZBjOQ/l5QCHDh3aYBMrEE1qLNkp+L3WtWpiDvX2fsUXh5dZWd7h1N0VgRcF6eifTiOqwQIp0SXL9CiDQqX7pw6SQZNXvgFawtLcTP53kYOtpwACJOd4RgAFSND6FjAGbqT3gAAeygYrn0ab/Vz6AhAILSCZ6dPf2vlxQpZkl8FR7xIWkBQRw2acBfNNbp1wyY510w5g2UleSRaS3NWE37mHpfe6IFm6QwMdwk3AGE5PglTL8tLs5SQzEM3LEgKHUYKFURUskrpyMBeegfMogNrPeDYBcFwH4BO5ohlJdH296c8m5pkNI+O6jHaFrQQqi04mqqDjN+SnMg3SoFr8Uwee4ku0JtVYa5RtqcC1SqFSBn503tUvbOADirdPc3xy0vCiirhonKkWDWtiMSQVLSQNW/Grvexng2kaq9JqG6OvTW2M2IiE2/fhzgsSy4Br62H7+9x3L6+TOoS88Q/LcNEurECp3sIIPNJAOcYi4eQ313S55EmG37hqNLFnhTtLog0+HEmRMmxHI34NQ90jVem5nDYUkJxlX2JPDfQNbgFqk8+ToIoIClk0TfVdefd1WdAvVH+oQTLNqEgIv4tprG96nLYD78fxpfm7gYzhDCTbhFJfK+xJP2tLfcctEVlSMceEm3Bh9R34H3+gFOQZQM90HUVjb3RwL39LX+1QWE9YGzW/khbNAG9LS85dO8/JugMSIrsR6PwSW8eoo0tTRkCCKOuF9GAUi9xXFf+gDa+GNC0P4Ud63N0QugA/URu2lvQ4BuaT17N1N7plEU1vL8WokRhCXPKyTWYiEiSvgV2RAAvkb12X/ybmb/BQbR8DJpWbget7jRAUIuoXS05CtIb+Vy1qI4WSB1dtVkWHSN+OsirtYWRbSUr7kV4Gwsvsou9312eg5f0HQmr6SfFdHvOAVoFkJvd85JFxgf0q8jTvdgXOAdxZ6ZB7dAAXkM+GO5S3gnZiZ5KupJzvhoVPrsu5N+JOgjvs8XecM2tyYGThxL9jc5/HCb0QWDImSIztfuWwYr+FL86vHOYgBUbgZ2LCr/qTgU//jvQbkIpFjV5r25vJKazNvuzkuS+DxXRE7zqZwBh7z+KodNoVrELPd7KDihxizopJVtECvH5FcQBA6M9O2gBTUnP0p52/By/fGr0WmLl4xmgTS62U9Krqd2RnVwpXZP4Q4wq7g7P2VxI+DY65XztqAla5GECqdo0j8pG0dAzXybpNAc2oQNHQeF6uSTzuc6QjEkskrpABuI2/TQLNqQOITwF7XSd5wL12rMOtC2KZJlz+uRKRJsPsq2f/02eVekKGgAfjLE/fo7ihGjukdDVupr9B+pGLgDUjSaFZ+SSCndG5k4OpAAtL52vLQlKOj7DpMBFMpWFuSOLGFf7JPlzcHe3xXZZCelaxRqVqIOCjRNFxk+uErvQUIq79ZyCVQOWBBnI77x6gaGB35/EYJYSoPqae02TCV1/rqjkk1jVcdyFcXXmwau54l1s8x2WCrg/hy+VLHBDaNeC0eAjid6Tc7mPuFJAA+mKvwjk8cbxP7gDcrTKBJ+f43ryT1uuCcOHpGrgUll+9Tg+BNuyzTTDNwbETQW5xbCg8rztL7wzh0NEWhG/fPEsy31BzYDFqpkxGYIEH+P6zcCnTJCcyh02RoTxvY1HulVd47u9Z3CKuNfE5ewv5d8tCbbJOLKILDheyLmozOjaDgvzZ2fbMYJQ2Y/B/Ez10TjE6MKsSqqgDOiGDnl1vaEsVT64TDQvrH9HiDP05/dRl2uq8Db/lh1HUzEKde7BkJNjeTUDc9NBPkefpLtaeAr/NkWakQ7I1iC/qmBTa9byk4w8F7LA2uN12+uJOb6gfAo+TwoFggK6CPN8uqpyq+xZnL3rHrNEq6/Z+SHpnrU2AdDNlipexv42nOi5jhRCa6Yx59pc4hSXOHsS/ordAnOyWF0zY5aKzOxqGE+S6IhfKmo4ZqW+66kWEBGRg/barbP1oZS5u7UOAZBVSAr+ndtNEQnuNwgyO/DKorKacwxIv19Tpgk1eSlkeWgunX+bdT8mbXF/zBwL5qMVHl6hflQij1UoF9vYg7A5Dt2tSb0o3PGw/21gQLMJZwPS/CLK70pxYtfJ6ahmXVL+NIYVF7yyO7ZGWP9y8ER7lTsuIHrUrz5ZZFFwJRJ2Ni8qFAlfF9tEVXcICYv1i6+RmYGkB0lCEsS2oEyQzTfP8mAbvWwFC5iLG1SQAUBIQ4W2vW2HLaYH5pCwMGaZU5h3jzIkIDdN6Ol6mRzx1f9mkQe+ApKUaPw6Z3olYOiAWEBmkv+mfvh6ezdoF+kuNb0pJB8hmJdktdbLuCvveJ8BASHIPtcq75tuESsIDUx0IWfMW711IeDsK7pmGSy8Vy5xTB/2+NdtX9031S1XVus+3WkFunUCQpdYB7Ieq3Qn1nMyya3//0gkB31ZPp9ATtDhiwH/lz9du3QcyJFKbBZdx6Lm5W/q6eT5OSxTy+Y4rR7P/yxv9DZQ+zHjhL9q3g38FTf9uwIeFX4Uvp39lkHbgWolJO2JW1hR3A2NxyThQxvwSAVVbDdQB+Ae/dwVF/w7niroBpY5qLSDHD8jrGoaHRRnSeW7IWyiUpGonvxTcYlL409zkGcyXFR6sLvcX59ADDOzUGnBWj+Q6b4HNYViv66dYPimI+wHbXqp7lcmU0eKlsgHiMQvaUY9ifrWzqWMF2I5JfcVPLC31isDD3LVjLGwfaUuogxhx+Hg/KLTSk44134oJkFaP90oFLKcnFR8tEBcJdvC2oyQsEiCtj19ovGTfcq3re47hrHioTKoBRIV0VGv//Y0d+f/18SoEGUnFh8PsUuD4dS9s7+LsyVEqgqPG+Yj+DRPkwkMI5ouUNUPb7xpRYl61qqOZxit+BVdZ4ZaMGl41GzIF4xL3f63URh1Iyq8xzsXgpwAYAJBQSi+Z0t/+BOVEmoyYt1j9WE8QFeXT5hDWhdPJhX7G1XfUBD+8NTIUcnYyv+5mtV6nOOomzeOAvRhrUY9KTrV2PjGI3d2C5woxtcVXpDTyHgjuiOoRPqMuL1ecsaut/jR6SLekPrdbvcr/PlPFYjuLTe+5Cd6gZtpQ6YacnTehWVP0q85k2G/I/k/NfQ/7WyMpJhTClf///TJgA3Nct6tWeFxyl+UnGT/fiLuzGlgdsA883EApSktjEbNLoMHAWOrqLd90v///SkxH5VM3n8h6m6K6ECq+loWtilbDh6abBOHdbvJo2I6mNn9S4En2nO3JxTK3Gr6/ogKgiIjzqhiG0qrEIwJU/pUBvyG6lb3iMkGqGLB+3Ps4xCesGsyamjlpci0oNRjqnZXwPjZaBkhlPD+H5JuBzgG073LLNnGUmof+XxOXZ+6740c1QwLV85lYcc2sqRDxQ9locJ3tJ59GFEA4f//2de4piMg2a7WBEVOUxjN31htdqJ45j+/9/8hn//euRrFfC2XlSYVowrYH3FOvgcXvbi9pyXReMteAA07ksdzWgkReqBp+TURBgULMSZJMiBzrf6dMJPjdIiEG7IlzEsNmzrp15b3KgP+hIrlkQZ23ncTxCoKByjm4vlUdQpePKm7hNexO5BzWd+S+sfBMn5L6UcjwkBPL10StbVoo0PBvgfuaf/eBgDsBdF444+1Cxl9ni7OXQOXTf+QJ4zTpIUf0LN+zYl/B2wUA3e+bCXP7eMoTlWbpj1Mrz5aXd0SWIIZEjlea8tn8/7uAZSpJWwaqK7E2TVXF5B//+tSc6DnZR3Xge/vGBNC+gnUSWfv+Oh1hUxDZvmehPFy33X3N65+FCY6CyxI0Wsnp4kKc3eSuDL2PhCJ/TZWzq6QuvYef9KGs3HQC1jQzJ0zghV52Wac1EXCRECbo0TOyA+2yHjg2zzT0h/3//UBgAF3d8QONX49S9CWGpJK9YnvI/kjpvDS5Lh5IN0gM8e322JK3N46bVNpWHCGEXUEn8CnUnc+rPqmrdqkbk2YQjFgwxzDvJsu6dKqpzFfNEFA3g4zoObjKq0aNONH4kAsIvi+NTYBdD4m94W6cdYskc2K++ritYp5HvW7FRy8bG1xcVOOw9glnmUNfBe1UHEDeKHiim+WSu5tDf3jHx/WkeX0doA5k8EcaTQDeai2X5u5VDitqoqpQcSyHlBNIws0ZcWjdMW/TgC6ZOpnWWyKe6h5UBvciqiFMyBOdDHP7T6UrFjYMPhrdhO0HqAwhZeWKhlSOfBRLAEmIzkLqXjsvzNMB+EkOdOEwB05E+MtxNGuz7f6RVgoA8GoZYNxtGUz/L/iw4J5qH6du09UFKskTSAKxumCNjEd2SvGYJlXkSwpiFsiqw9r7u1WFdQV2GraaCQbgqdPR23vUiHbSPQ6Fy6E3w5NEuEvoAG66YLFHGij/W9av5BONT+eucw1hqBzQLSO6SJzrJSbOq+mKjdgBQ64i0d940uBnCLfzu8FgjRV9DXF5+FPFiK5P9Je3JAMsosqeP/HjVf3TJ8rJkgFPyFj8qA2Az2+6CW2Pf589WeL6q7I2h0L6X6h0eUcSdz/7FT8dv+yU0Ow2cfPkfcX35sF+Hq+lIwWrowiMFrY6BfZvOjhsLWbL45u3GgXP+T4N8YZ/gGL5Tcl/LbxfFDucHnnm9UHxjGq3Ik+/PLsJ3LFPZ55IyxqMW6mxNkiQWpm1QkMDmF1saURHdToGl0HatwosAga2YRI3SGI8WilDxKGs6Mf44VvUABQD6DAebR7s54Nh1PA8yjnwdHPbGrvNX2f9l+Qz2ITFn6ZMSrLiTmH9wJSB3RHziN5cRw8Gvt7M/T3hZbeZGVm48A3JnE6fHnbru9UJ0GP3CwTQzT02acB8t1BxP5fgpbLL427DFQJafgE/Gz/68ngOT3d22IvYRD11cPexsWFwoqOpjBffhAZ8RSDobgQrEooH0u581hEYUNPAKBOueCwy840SuJWOE5upqj2EtXemLrERE7lGIQq2IN7uyfwZXoeC1CCBDfypfY3kCuh9mf1hLcAkAwnTfj+B+AeAGK3DxuFtexXS1T3esJGsozhGngp/eMBkFC2nrDIukPpCglQi0vW341vI8aNypOAsE8M45FgmDGGOyvH+jeJcTPFOf1911CxKJunNg1Ou+nIQYQdzO0/fssA0QwHbZV8mkg9E6kScVdv4NGKGP1bD1Cnq3snx08V6L1KqQ8fepU+7KX+3xHY3o+x9PZsgN+6zzsemAsDSnuBIrWuMNn27M+3mn4sOwpc02+sb3sAxrYiQwbMyJj20418NTqeAm+vqyNScPcqPk+MXVRszYj8duZQy9HzPq+2V4xRVWiPZSuuTdZGaTQBFiZBWoucTMq3nguFeA3CT2+x5/40cumcPcAZ8CWnET/4trRlAj/Zrrim09rrFRZCihpREShwlA9dKfv71Z6vlhbTNTIGFRTUQgge1rcMpM/SIAZ6mKmhq9nxtKnw6i1b1XAMe5QBBr8HUU9FUmybwcm1iTqDJhrcg6JmdZuLyfW7SMAtcvlWG7xwDbK5UsSVgrFrQjB9DW5X5H4/HyfN/4JNRBFYzCwCoAT0HhLdD/0kM7R4uxaa76l7uvrcHskHdfA9ZdCun6pTlc95bPLjPNjI+4nG/NBkASQkAXSczPBn41Ini8Kz1ELDf+Ocb4me1pq6G1HZ+VfeyxeF8Sq6K/uegWHx1pUOtZBSFs88Cwb7k6IaUCKtipKPWM8sPxxpt03Eql8rQaxP6Skv0kYg8Rtz0tTuCDP91AasqtFjPOttJJYyeCpxAjSICkhqu3gkOqCm/1SdDPjr1Gn9rPekUcdTfGuge/jb/JIGbgAlEA3RkOoODEAeFdBSzs+CbioeFvJ4WLwG0DMGeGaXo0ESoUfbrkQmIYZEpfWyFNfKx1qXZWk2sH8uHLfPpXgmJyWw0WwKzfeA06971Gmg3/hBy5R87lHXTCMCchz/BsbfOWDIWtRs/7vJ2FSraMl2h/XDWc2Z10iTbulSriD0c8kP9M7OvstxzhMlllJH1UJBax/gI5eIgDIJatUTHSE0wF8K47qDv3JqSMIj9DKzQ7Eic9eMxQHk/vdpN31nAPElVTQZVNliJxAxDUc8aRAB4Sc67nHA+EuZQWsHrWVJPTMCyHpnL28aLSW7cCmW7rHQLLHmyJMcvsrMuGHM8vCmFNSx/++AW6mP/In8AKg9R/8AZGP24KOFMSPqN+m2/CpuTeenBrBMsg0KPsp6CtuWlghXRIioqvajHwE7H6AVHM3on8+M1sw5Yip8e8pHKai65dOmM2nH/qutYIa24mUiYKM9TqjAWSBk4bdpNuoapeU21P383MTp2z/SG22C41LYF4pGP9qZnE0j2/0PwKc4AXJWnHvM5TJXFI4mt5AJaOvW4Wjppnw4ZTjiZfGRLSKKGt54K9winJp0ZLA5Xiq++WYoxDebLNhKl+J8Ig/7SBRBqVPH/Rr+zrrumLJKxaagiESNRHDj4ta2JXozKzws27lhYqGW7o+A9FpNKegPKcpwwfikb/TX/eTQ7hqDWZuxEgP3aQI9jyO82v9zs6dTW9zZ8XdLQ28H7NaQp+zIShMNk7GAoNWbjxGLQFsPCfJFEAwj164BPf0v3Lxcc1Zqprjmtxd4hUfBTuD79kAv84Cbf13G2BlUAANND3kuYByJ3uBM5ybLGXV1+ukuQ0edS69PrAU8ktvdEYkfYU+Ao8LWLxllMSx8rFFMaKIQ2QMhz6USj+JsweJIzH3ViwIdA2Z9wghvhPyAI7x5lISjDcVvZ1JXwPArgNrUTU9u1enjkHe8w+gfmynqItT343ZMutJP+2cI1pWS5UMnqM73hMfd8Z8+l1k78QAEjrJ5xPinmZb7OQxvWcyphaVTHoPyRtCvLBGdgYpSK/s7I/3l9o6gQid+tcLd8uTzNssNCIMpAS4UJWS1KIAfaE7jHDcrFRn7SzpBivEiS+vtK/rov9QRMFBWRAnXg+LC5KKNueDMMAMhSP6R+qkY9DKwgb7PAM/QOi1JHLHfPUH5qjoz0S4hOgifOpmDmhN42zTjcEDzAytgCNNOi6YK9URrTl+C9JS1NQsbswWkXWlG9KHssk047Poqa8W2mwRFSzFOM2ebEgCz/bB8b8yzqgm9ye/LpY7DgEV9jzammCJEQ1tBlB8oWHO57DXzMhAxXV1uvuVR1xDQoqNSMwcaoquPs7R8NApbzI1IUVix3TNV3Ohp+KqIHHg82epAREML2rAHdK2Y8KJv8/LQAn4fTIo4hrRUquF5n+w3w3mLWg1mvw8KM+UpvLGeYwMT2s5+IVls+VXxF273tuqlaLbM4+b+O5mre9YwIohjxyfvLYS4u8RP+G46K5ttzDRSEs0Wan8z96QOP9U3Gp/yNbZzdGTHgymKZbAYkDzx0nM2TUKN8UiofcTNOrwLWV3IjwG12Nda8W7mGxHc2f1Gt20MvwLRPl5H7IRog1Pp4UwnBVSULKmSMsqzM82GVMbXieIiZQbfnofmxOhJtxBw9fE0py1A6NvQPMwNmNzJrAY7KE0HcT+6DMWHhDn40MMeZyd1Hs2T14EjZyt/S2/NE5PI9LJ7aQAroQx/bUD1ACpgPeeV/xpNIpo/u0gsjV8Fqeaop5HQHNrYt1kYESiuBTvcaiTTImhYYy5hIezEQoa+7D3hRZ1o04jBfPatPnZyzXIunbs/qJ2vyg7cOUbgLBVMFt6hCKJc6j+mK/14V5CIviHb7/lJ9P5wzpc9o6LaPkFb2X6cB/1/GAwKLudBv87p3JDMCRAV1WjcsYa0r0jDyVMYv2CG40331WXBkY/MtGDP4dWJrmAVHqKmrIBsYGlryxgJJ6qUFc6B07leDqD1lXApLkz3zsLc3/Tc7AXXWDcOvj86n+CZ4kC6KKXPVLASfngK5TvF1QK7/NxTnnwp1v9GdtEDvaKmrfoo8l9ACdHxzCaRWvk/3pXCPYpy6gSTrZvwIZZos6NRXbAqpI1dtJi6TnRJjqo9UH7MqISErmD/vJV+eCOtWdOz51QaWMpC7zaCRySZr6Iz/NPaXfNAByZAHXUL0ho+rafAy+PbNjOS/ZDsfr6PyT3H3wGUZC/P5+4O5h8LDAv25qMtFSzvvyfSgjmExZA6XSWfzi6fwK/sFMw/bjhkIt69TmJgOf08O6WFEyo50KbQm59mQ25iCCAJp97V+k2ZFNALKuPA0XWVRuN3l8jFheErbHPLYkb8DulGzegxk7tUIJaiKqVOmW9fpcj5Rvj6CSR97HFpw+u5pB4j4te5YAEM9zFajz7ig433eROpqlsMi8UOSrl1rRs2Z765yVJNBRTqr5VZp3JpSBJ8DcjDjE58R1doIi30QCY4zACOLP2YObVctE+A9ZmKAvEHpp+tfBoFNY21clS8fySsqo3t9WSvJRWeHBS/916aIpDwAch/pmtPO6JtdyaLy27lNTrjQnlogU1/6qSaR9JhhuWkn1h3sMzab1/w/GHcWjk91lhommLqll2YRCQcq/ZJWvaqzoqlxHAj/7zrl60EG+97lfWthpSCDjQUaAGml2a15bbi8R+fn9mEOoCKih6I47adtHWVim4Wu+Tjoa2xUFhcDh6HHUjbl8teRBtAYgv+gkK3PJ+A4jJV5zi8myJxVcIoiSqA/cbyLnX+zINuctx269I11E/1Ase9ly0i/4o5C1kG+K4XIDtF9dwgdHNB65KBfxI2gmGxjNPEaBKd5BpXK3pU7e/myiUaK7Si+qDgRrA6LfCGEEcQI388tKk1UvBtZ+hldleSIMdcvzp6XxMeDXnq83geZPLDehyv/8gH5m///lyLmY9Jt7JIT4dmVIjveMyawy+TJVNOePZxdGgmHnvQJzNH6Yo06NqPBlbgtaYTv5Z7bU+6rkGl/bsnFKNH5P+xx7hQ78WRH7wku3nU/9TfDr2qGItvshWmplff1i14ym073tKkHPYsTyUz+pAPCPVXVO2luJ0tyzRADBJnln1WMzWON0XgoHDB9Buyjh9pOeb/NWfJMzsKzDqRe3t2yF2RVBHlIr2F/RzINNqa2qECBGHHRXAW6WgDpnd5YkIMi0GozQumREPsxyCVJTGglS7iCAKaI/1dIcIGzwgb+6BS4MWBTYn2YQA/+8DM4rNXjl19dH1d/cjQi35Wdes3G3aHdkoQTif2A2ZKVq5q31LUheopmp9RrANowy/t1kbiyrSo5sihWuCdOJDR0cPGUvsY1On2Qk9aD+8wRsbpdcdKqckBacp9lfKg1PcWC5Zo1xpxATFNQYbJ6o/bcOjLikpJYECSqrw2+fJB6zFPURdg1pYxI/0UR/WimFJ3dMfqNKxiKjfsVp7FUed7h57Aruz5eNKo3kjJxRIJWqC7f7okk55rwhUIhedyFnods6TUFvT5czMsTsJpCuj0bGPO/VULjKsFNMcD2W4sq6SxT44+Fz3Wrr24B/mGiFxcQSEiXA/YyedH7p7s1sKyzuVPQOd3JCa0U+n2h3lGJKS/RFQUjJXiWhxBKHALJWG3/W3AT/hLGBK7ttWw2xCf7PvfJUHolSsOdo0c1Rj4pCUsILxqa0/2YYyzM8jmfzhy+ITsnYFySxB/BLCcmLEwsBXqDjo3cOms7l7mfRJgdY/8UFJ8cX7mzrUuQ8KrGseCpEHrwmNgkDZUnnJTOoJB+yuRfJbwFMiYwrZXzl679TSGpHHfYQqYsZCjnU4adTL+WOspvODBMuqnr7vKNUd2DxMLG1cUjP//gfKwizKUWQrgPPqJzLv597q+XaIA209ZsGo9eOpGCLJ6VYMuLV0sYyKFo5hjVIRw/QKKr4Spz+9Sd9oKk0ZGHfZr66Co2GwU6haG8Jeb0ywAk1IamAQaEG1DRuCN2my3IO2wdCU5OYECP9fgPv3bEgsEP6fxr9hvPaLwk0ZcfWH7k9CS96+N1leGBaH3A5Pr1rpkSLMIT/XE/JVq3j/uIXQ4bTxhzLFdQWzGZ5oqhJDRXasykYXiDcVfl1BeFBVtBY7MfK44NohVreKBolPazg4D34MdposAwqJGOFfAzPef2dVs4AnExHSxTQmaMKqyuo74s3AU5CibJ9nYyhkif9igY06lmImqftHrWVnVs2/O+nvOZRKRYgSqOP//00bJScwNJWreQAs8AQg1bu3voBMnBjh5Ly6KDFxBgfU9tAandX81t8Hq61NxkRvPV2Nh+PqI+QsfBZ2CKt2DExk2G1wZBlqiNZoP+PnIsXGlzBT9dKe30982q8IgeC5etNKfzLIht2xGsmpYuwoMUvX41nme3//4FoAGM6fLK8ugcmb0nc/GctHcTTrBnuX2fym17GaaDx9QnCAIlE2Ykbjg/L6vsQngN87LrB/BJquYu+p16Ih69Ef2XDJYQFkdYQ8EZQPErDBF9wTNtz+g6VsRD8wFA+wvyR8Kj0nXVb5jc6opSruleB1dI0UoKe5eXCMYv7DwiG8TthUlCFXZk9Jwj5cyxaVfRUxnGwaS+nODDt460aJijKr84B45UnJg9uKy9L9uMNfalJYEXDdbMd4CMy23c2B7KHWVxYFo5bhJCr9DoRi6FI/14EOmkt2ma5ufkN+c+u3XnHbjCaZ/3OSWoQLjpdeA+6JA3wd/Q8OehNpVRB2WmHe8Uz8u2AznJ6+WO7FvzzMGwT/LisHFkjq/LwcqPaJjZednYZ15tBPDzcrIbVtn1Uj6JNBc/DsPy7RCzM/2ICM/PFJPJlRUHbJghyHkvAoZEkEI13QNSMpGIzNv/66tFtvOyoPlHJCjlbJ/euXj04xziIkXOGNkiGKPW1nXsMelbkKDGPsaAOtO1tf83AGJPJcEDbgyuxOTO046tr4y+xYUG9Ir6/whkUeK7Y4YrdyrUvmF7RhwfCQOgptZMV0vZ0cQTHOQj3wpue6xFFrm2lCiXT4V+KD06dpyNIqzO2ia/NfQ5jDzpj7mH3uQ4FWYOhDq4TCvCjATS/474H/dwQt8X0qgpCWawik8CguJeglixSZik8v42ZMrds4uf3JAWMLSNEBiy9ZeiiApJT6arPRonCuGMuq7x5hpVmT1y6Nr4zrPvbQFj5dYe0WQGAOsqoljpDd0XIXzfVwgmkVNIjjDy9CABB/1QmrahoDMhXInZhMoRIsPu7ziBDrfFs5mI46dQ17wcbBtdfexOWf4b5v2LWOg/UeoGf4eQKUU7pzJuUfyFBquxB/XwrT5fklOMvWN9nAi29dxnGpOr/YlktvAP5LMor/ehUAOKa2L/+CPSuMOwOUX08d8LcR5WGTDiEiFL14f0jaxTZF5iQO9BfV8U7VTUAcDbnSIk2pA3rd8lfkPkiDIVddUCkCWui0+NtSLifTQJ/OE5p5lTB96BB/LtoDO1HKC0meCLjKDaKn1RmaT3dYzioI5kR+Pg7ixaB87DB1BWc+nR2d4mbAxhLyrFm1ni1PjKBKoJDjvc3maQ1dKkYwyGWLAX78Mmx05RXJBxU/u79V+ObiIl0kr7YFD9eaSiGRiz69Q+ItS874AmBnb2gZ5R6Cynh4zZsj9Z3Rph8P3CIbtRebixsqYC0yt/i3W3U65ui9+MQEBoqlsZRd6ptkfDdfL2jfy0I6MTkTLSXp9/XipqpWaUSqh4685TqlJJfTuHLoqz6smiy5QiI21qQLq2/ypmXYmPoI9yM6Jg9AFR11brz/3g5aacgXgPrkRUbWtmEgaIqhYtSqU6zCf5DWCyIaF3/BYAdDIv/DGKLi0/oKXuyHw8v4G+xEdyBY3jUD/eV1RjQfnZAwoDNz+lpBT/eubed5Q0L1sDlaRzfX9rtzds3pepUXyVONQnqmsPFZRE9ltl73xJ2O881J+W2lyZf07ZRG8vDozAEOQwXF7fPLdoKXbxnXdLjmFnFHIV0jac7Nv9Gyb7v+ERYOiYAMZdmM59KyIm2sckTcPRrCU5xBey6kF8O7y3EMXapi9+YLKrA8efGUvz4ORXc+vq8xJ95buGMtdHfiCxhi5tgJFMZmjr0+RV1aReqD0sin1nrv4zR9FwZkCkcYkj2oy8Anry8gH6XKTfOn9xNnnWFHcYBFkjqf5mwLKuMxgm81MVcwgaVJxLIBMlYwCbXYVWN7uiBwEqfS0+2aSLPMB1k8807RSd47OlD18kiSNLowPLUay4lOK6yFvDpZWA0KR5gsfbvc9YZo93cnjh1gVMTjra6oEJcJNOX+Oz83eEE1UrXr1Ew1PAEdAlMk7/XDJM7FKHiLmtJwy/qDnUKd6puRu6NMuz8pFCzKN2wy630CTkoLrzQEQXgeiJYfxsnVsz9nlaDk5xpst3iaVyu+pt8M1AyCgwNca6E0l0NJP2TZXeeX/4u73hrwSqN7km/D3X22a32TI+PdvVVHwu026mysEnP6gOgPUhxz0TD6uFqY8OCmOXHkO6mX/+WQpRMeuCRcKQMfJ+c6bal3bKokdGajeKLy/DITB4XhO1kmF2fcBESnvb0Al9t/9MbeR5LUiGsqI1SYcI3g80z3nhye7LxtTWIsjegbg4TuG32DFQHP1F4oDuPUBc3y/VERwwLex9u9E/jJrS7Q5Ur9G4pjxp7m35ExN5RHsp744/+fNRQbwFEfhVGwxLmNOW4e+g3OvMS/u04Of+5wBiwA9Y1NJOTdWN+mU1nerITMnvgUdapbEnr0Gip3/wh+M9C2ehnFiQGfMQO98mp4PLZYlZkoGB9bEhagKDubKFBuLvzYTztxcdDGFgv4B87sd3MOW5fiNNOQz7pSg/Di/2/gqFKwk21RCM18GxRd3Y1/VDY8qYzUuogShrv3lykrC/an/hU1S+J6BNz5tSMkcZFnPSM66yuuf+uTWeWEYNtzDfcqweNbNCNAAqNFvNz7RDKrGtwLjbkEacF40YbGCjbi/GMaGbNQ9AkLQ==;" vertex="1" parent="1">
          <mxGeometry x="-66.49000000000001" y="760" width="102.99" height="57.26" as="geometry" />
        </mxCell>
        <mxCell id="xMjrJX3AMS1QwowmWkhw-10" value="" style="shape=image;imageAspect=0;aspect=fixed;verticalLabelPosition=bottom;verticalAlign=top;image=data:image/png,iVBORw0KGgoAAAANSUhEUgAAA7wAAAJiCAYAAADkAM7cAAAACXBIWXMAAAsTAAALEwEAmpwYAAAgAElEQVR4nOzdd5xU5aH/8c8WusAAIgiCFIktcXQcM+pojDqK6eXmGnOT6zW9GXtMdFAsO8YayzWmmnrT773R/JIbV8cWXePqujp2g3QRUJERpLO7vz/OGpHQZjizZ3b283698g/M85xvsgH2u+cpdV1dXUiSJEmSVGvqow4gSZIkSVIlWHglSZIkSTXJwitJkiRJqkkWXkmSJElSTbLwSpIkSZJqkoVXkiRJklSTLLySJEmSpJpk4ZUkSZIk1SQLryRJkiSpJll4JUmSJEk1ycIrSZIkSapJFl5JkiRJUk2y8EqSJEmSapKFV5IkSZJUkyy8kiRJkqSaZOGVJEmSJNUkC68kSZIkqSZZeCVJkiRJNcnCK0mSJEmqSRZeSZIkSVJNsvBKkiRJkmqShVeSJEmSVJMsvJIkSZKkmmThlSRJkiTVJAuvJEmSJKkmWXglSZIkSTXJwitJkiRJqkkWXkmSJElSTbLwSpIkSZJqkoVXkiRJklSTLLySJEmSpJpk4ZUkSZIk1SQLryRJkiSpJll4JUmSJEk1ycIrSZIkSapJFl5JkiRJUk2y8EqSJEmSalJjWBPV1dWFNZUkqZfJ5mMZ4GzgUCAGLAL+DFyZyxRnR5lNkiRVp66uroo/oy6sh1h4JanvyeZjewHXAB/cykc2ANcCuVymuKLHgkmSpKpn4ZUkVaVsPjYMyAJnAv12YMhLwHnAT3OZYmcls0mSpN7BwitJqirZfKweOAX4FrBbGVO0A6fnMsX7w8wlSZJ6HwuvJKlqZPOxI4DrgUQI0/0G+EYuU1wQwlySJKkXsvBKkiKXzccmAlcAJ4U89RrgSuCKXKa4JuS5JUlSlbPwSpIik83HBgPndv9nUAUftbD7Gb/NZYqV/5dPkiRVBQuvJKnHZfOxOoK3uVcAE3rw0S3AablMsb0HnylJkiJi4ZUk9ahsPnYwwT7ddKlj6+oaSIz9FO8Y/VHuWXAl84ot5UToAn4CnJ/LFJeWM4EkSeodLLySpB6RzcfGEJy8fApQ8l/ok2JpTpiSY7ch+/7j155d9n/cPmcmxbVlnUu1EmgCrstliuvLmUCSJFU3C68kqaKy+Vh/4AxgBjC01PGxgRM5fsrF7DPqvVv8/Y2d63hw0fe4f+H1rO9YVU7E2cBZuUzxj+UMliRJ1cvCK0mqmGw+9kHg28DUUsf2bxjCERNO57DxX6ahvv92P79y/RLumncZhaW/LSMpAHcAZ+YyxafKnUCSJFUXC68kKXTZfGx/4FrguNJH1xEfcyLHTsqyS/8xJY9etPJRmmdneWHlI6U/GjqA7wIzc5niq+VMIEmSqoeFV5IUmmw+NhK4GPgy0FDq+D2GJZk+pYnxQw/aySRdPPHS/5Kfewkr1y8pZ4LlwAXA93OZ4sadDCNJkiJi4ZUk7bRsPtYIfBG4FBhR6vih/ceSmXwh79jto5RxntVWbehYzf0v3MDfXriJjZ3rypniKYJlzneEFkqSJPUYC68kaadk87HjCJYv71/q2Mb6ARy2x1c4Yo/T6NcwOPxw3YprF5KfewlPv1L2uVS3AmfnMsXZIcaSJEkVZuGVJJUlm4/tBVwNfKic8fvt+kEyky8kNnBCuMG2Yf5rf+O22VmWrirrXKr1wHVAUy5TXBluMkmSVAkWXklSSbL52DAgS3DV0PaPT97MmCH7c8LUHHsOPyz0bDuii04eXfJL7pr3LVZvWFbOFEuB84Cf5TLFznDTSZKkMFl4JUk7JJuP1QOnAJcBJR+fPLjfKI6ZdB4Hjf0kddSHHa9k6zau4N4F1/DQizfT2bWhnCkeAU7LZYoPhBxNkiSFxMIrSdqubD6WBq4HDi51bH1dP9457rMcNfFsBjQOCz/cTlq2Zja3z7mQWa/my53iN8DXc5niCyHGkiRJIbDwSpK2KpuPTQCuBE4qZ/y0kRmOn3IJowZNDTdYBTy//E5unzOTV1bPKmf4GuAK4Mpcprgm3GSSJKlcFl5J0j/J5mODgHOBbwCDSh2/6+BpHD/lEvYacUzo2Sqps2sDD7/4E+5dcDVrN75WzhQLga8Dv8tlipX/F1aSJG2ThVeS9A/ZfKwOOBG4Cij5+OSBjcM5auI5HDLuM9TXNYaer6es3rCMu+dfQfviX9BFWedS3Q+cnssU20OOJkmSSmDhlSQBkM3HEgT7dI8odWxdXQOJsZ/i6D2/yeB+I8MPF5Glq56meXaWea+VdS5VF/BjIJvLFJeGm0ySJO0IC68k9XHZfGwMkAM+A5T8F+2kWJrpU5oYM2S/0LNVi2de+TN3zJ1Jce3CcoavBC4Frs9liuvDTSZJkrbFwitJfVQ2H+sPnA5cAAwtdXxs4ASOm3wx++76vtCzVaONnet4cNH3uG/hdWzoWF3OFM8DZ+Uyxf8XcjRJkrQVFl5J6oOy+dgHgWuAvUod269hMEdOOINDx3+JxvoB4YercivXL+HOuTkef+l35U5xO3BmLlN8OsRYkiRpCyy8ktSHZPOxPYEfAMeXM/6A3U7k2MlZhvYfG26wXmjRyke5bfb5LFpZ1rlUHcC1BPt7XeYsSVKFWHglqY/I5mN7E5wevGupY8cPTXDC1MsYP/Sg8IP1al088dL/kJ97KSvXLylngruA91h6JUmqDAuvJPUB3dcNtQKHlDJuaP+xZCZfwDt2+xfKOM+qz9jQsZr7F17P3xZ9l42d60od/q1cpnh+JXJJktTXWXglqQ/I5mOHATt8t05j/QAOG/9ljphwOv0aBlcwWW0prl1Afu4lPP1KSedSvQ6M8i2vJEnh64nC21jxJ0iStmeH79bdb9cPkJk8k9jACZXMU5NiAyfysX1/xLzXHqB59gyWrnpqR4btAhwAtFU2nSRJqgQLryRFb9z2PjBmyP6cMLWJPYcf3hN5atqk4YfzhYPuoH3JL7l7/uWs3rBse0O2+/WRJEnVqT7qAJKkbW/APWrPr/OFRN6yG6K6ugYO3v1kTk3+jWkjM9v7uP9WSpLUS/mPuCRVuT2HH06df11XxMDG4Yzb5cCoY0iSpArxOyhJkiRJUk2y8EqSJEmSapKFV5IkSZJUkyy8kiRJkqSaZOGVJEmSJNUkC68kSZIkqSZZeCVJkiRJNcnCK0mSJEmqSRZeSZIkSVJNsvBKkiRJkmqShVeSJEmSVJMsvJIkSZKkmmThlSRJkiTVJAuvJEmSJKkmWXglSZIkSTXJwitJkiRJqkkWXkmSJElSTbLwSpIkSZJqkoVXkiRJklSTLLySJEmSpJpk4ZUkSZIk1SQLryRJkiSpJll4JUmSJEk1ycIrSZIkSapJFl5JkiRJUk2y8EqSJEmSapKFV5IkSZJUkyy8kiRJkqSaZOGVJEmSJNUkC68kSZIkqSZZeCVJkiRJNcnCK0mSJEmqSRZeSZIkSVJNsvBKkiRJkmqShVeSJEmSVJMsvJIkSZKkmmThlSRJkiTVJAuvJEmSJKkmWXglSZIkSTXJwitJkiRJqkkWXkmSJElSTbLwSpIkSZJqUmPUAapRNh/bGzgS2A14EbgzlykujDaVJEmSJKkUFt5NZPOxvYArgY9s9lsd2XzsF0A2lym+2PPJJEmSJEmlsvAC2XxsGJAFzgT6beEjDcApwMey+dhlwLW5THFtzyWUJEmSJJWqT+/hzeZj9dl87DPALOBctlx2N7ULcBnwdDYf+2il80mSJEmSytdnC282HzsCeBi4mWCvbikmA/+TzcfuyuZjB4QeTpIkSZK00/rckuZsPjYRuAI4KYTpjgbas/nYD4ELcpniKyHMKUmSJEkKQZ8pvNl8bDDBsuVzgUEhTt0AfAk4KZuPXQR8J5cpbgxxfkmSJElSGWp+SXM2H6vL5mOfAJ4FZhJu2d1UDLgOeCKbj02v0DMk9UEvrHgY6Io6Rk1a37GKJauejDqGJEmqkJouvNl87GDgPuBXwIRSxtbVNTBh2DvLeew+wG3ZfOxP2XzsbeVMIEmbumveZdz82Ht4YeUjUUepIV08/tLvuLHtMJ5bdtv2PtzRE4kkSVL4anJJczYfG0NwmvKngbpSx0+KpTlhSo7dhuzLwhUPcdvsGSx+vVDqNO8Djs/mYzcAl+YyxddKnUBSn/Hy9j6waOWj/Pix93LAbv/KsZOzDO2/e0/kqkkvrHyE5tlZFq18dIeHVDKPJEmqnLqurnCWydXVldwrQ5fNx/oDZwAzgKGljo8NnMjxUy5mn1Hvfcuvd9FJYelvuHNujlUbyjqX6mWCe35vzmWKneVMIKl2ZfOxo4G7dvTz/RoGc8SE0zls/JdprB9QwWS1ZeX6xeTnNvHES/9dyrAVwOhcpri+QrEkSeqzwuqi21IzhTebj30Q+DYwtdSx/RuG/OObx4b6/lv93LqOldy34DoeXPR9Ors2lBPzMeD0XKb413IGS6pN2XysHmgDDiplXGzgBDKTZ7Lfrh+oTLAasbFzLX9b9D3uX3AdGzrXlDr8ylym+I1K5JIkqa+z8O6AbD62P3AtcFw54+NjPs6xk7Ls0n/MDo95dc1c7pg7k+eWNZfzSIDfAd/IZYrzyp1AUm3J5mPTgBZgdKlj9xx+OCdMbWLMkP3DD9bLPf3KH8nPvYTi2oXlDH8IeHcuUyy5JUuSpO2z8G5DNh8bCVwMfJngaqCS7DH0YKZPzTF+aEkvVN5izvJ7aZ4zg5dX/72c4WuBq4ArcpniqrJDSKoZ3feE/xw4qtSxddRz0NhPcsyk8xjcb1T44XqZJauepHn2Bcx/7YFyhncBPwDO9u9nSZIqx8K7Bdl8rBH4InApMKLU8UP7jyUz+ULesdtHKeM8q3/S2bWRRxb/jLvnX8najcVyplgEfAP4VS5T9N4RSWTzsY8DVwB7ljp2QOMwjpp4Du8c9xnq6/qFH67KrdrwCnfPu5xHl/ySLso6MuE+4LRcpvhYyNEkSdJmLLybyeZjxxEsXy553V5j/QAO2+MrHLHHafRrGBx6tjUbi9wz/wraFv+Mrq6ybrD4G3BGLlN8KORoknqhbD42CPg6wQ/ESv5La9SgqUyfeil7jTg29GzVqLNrAw+9+GPuXXA16zauKGeK+cC5uUzxdyFHkyRJW2Hh7ZbNx/YCrgY+VM74/Xb9IJnJFxIbWNJVvGV5efVzNM+ewZzyzqXqIljOeF4uU1wcbjJJvVE2H9uD4G3vv5Uzfq8RxzB96qWMGrRXuMGqyPPL76R59gUsWzO7nOGrgcuBq92rK0lSz+rzhTebjw0juM7nDGDrxydvxZgh+3PC1Bx7Dj8s9Gzb89yy27h9zkyWr51XzvDXgRxwbS5TXBdqMEm9UjYfOxy4Djik1LH1dY0cMu4zHDXxHAY2Dg8/XESWrXme5tkX8PzyHb7RaXO/IniruyjEWJIkaQf12cLbfUXHKcBlwI4fn9xtcL9RHDPpPA4a+0nqqA8tV6k6ujbw4KLvcd+C61jf8Xo5U8wFzsplireEHE1SL9T9d+PJwLeAsaWOH9xvJEfveR6JsZ+krq7ks/6qxtqNr3Hvgqt5+MUf09m1sZwpHia4Iu5vIUeTJEkl6JOFN5uPpYHrgYNLHVtf1493jvssR008mwGNw0LJE4ZV61/mznk5Hlv6G4JVyyW7i2B/7xPhJpPUG2XzsaHA+cBZlLX6ZT+mT80xafjhoWerpK6uDtqX/JK753+L1RteLWeKJcB5wM88JFCSpOj1qcLbvU/tKuCkcsZPG5nh+CmXMGrQ1J3KUUmLXy9w2+wZLFxR1rlUHQTXZFyQyxSXhZtMUm+UzcemANcAHy5n/L67vp/jJs8kNnBiuMEqYN5rD9A8O8vSVU+XM3w98G3gslymuDLcZJIkqVx9ovB2n0R6LsFJpINKHb/r4GkcP+US9hpxTFnP73ldPPnyLeTnXsKKdS+WM0ERmAnclMsUy1rLJ6m2ZPOxYwhWxry91LGN9QM4dPyXOHLCGRU5wX5nFdcu4I65F/PMK38qd4pbCO7TnRNiLEmSFIKaLrzZfKwOOJHgrW7JxycPbBzOURPP4ZBxn6G+rrHU4ZHb0LmGBxbeSMsL/8nGzrLOpXoGODOXKTaHHE1SL9R9R/nngSZgZKnjh/Yfy7GTZ3DAbh8jjDvKd9b6jlXcv/B6/rbou3R0ri9niicJ9umWfaKVJEmqrJotvNl8LEHwNuKI0p/TQGLspzh6z28yuF/J39NVndfWLSI/92KeevnWcqf4E8Hbi7+HGEtSL5X56N7HjT1gdfPEw1fW1ZVxZt/4oQlOmJpj/NBE+OF2SBePv/R77pybY+X6JeVM8CowA/ihq2AkSapuNVd4s/nYGILrdj5DGa8QJg0/nOlTc4wZsl/pAavcghWt3DY7y5LXyzqXagPBDxCacpnia+Emk9RbJOLxgcBjwN67jNnAvh9azq57l3e17AG7/SvHTp7B0P4lHwZdthdWPkLz7BksWtlezvAO4DvARblMcXm4ySRJUiXUTOHN5mP9gdOBC4Chpc4dGziB4yZfzL67vq/8gL1AF508tuQ33DUvx6oNr5QzxUsEbzZuzmWKneGmk1TtEvH4VcA5m/7abvuvYZ8PvsqQXUt/2dmvYTBHTjiDQ8d/icb6AWHF/Ccr1y/hzrlNPP7S78ud4naCk+yfCTGWJEmqsJoovNl87IMEp4juVeqcPfXNVrVZ17GS+xZcy4OLfkBn14ZypniU4Ju/v4YcTVKVSsTjhwIt8M+Xj9c3dLHnu1ayV+Y1GgeW/rOw4IeOF7Hvru8PIembNnauC+4qX3gdGzpWlzPFLIK7yss+0UqSJEWnVxfebD62P8E1EMeXM98Bu53IsZOzPbqcrtq8umYut8+5kL+/enu5U/wOODeXKc4PMZakKrPpUuZtfW7A0A6mvafIhHe+Xta5VHsOP5wTQtpW8swrf+KOuRdRXLuwnOErgEuBG3KZYlknWkmSpOj1ysKbzcdGAhcBXwEaSp0nODDlMsYPPSiUXLVg9vJ7uH3OBby8uqxzqdYCVwKX5zLF8jbzSapqiXj8WuCMHf38sD3Ws9+HXmXElNJPiK+jnsTubxwcOKrk8UtXPc1ts7PMf+2BkscCXcDNQDaXKb5UzgSSJKl69LrCm83HDiG483BcqeOH9h9LZvIFvGO3f6EarsSoNp1dG2lb/FPumX8VazcWy5niCeC9uUzxhZCjSYpQIh4/EriXUv/irIPd46vY+/1FBo0ofX/vgMZhvHvi1zlk3Kepr+u33c+v3rCMu+dfTvvi/6KLso4YuI/gmqFHyxksSZKqT68qvDPuHLEbwb2Ho0sZ11g/gMPGf5kjJpxOv4bBoWSpZWs2Frl73uU8suTndHV1lDr8aeDgXKa4tgLRJPWwRDw+GChQxhkJb2jo18Xko1cw5ZjXaOhX+r8HowbtxfSpl7DXiGO3+PudXRt4+MWfcM+Cq1i3cUU5ERcA5wK/y2WKlf9XUZIk9ZjeVnivIPimZIftt+sHyEyeSWzghFAy9CUvrXqW5jkzmFu8r9Sh5+QyxWsqkUlSz0rE49cRnIC/0wYO72CfDyxn94NWlTV+rxHHMn3qJYwa9Gb3fn75nTTPvpBla54vZ8o1wOXAVW7HkCSpNvW2wjuLHXzLMGbI/pwwtYk9hx8eyrP7smeX/YU75sxk+dodPpfqnlymeHQlM0mqvLKXMm/b/dOvWHBefWPXtUCy1MH1df1457jP8PbRH+We+Vfy/PI7y83xa4ID99yCIUlSDetthXcj2zmkanC/URy95zdJ7P4p6v755gyVqaNzPQ+++H3uW3At6zu2+3ZmSS5T3L0nckmqjDCWMm/BGiDeXijMyuZj9cDJBG9Yx4T4jO1pI9inW9aJVpIkqXfpicIbZuvcatmtr+vHoeO/yNeSD3Lw7idbdkPWUN+f9B5f49Tkg8THnMR2XvgM6qFYkirnMsItuwDntxcKswBymWJnLlP8KTANuAKo9NU/S4FPAynLriRJClOYb3i3OtGeww/nPw74QyjP0fZd/9DBvLZuqysBX8tlirGezCMpPIl4/GjgrpCnvR84qr1Q2OLxydl8bArBveofCvm564FrgVwuU1wZ8tySJKnK9cQb3saKP0GSFIpEPL4L8OOQp10DfGZrZRcglynOAT6czccyBAX17SE891bgrO65JUmSKsK1xZLUe1wBTAp5zn8sZd6eXKaYBw4CTgVeLfN5TwKZXKb4YcuuJEmqNAuvJPUC3UuZvxLytPcDN5QyIJcpbsxlit8h2N/7n8COXgj+KvBV4KBcplj28c2SJEmlcEmzJFW5Ci1lXgWcvK2lzNuSyxRfBU7L5mPfJ9jfe/xWPtoB3ATMzGWKy8tKKkmSVCYLryRVv0osZf5Ge6Ewd2cnyWWKTwHTs/nY+4AzgHcB/YHlwJ8JDqR6dmefI0mSVA4LryRVsUQ8fgzhL2W+h+Cta2hymeKfCQou2XxscC5TXB3m/JIkSeVwD68kValEPD4M+GnI064iOJW5YvcAWHYlSVK1sPBKUvW6BpgQ8pyhLGWWJEnqDSy8klSFEvH48cDnQp72HkJeyixJklTNLLySVGW6lzL/KORpK76UWZIkqdpYeCWp+lRiKfOZLmWWJEl9jYVXkqpIhZYy30H4b4wlSZKqnoVXkqpEIh4fTvjFdCXwOZcyS5KkvsjCK0nV43rCX8p8dnuhsCDkOSVJknoFC68kVYFEPP4+4D9CntalzJIkqU+z8EpSxBLxeAz4QcjTupRZkiT1eRZeSYredcC4kOc8y6XMkiSpr7PwSlKEKrSU+f/aCwWXMkuSpD7PwitJEanQUubXgC+EPKckSVKvZOGVpOjcQPhLmc9oLxQWhTynJElSr2ThlaQIJOLxDwP/HvK0/9deKPw05DklSZJ6LQuvJPWwRDw+CvheyNO6lFmSJGkzFl5J6nk3AGNCntOlzJIkSZux8EpSD+peyvxvIU/7J5cyS5Ik/TMLryT1kAotZX4V+HzIc0qSJNUEC68k9ZxKLGU+rb1QWBLynJIkSTXBwitJPSARj/8L4S9lvrW9UPhlyHNKkiTVDAuvJFVYIh4fTWWWMn8p5DklSZJqioVXkirvJmDXkOd0KbMkSdJ2WHglqYIS8fi/Ah8LeVqXMkuS/iGdStZFnUGqVhZeSaqQ7qXMN4U87Su4lFmSBKRTyTPTqeQqYEM6lfxVOpWcHHUmqdpYeCWpciqxlPkrLmWWJKVTyb2BbwODgQbgE8Cz6VTy6nQqGYs0nFRFLLySVAEVWsr83+2Fwu9DnlOS1Dvtu4Vf6w+cDTyfTiW/lk4l+/VwJqnqWHglKWSJeHwslVnK/JWQ55Qk1aZRBHe/P5VOJT8cdRgpShZeSQrf96jMUuaXQ55TklTbpgF/SKeS96ZTyWTUYaQoWHglKUSJePyTwIdCntalzJKknfEu4OF0Kvlf6VRyQtRhpJ5k4ZWkkHQvZb4h5GldyixJCssngb+nU8nL0qnksKjDSD3BwitJ4fkeMDLkOb/oUmZJUogGAucBs9Kp5JfSqWRj1IGkSrLwSlIIKrSU+VfthcL/hjynJEkAuwHfBR5Pp5LvizqMVCkWXknaSRVayrwUOC3kOSVJ2ty+wJ/SqWQ+nUrGow4jhc3CK0k770eEv5T5S+2FwrKQ55QkaWuOBR5Np5I/SaeS46IOI4XFwitJOyERj58ChL0U7FfthcItIc8pSdL21AGnEOzvvTidSu4ScR5pp1l4JalMiXh8PHBdyNO6lFmSFLXBwIUExfez6VTSzqBey//zSlL5fgAMD3lOlzJLkqrFWIJtO4+lU8lDog4jlcPCK0ll6F7K/N6Qp/25S5klSVXoHcC96VTynVEHkUpl4ZWkElVoKfOLwOkhzylJUlgGATdGHUIqlYW3j+lYXzckEY8fFHUOqZerxFLmL7QXCsWQ55QkKUyHpFPJqVGHkErRGHUA9ayuzrpGoD0Rj/8WuKC9UJgVdSbVrmw+Nohg2e/7gYMI9gIBLAbmAncD/5PLFF+MJmHpEvH45wl/KfPP2guFP4c8pyRJlbAXMDvqENKOsvD2XR8HPpaIx38CXNJeKCyMOpBqRzYf6w98FTiXN0vupsYABwIfAb6dzcd+CczIZYov9FzK0iXi8YnANSFP+yJwRshzSpJUKYOiDiCVwiXNfVsD8Dng74l4/NuJeHzXqAOp98vmYx8Enga+zZbL7uYagf8A/p7Nx2Z2vxWuOol4vI7gpMqhIU/tUmZJkqQKsfAKYCBwJjAnEY9flIjHvWRcJcvmY/tn87HbgVuBcvb3DAIuAp7L5mMfz+ZjdWHmC8HngONCntOlzJIkSRXUI4V37cbX6Oja0BOP6vPWd6xiY+facocPBWYC8xLx+JmJeLwq37SpumTzsZHZfOw/gQLhFMIJwG+Av2bzsUQI8+20Ci1lXoinMkuSJFVUjxTepaue4ruPHMlzy5p74nF9VBePv/Q7bmw7jFUbXtnZyUYRLEd9LhGPfzYRj7vXW/8km481ZvOxrwLPA6cSLJEP0xFAWzYf+1E2HxsT8tw7rIJLmT/XXii8FvKckiRJ2kSYhXfjtn7z1TVz+e3TJ/PLJz/Oy6ufC/GxemHlI9z82Hu45bmv8fr6pdv87LrXS/qSTyD4Rv+pRDx+Yvc3/hLZfOw44DGC+/hGVPBRdcBngVnZfOzr3Ydh9bRKLGX+UXuhcHvIc0qSJGkzYRbe9h350Ozl9/C99qO5bXaWNRs9p2VnrFy/mD8891V+/Nh7WbTy0R0as2LhgHIe9TbgtwTXGZ1QzgSqDdl8bK9sPnYLcDuwfw8+eihwJfBU96FYPSIRj08Grg152oXA2SHPKUmSpC0Is/DevKMf7Orq4KEXf8SND6d4+MUf09m1zZfD2szGzrXct/A6bnz4MJ546b9LGruobcjOPPpA4C+JePzeRDx++M5MpN4lm48Ny+ZjVwBPAR+KMMpewK3ZfKw5m49VtHB3r2j4MbBTf2i24HPthRxWJpcAACAASURBVMKKkOeUJEnSFoRZeH8E/KWUAWs2FvnL7PP4waPHMqf41xCj1K6nX/kjNz1yBHfP+xYbOteUNHbxo0N4+dlQzqF6F9CSiMf/XyIej4cxoapTNh+rz+Zjnwb+TnCnbhRLirfkeKCQzcduyOZjIyv0jK8A7w55TpcyS5Ik9aDQCm8uU+wE/oXgjUhJXlr1LP/1xL/y26f/g+Vr54cVqaYsWfUkP3v8I/z3M5+nuHZhaYO7YN5fh1H49aiwY70feDQRj/8qEY/vFfbkilY2HzsceIjgz3Rkh0ZtQwPwNYL9vV/N5mOhHa7WvZT5irDm6+ZSZkmSpB5W19XVFc5EdW+eZ5TNx44CrgdKfvvXUNePQ8d/iSMnnkH/Bq+DXbXhFe6edzmPLvklXXSWPH75nAE8fctIViyq+Iu5DoK3/Be3FwqLK/0wVU42H9sDuAo4KeosJXoSOCOXKd65M5N0L2W+i/Df7h7TXijcHfKckqQ+Kp1Kfhj4QwSP/khLa9stETxXNSisLrotFSm8ECyFBD4PXAqMLnW+If1Hk5k0gwPGnEhdz9yeVFU6uzbw0Is3c++Ca1i3sfTtfmuWN/Lcn0aw+LHBFUi3TWuB/wSuaC8UlvX0w1W+bD42iGDZ8jeA3nwH863AWblMcU45gxPx+FcJTp8O003thcJXQ55TktSHWXhVC3p14X1DNh8bDswkuKezX6nzjtvlQKZPbWLCsEN2LmAvMuvVPLfPuZBla2aXPLZjfR1z7hrO3HuG0bEh0luEXgOuAa5tLxRejzKIti2bj9UBJxK81Z0QcZywrCc4XTmXyxRX7uigRDw+BXiccA+qmge8wz8HkqQwWXhVC2qi8L4hm4/tTfAN6HvKmf/toz9CZvKFDBswrpzhvcKyNc/TPPsCnl9+V1njVy9rvPuh740ZtebVxgNCjrYzXgZywHfbC4X1UYfRW2XzsQTB9oMjos5SIUuBbwI/7z5nYKsS8Xg9cC/h/2/hUmZJUugsvKoFPVF4e2ytcC5TfC6XKb4XeC/wXKnjn3z5D9zYdhh/XXANGzvXhh8wQms3vkbznAv47iNHlVt2HwYOv/bjrxyz5tXGA4GPAc+EGrJ8o4HrgOcT8fgpiXg8tIOFVL5sPjYmm4/9CGijdssuBIdt/QRo7T6Ea1tOI/z/LW6y7EqSJEWnx97wbiqbj/UDvgpcBAwv9VnDB4wnM3km+4/+IBDpst2d0tXVQfuSX3L3/G+xesOr5UyxGDgf+FkuU3zLF7K7WH4KuITqWqb6DHAB8L/thULlf6Sjt8jmY/2B0wm+BkMjjhOFXwPn5jLFFzb9xUQ8Pg0oEO7e5Xm4lFmSVCG+4VUtqKklzVuSzcdGExxq9XnKeNs8cfihTJ9yKbvvUk0reHfMvNceoHl2lqWrni5n+DqC5eGXbW9/YiIe709wn+j5lHF4WAU9ApzXXijcEXWQviKbj32QYF91X79Cag1wOXBVLlNcU6GlzF3Asb7dlSRVioVXtaDmC+8bsvnYAcANwFFlPJmDxv4bx+x5HkP6V1Of27Li2gXcMfdinnnlT+VOcQtwdqkn0Cbi8V2AMwnuAS35rXoF3UNQfB+MOkityuZj+wPfBo6POkuVWQCce9s5e47r6uLbIc99fXuhcEbIc0qS9A8WXtWCPlN435DNx/4FuBqYVOrYAQ1DOXLimaTGf4GGupIPg6649R2ruH/h9fxt0Xfp6Czr7KYngdNzmWJ5J1p1S8TjowiunfkaMHBn5grZrcCM9kLhyaiD1IpsPjYCuJjgDX9DxHGq1vK5AzqfvmVk/YoXQrur+nkg3l4orA5rQkmSNmfhVS3oc4UXIJuPDQTOIliCW/LVICMHTeH4KRfztpHV8jKri8df+j13zs2xcv2SciZ4FZgB/DCXKW4MK1UiHh8HXAh8juopQ13AL4GZ7YVCWXeoCrL5WCPwBYLtAiMjjvMW/Rt2YWj/sSxb83zUUd6qCxY+tAuz/hJj3cqd+uPQBRzVXijcF1IySZK2yMKrWtAnC+8bsvnYOIJ9dv9ezvipI97N8VMuZfTgt4WaqxQvrHyE5tkzWLSyvZzhHcB3gItymeLycJO9KRGP70VwsNVJVM8JYBuAHwJN7YXC4qjD9CbZfOxYglOx3x51lreq46Cxn+CYPc9nUL8RPLL459w9/wrWbixGHewtNq6t5/n8cOb/dSidHWX9cXApsySpR1h4VQv6dOF9QzYfSxHcE5oqdWxdXQOH7P4Z3r3nOQxsjIUfbitWrl/MnXNzPP7S78ud4nbgjFym2GNXCyXi8TjBfbnv66ln7oA1BHu7L28vFKqrGVWZbD42hWCf7oeizrK5icNSTJ/a9E+Hy63ZWOSe+VfStvindHV1RJRuy1a90sizt47kpadLOrTZpcySpB5j4VUtsPB2y+ZjdQRX7FwOjCt1/KDGGEdPOo/E2E9RX1e5a2A3dq7jb4u+y/0Lr2dDR1nf884CzsplimWfaLWzEvF4GrgMeFdUGbbgNeBKgrdnq6IOU02y+dhQIEtwIFlom1DDMGzAOI6bfNF2rw97efVzNM+5gDnL7+25cDvolecG8cytI3h96XbPBXApsySpR1l4VQssvJvJ5mNDCPb2nkUZBy7tNmQfpk/JMTkW5u0jgadf+X/k515Mce3CcoavINhveUMuUyzrRKuwJeLxE4BvAQdGnWUTSwjeQv+gvVCoiv+dopLNx+qBkwl+CDQm4jhv0Vg/kPSEr5He41Qa63f8j+lzy5q5fc6FLF87r3LhytDVCQtahjKrOcaGNVu9Pe269kLhzJ7MJUnq2yy8qgUW3q3I5mOTCd74fayc8fuMeg/HTbmYEQP33OksS1c9zW2zs8x/7YFyhncBNwPZXKb40k6HCVkiHq8D/hVoAqZFHGdT84CLgF+0Fwqd0Ubpedl87HCCZf7JqLNsbv/RH+a4yTMZNqDkhRgAdHRtoHXR9/nrgmtZ3/F6yOl2zobV9fz9LzEWPjiUrrf+v+454MD2QmFtNMkkSX2RhVe1wMK7Hdl87N0E3/gfsJ2P/pOGun4cuseXOXLC6fRv2KXkZ6/esIy7519O++L/oouyOtd9BNcMPVrO4J6UiMcbgVMITnWeEG2at3iG4I3/re2FQuX/tEQsm4/tQfCDnk9EnWVzu+8S54SpTUwY9s5Q5lu1/mXunHcZjy39NcHPharHyiX9eOYPI1n2/ECATiDtPdKSpJ5m4VUtsPDugGw+1kBwtU4TsGup43fpvxvHTspywJgTqWOryxX/obNrAw+/+BPuWXAV6zauKD0wzAe+kcsUf1vO4Cgl4vFBwJcI9oyOijjOplqB89sLhZ26o7haZfOxQcDXgW8CJZ2iVGlD+o/m2EnnEx9z0g79+SnV4tcL3DZ7BgtXPBT63Dtr6ZODmXPXsB/e9cdnvxB1FklS32PhVS2w8JYgm4/FgJnAqUDJJ1ONG3og06c0MWHYIVv9zPPL76R59oXl3iG6hmC/5VW5THFNORNUi0Q8vgtwDnA2UPrr8cq5k6D4Vl87KkP3YW0nErzVnRhxnLdoqOtHavwXOXLiGQxoGFrhp3Xx5Mu3kJ97CSvWvVjhZ5VsPcHp2JflMsWVUYeRJPUdFl7VAgtvGbL52N4E95CeUM74t+/2UTKTLnjLHsRla56nefaFPL/8znJj/Ro4N5cpvlDuBNUoEY/vSrCk+MuUcYhYBd0CZNsLhaejDlKubD52EMFy/SOjzrK5vUedwHGTL2LkoMk9+twNnWt4YOGNtLxwIxs7q2677BLgPODnuUyxz+0rlyT1PAuvaoGFdydk87H3EBTft5U6tl/9INITvkZi7Kd44IXv8NCLN9PZtbGcGG0E+3TLOtGqt0jE4xMI9vd+GmiIOM4bOoFfADPbC4X5UYfZUdl8bDeCk6g/y7bu8onA6MF7M33KpUwZcVSkOV5bt4j83Et46uWq/Lf2YYI7tGv6z7wkKXoWXtUCC+9OyuZj/QiWOM8Ehpc+Qx1lHpizlGC/ZZ9625OIx6cR7KU+Meosm9gAfA+4rL1QWBJ1mK3J5mP9gdOAC4BhEcd5i4GNMY7e8xscvPvJFb3HulQLVrTSPHsGi19/POooW/Irgr36NbWqQ5JUPSy8qgUW3pBk87HRBEXsc1CBk3XetB64Fsj15f18iXj8IOAyylxWXiGrCJYIX9VeKBSjDrOpbD72foJ9oNV09RN1dQ0kdz+Fd+95LoMaY1HH2aIuOiks/Q13zs2xasMrUcfZ3GqCfftX9/Z9+5Kk6mPhVS2w8IYsm4/FCUpPJdZk3gqclcsU51Rg7l4pEY+/i6D4pqPOsonlwBXADe2FQqQlJJuP7Uuw7P74KHNsyZQRRzF9yqWMHrx31FF2yLqOldy34DoeXPR9Ors2RB1nc/MJ9vD/LuogkqTaYeFVLbDwVkg2H/sYcBUwKYTpniTYs1f2iVa1LhGPv49gX2o86iybWAJcAtzcXiis78kHZ/OxEcBFwFepnj3PAIwYOInjp1zC3qOmRx2lLK+umcsdc2fy3LLmqKNsyX3AablM8bGog0iSej8Lr2qBhbeCsvnYQIJrdc4DhpQxxasE+y1/kMsUyzrRqi9JxOP1wMeBS4GpEcfZ1GyCPd6/bi8UKrrfOpuPNQKfJ1heP7KSzypV/4ZdOHLiGRw6/ks01PWLOs5Om7P8XprnzODl1X+POsrmuoAfATNymeJLUYeRJPVeFl7VAgtvD8jmY+OBbwH/voNDOoCbgJm5THF5xYLVqEQ83khwAvGFwLjtfLwnPQHMaC8U/liJybP52DEEy+nfXon5y1fHgWNO4thJWYb0Hx11mFB1dm3kkcU/4+75V7J2Y1Vt2wZYQbDC4D9zmWKPrjCQJNUGC69qgYW3B2XzsUMJ9lOmtvGx24Ezc5lir73ftVok4vFBBEt6vwmMijjOph4EzmsvFO4JY7JsPjYFuAb4cBjzhWnCsHdywtQmdt+lmlaah2/NxiJ3z7ucR5b8nK6ujqjjbG4Wwd8pf446iCSpd7HwqhZYeHtYNh+rAz4JnMNb95s+BFyayxT/FEmwGpaIx2PAWd3/KWdpeaXcTlB828sZnM3HhgLnE/z36h9msJ01bMA4MpMv5O2jP0yVXfVbUS+tepbb51zAnOJfo46yJc0ExfeZqINIknoHC69qgYU3Qtl8bCSwK7C4L18x1FMS8fhoIAt8meoqiP8NXNBeKDy7Ix/u/qHJfxAskx9byWClaqwfSHqPUzl8wqn0qx8UdZzIPLvsL9wx5yKWr50XdZTNdQA3Ahe7XULlSqeSuwErWlrb1kadRVJlWXhVCyy86nMS8fhEghOMT6Z6TjDuAH4OXNReKCzY2oey+dhhBPt0D+mpYDtq/9EfJjP5QoYPGB91lKrQ0bmeB1/8PvctuI71Ha9HHWdzywgOxPuhB+JpR6RTyRhwLsFd86OBTuAB4LKW1ra/RJlNO6epeVo/4ESCbTGjCa45+/WM6bNuizSYqoKFtzqlU8l3EVzJ2R94FPi/ltY2/z3fCguv+qxEPL4vwYnO/xJ1lk2sB74LNLUXCq+88YvdB59dCfxbVMG2ZvddDmD61CYmDtvW1vS+6/X1L3HXvMt4bOlvCA5QripPEFx5dlfUQVSd0qlkA8HJ75cSrEjaktuAM1pa257rsWAKRVPztPcA3wb22cJv3wecPmP6rEd7NpXCkk4ljwe+AhxI8P1FC3B9S2vbDl9dZ+GtLulU8giC84AO3uy35gNfb2lt+33Pp6p+Fl71eYl4/GDgMuD4qLNsYhVwzYTU6ze9/cRlXyA4eGtwxJneYki/XTl2cpb4mJOooz7qOFXvxdcfo3n2DBaueDjqKFvyB+CcXKY4J+ogqh7pVPIYgm+s3rEDH98IfAe4uKW1zeXyVa6pedreBEX3vdv5aBdwM5CdMX2W15z1EulUcl+Cr+8JW/jtN76mM1pa25buwFwW3iqQTiUnELz4OGk7H70XOK2lte3xyqfqPSy8UrdEPP5ugn2xh0YcBYDdD1zNPh9Y3jkwtrGq2mR9XT8OHf9Fjpx4BgMahkYdp5fp4smXbyE/9xJWrHsx6jCbWwdcC+RymWLVrcFWz0mnklOAq4GPlDH8FYIr4X7o8rrq09Q8bTjBvfCnAqVciL6C4C3/DTOmz/KasyqVTiVHEHx9vwo0bufjKwm+pte3tLZt9Wtq4Y1WOpUcBHyDYEvJjh6O0gn8gOCHGssqla03sfBKm0nE4x8CmojoPtth49ez34dfZcSUdVE8fpv2HjWd4yZfzMhBk6OO0qtt6FzDAwtvpOWF/2RjZ9V9nRcD5wE/z2WKVbcGW5WTTiWHEhzsdyY7f7DfEwTLnF0uXwWamqfV8+bS9J25EH0WcNaM6bO8UaKKdG89+ALB3etb23qwNbOBs1pa2/64lbktvBFIp5J1wMcJ3upOKHOaIsEPQG7q6z+AtPBKW5CIx+sJ9steBEztiWc2DOhi7/ctZ8/DV1bdTT6jB7+N46dcytQR7446Sk15bd0i8nMv5qmXb406ypY8BHw2lyk+GXUQVVY6laznzZPfx4Q8/a0E30y7XD4iTc3TjiI47DDMC9FvB86YMX2W15xFLJ1KHk3w9d2RrQfbkif4IdVTm81v4e1h6VQyAdxAcChVGJ4m+NreEdJ8vY6FV9qGRDzeH/gswRK9il0BNHjURpKff4khozdU6hFlGdgY4917fp3k7qdQX7e91VEq14IVrdw2O8uS15+IOsrm1gGfzmWKv446iCpjGweghGl99zNyLa1tKyr4HG2iqXnaJOAq4GMVekQHcBMwc8b0We7b7mHpVHIycA3lbT3Ymg7g+8AFLa1tr3Y/5xyC/x/1tD5XeNOp5BiCM2U+TWVeffTZH0BaeKUdkIjHBwGnE+yjiIU596CRGzn01CUMHN4R5rQ7pa6ugYPHnszRk77JoMZQ/+tqK7ro5LElv+GueTlWbXhl+wN6TifwyVym+Juogyg86VRyInAF2z8AJUxLgfOBn7a0tnX24HP7lKbmaUMItiWcDQzsgUe+SnDN2Q9mTJ/Vp5dN9oR0KrkLb249GFChxywn+CHVBoI/s7tU6Dnb0mcKbzqV7A+cAcwAKn04ynqCA81yLa1tfea8DguvVIJEPB4Dvk5Qfofs7Hz1DV0c+rUlDJ9QPWeATIm9i+OnXMpuQ7Z0S4UqbV3HSv664Nu0LvohnV1V88Z/PZDKZYo7fJWFqlM6lRzMmweg9EQZ2pJ24PSW1rb7I3p+TWpqnlYHfJLgBxnjIojwJMEy5zsjeHbN697TeTLB1oPdI47TE/pE4U2nkh8kKKA9sn1uE4sJbgD5RUtrW82f12HhlcqQiMfHEvzU80uUdtLlW0w99jXe9t5iaLl2xoiBkzhuykXsM+o9UUcR8OqaOdw+ZyZ/f/X2qKO8oY2g9Ppmrhfq/mb5EwQHoIyPOM4bfkdwb+SCqIP0dk3N095JsOevGi5Ev5XgYKs+t2yyUtKp5KEEX99Dos7Sg2q68KZTyf0JbkY4LuIorQTXGD0UcY6KsvBKOyERj08iONjqZErcb9E4oJOjL1xE48Bo+0P/hl04cuIZHDruizTU7+zBrArb7OV3c/ucC3l59d+jjgLw/lym+OeoQ6g06VTynQTLEw+LOssWrCXYH3hFS2vbqqjD9DZNzdPGEbzxOznqLJtZT/c1ZzOmz1oZdZjeKp1Kjid4Y//JqLNEoCYLbzqVHAlcDHwZaIg4zqZ+BnyzpbVtSdRBKsHCK4UgEY/vB+SAD+/omPGHvM4BJ0V5PVodB445iWMmnc8u/XeLMIe2p7NrI22Lf8I9869m7cZIVwT8MZcpfijKANpx6VRyHMEBKP8RdZYdsIhgqfWv+sLyup3V1DxtIMEeziwhbK+poKUEyyZ/PmP6LFeH7KDuu1fPJtiLPTjiOFGpqcKbTiUbgS8SXA02IuI4W/M6wbWc127rbubeyMIrhSgRj7+T4Kftx2zvswed/DJj46srH2oLJgw7hOlTmxi3y4GRPF/lWbNhOXfPv4JHlvycrq5IDjlbA8RymWJN/UNYa9Kp5EDgLIJtF9VchrbkQYL9vTW9vG5nNDVP+yjB6byTIo5Sijbg9BnTZz0QdZBql04lTyTYerBn1FkiVjOFN51KHkew4mH/qLPsoG3ezdwbWXilCkjE48cSvFl559Y+c9T5ixg8qmcPtBw2YByZyRfy9tEfpuou+9UOe2nVMzTPuYC5xfuiePxBHl5VvdKp5McIlghPijjKzvoFwfK6F6MOUi2amqcdQHDf6rsjjrIzfg2cO2P6rBeiDlJt0qnkgQT7dI+MOkuV6PWFN51K7gVcDfTWlVG3E9zf2+vv27bwShWSiMfrCP6SuwzYd/PfP/5bC2jo3zMr9xrrB5De42scPuFU+tUP6pFnqvKeXfYX7pgzk+Vr5/fkY0/IZYrNPflAbV/3N8vXAUdFnSVEqwhWzHy7pbVtTdRhotLUPG00cAnwBaA+4jhhWANcDlw1Y/qsPvt1fUM6ldyNYBnp5/An0ZvqtYU3nUoOI9hucAbQ2w9H6QBuBC5qaW2rjlNWy2DhlSosEY/XA/9OcEjBP5Yoveeanikp+43+EMdNnsnwAdVyMKvC1NG5ngdf/D73LbiW9R09cubPR3KZYq/8JqQWdX+zfCnweWr3m+V5wLktrW2/jzpIT2pqntYP+Cowk5Dvf68SCwmu+fvdjOmz+ty+7e67V78GXAgMizhONep1hTedStYDpxC86BgTbZrQvUJwT/CPWlrbItlTtTN6ovDWwk8jpbK1Fwqd7YXCz4C3AacBPXIC3thd3sEpB9zKx/b5gWW3hjXU9ye9x9c4Nfkg8TEnUbudR5tKp5L906nkOcAsgjd/tfyFnwT8Lp1K3tv9JrvmNTVPew/wOMG+v1osuwATgN8Af21qnpaIOkxPSqeS7yO4t/hqLLs1IZ1KpoGHgJupvbILsCvwPeCRdCr5rqjDVCPf8EqbSMTjuwCnveea+blKzD+k364cM+l8Dhz7Cer8eVOf8+Lrj3Hb7CwvrGir1CN8wxuxdCr5AYJDi6ZFnSUCXQTfUGZbWtteijpM2Jqap+0NfBt4b9RZelgX8GMgO2P6rKVRh6mUdCq5L8EPMaZHnaUX6BVveNOp5ASCQ8ZOijpLD+tV96i7pFmKSDYfC/VPX31dP1LjP8+7Jp7FgIahYU6tXqeLJ1++hTvmXMzK9YvDntzCG5F0Krk/QRk6PuosVWAFwb7H62vh+oym5mnDCZYunwr0izhOlFYSLNG/fsb0Wb3+6/qGdCo5gje/vtV092o1q+rC23111LkE16n11cNR1hLcE31FtZ+zYOGVIhJm4Z0US/P+va5m5KApYU2pGrChcw33LbiW+xdeH+a0Ft4elk4lRxKcAfBl/GZ5c88DZ/fW6zOamqfVE+y/vhQYHXGcavI8cPaM6bN65df1Dd13r77x9R0VcZzepioLbzqVrANOJDgNf0LEcarFP/bjV+s96u7hlWpAfLcTLbv6J/3qB3H4Hl+NOobKlE4lG9Op5NcIvvn3zdCW7QXcmk4lb+9+A95rNDVPOwpoJ9gXZ9l9q72AW5uapzU3NU/rVV/XN6RTyWMIvr43YdmtCelUMgH8lWDvuWX3TW/sx+8z5yxsSWPUASRJ6k3SqeR0guXL+0WdpZc4DiikU8nvAxe0tLa9GnWgrWlqnjaJ4O3QxyKO0hscDxSamqfdBFw0Y/qsqv26viGdSk4hOIzqI1FnUTjSqeQYIAd8hto+IHBnHQm0p1PJHwIzWlrbXo46UE+y8EqStAPSqeTbCL5Z/kDUWXqhBuArwCfSqeRFwE0trW0bo430pqbmaUOA84CzgYERx+lNGgiu7/lkU/O0C4Hvz5g+q2q+rm9Ip5JDgfOBM4EBEcdRCLqvjjoduADwcJQdU0dwc8DHu/8evrGa/h6uJJc0S5K0DelUsiGdSl5CcFWJZXfnjACuBx7vXoIYuabmaZ8E/g5kseyWayRwI/BoU/O0d0ec5R/SqWRdOpU8BXgO+CaW3ZrQfRr+UwQnMFt2Szec4ETyJ7pXLNU8C68kSdt2HcFbhL58Qm/Y9gXuTqeS+0QZoql52neA/wLGRZmjhrwduLupedqpUQdJp5IHA63AT4DdI46jEHT/8PFnwB8J9pJr5+wD3JZOJb/bfeBXzbLwSpK0FelUcjTBoVQK3zCCvXeRaGqe9hGCZdYK33VNzdMi2+OeTiUzQAtwSFQZVBEXAidHHaIGfYlguX/NsvBKkrR1B0QdoMZ9oPt6mCh8OaLn9gUNBHsFe1w6lewH/BSXL9eU7rt1T4s6Rw07J8K/iyvOwitJ0tYNizpAjesHjI3o2e+I6Ll9RVRveDPA+IiercrZB4hFHaKG7Q5MjDpEpVh4JUlSlKJ6qzAoouf2Ff0jeu7UiJ6ryhoedYA+oGZ/wGvhlSRJUq2o2WWZkspj4ZUkSZIk1SQLryRJkiSpJll4JUmSJEk1ycIrSZIkSapJFl5Jknq//wWmE1zHsh/wVWBhpIkk7YiHgBejDqHQdADfB44HPgc8H20cgSfZSZLUmz0MnNHS2vbAJr/2IvBMOpX8CXAu8A28gkeqNk8Cp7e0tt2VTiUHAmcB5wNDoo2lnZAHzmppbXvijV9Ip5K/AE4HZlDD1/5UO9/wSpLU+ywGPg0culnZ/YeW1rY1La1tFwNvA37dk+EkbdWrwFeAg1pa2+4CaGltW9vS2nYZsDfwiyjDqSyzgY+0tLYdt2nZBWhpbVvf0tp2FcHfwz8CuqII2NdZeCVJ6j3WAZcDe7e0tv20pbWtc3sDWlrbXmhpbfs3IE3wRlhSz+sAbgD2amlt+25La9vGzT/Q0tq2qKW17WTgMKC1pwOqZCuBbwL7t7S23bKtD7a0ti1taW37PHAwcF9PhNObLLyS/j97dx7nVl3vepCziwAAIABJREFUf/w13aEUUtayQ7EICI400QFHEDQwyHW/srhv16LoD3EFzLDaaHtd2Fyget1FBb2K26U0CgoBAklx2GFoSwuFspSmtKV75/fHSbXUtjMnc5KTZF7Px6N/0OZ8z6fDnGne+X6+36+k5vBb4NB8oXhevlBcFvbiykzwUQQzw09FXZykrboReGW+UPx0vlBc0t+L84XiHQSh94O4vrcR9QE/BCblC8Xp+UJx9UAvzBeKd+cLxWOB04D5tSpQL2XglSSpsd0LHJ8vFN+ZLxTnDWagfKG4IV8o/oigdXIawYyxpNroBd6aLxS78oXiA2EuzBeKfflC8ScEz+pX8VltFHng1flC8SP5QvHpqgcpFK8FDgXOB16MqrhBatnvMQOvJEmNaTn/Wut3c5QD5wvFZflC8TyCN1wzoxxbEi8QbBh3eL5Q/MNgBsoXisvzheKXCJ7V/42iOFXlceDdwDH5QrEUxYCVfRamEqzv/VkUYw7CcmBuzDXUjLs0S5LUeFYD6XyhWNN1fPlCcV5nR+pkgjdb767lvaQhoA/4AZAZzOzfllS6O/6zsyN1HMFa4COiHF9btQ7IAtPzheLK/l48deakNuBUgln5NcAXu7t6f7+ta/KF4kLg/Z0dqW8D3wGOHHTV4f0wTGt2s3GGV5KkxnN5rcPuRpWNr84k+IRfUnXuAlL5QvG/og67m6p0exwJfIJg0yTV1pn5QvGiAYbdI4G/Ab8EDiRoR79+6sxJN06dOekV/V1fWbt9DMGuz/V0O8GRWC3LwCtJUuO5pp43yxeKZWBQrZfSEHd6vlCcXY8b5QvF9flC8Srg8nrcb4jrt9V46sxJu0+dOel7QIkgsG7uBKBn6sxJV06dOWnnbY2VLxRXEGxQWA8rgQsI9oho6Q88bWmWJKnxPBzDPVt2/ZZUB8/HcM/FMdxzSNnWzO7UmZNGAWcRbDy1Yz9DDQc+Bbx36sxJ5wNXd3f1/tvRVBUrqqk1pF8CX8gXik/U4V6xc4ZXkqQGky8UV8Vw2629+aq1ery5k6TIVNqX7wO+Rv9hd1PjgW8RzPgeWova+nE3wcZb7x4qYRcMvJIkKV5r4y5AkkJ6PzBpENcfBpwSUS0D8SwwhWCd+a11vG9DsKVZkiRJkgYuiknDekw8riOYUb4oXygurcP9GpKBV5IkSZJay0zg7Hyh+FDchcTNwCtJkiRJreFR4DP5QvGPcRfSKFzDK0mSJEnNbRlwDvAKw+5LOcMrSZIkSc2pD/gJcG6+UFwUdzGNyMArSZIkSc2nAJyVLxTvjLuQRmZLsyRJkiQ1j6eADwBHG3b75wyvJEmSJDW+NcA3gWy+UFwedzHNwsArSZIkSQM3O4Ixerby+89t5fevBz6XLxTnRHDvIcWWZkmSJEkaoO6u3p8AxwB3V3H57UBHd1fvb7fy5z8Hejf57weArnyh+HbDbnUMvJIkSZIUQndX761ACvgv4JkBXLIQeB/Q2d3Vu9V1t/lCcQlwJPAu4GSgPV8o3jj4iocuW5olSZIkaTOdHand84XiVsNsd1fvBuB/ps6cdB3QDZwNjNzsZauArwHTu7t6VwzkvvlCcQXwm+qq1uac4ZUkSZIGJxHDPcfHcM+h5sudHam2/l7U3dX7QndX7xeBVwB/2OSPrgUO7e7qvWCgYVfRM/BKkiRJg3NNZ0fqiHrcqLMjNayzI/URgtlE1dYUIN/ZkXrNQF7c3dXb293V+1bgdQTrdE/r7up9rJYFqn+2NEuSJEmDczRwd2dH6ntAd75QXFyLm3R2pF4HXAYkazG+tuhooNDZkfox8KV8ofhkfxd0d/Xma1+WBsoZXkmSJGnwhgMfBx7t7Eid3dmRimxiqbMjtV9nR+oXwC0YduPyQeCRzo5UprMjtV3cxWjgDLySJElSdBLApcC9nR2pkwYzUGdHavvOjtRFwMPA6RHUpsEZC0wFHuzsSJ0SdzEaGAOvJEmSFL1DgP/r7Ej9qbMj9fIwF3Z2pNo6O1LvJgi6FwJjalGgqrY/cG1nR+rvnR2pyXEXo20z8EqSJEm1czLBbO83OztS/e7m3NmRSgF54Bpgn1oXp0E5Bih2dqR+0NmR2iPuYrRlBl5JkiSptkYCnyFYA3pGZ0dq+OYv6OxITejsSP0IuJNgoyQ1hzbgw0BvZ0fqnM6O1Oi4C9JLGXglSZKk+tgNuAoodXakjgPo7EiN7uxInQv0EmyM1O+5r2pI44BpBOt73xl3MfoXjyWSJEmS6qsduKmzI3UbsB+2LreSA4HfdHakbgLOzheK98Rd0FDnDK8kSVu3Ku4CJLW012LYbVXHE5zNfHVnR2r3uIsZygy8kiRtXV/cBUiSmtYwYArB+t7PdXakRsVd0FBk4JUkSZKk2tkR+DpwX2dH6q1xFzPUGHglSZIkqfYmAdd3dqRmdXakXhF3MUOFgVeSpMayJqb7LovpvnFZH3cBkoasNNDT2ZH6dmdHape4i2l1Bl5JkhrL/THd976Y7huXx+MuoMU9EdN9/SCj9pbHcM9nY7hnrQ0HzgQe7exInd3ZkfL0nBox8EqS1Fi+G9N9ZwFzYrp3HK6Nu4AW95uY7vtYTPcdSh6O4Z4PAQtiuG89JIBLgXs7O1JviruYVmTglSSpcVwL/E8cN84XihuA04Clcdw/BlcQvIlW9G4AfhfTvWcCT8d076Hgb/lCse7dEflCcT1wfr3vW2eHAH/u7Ej9X2dH6tC4i2klBl5JkuK3BPh/wLsrwTMW+UKxBBwJ/CGuGuqlu6t3OfB6hsDftY76gKuB/+zu6o3lSK98obgG+C9gbRz3b3FlghbcWOQLxZ8AZwGr46qhTk4imO29rLMjNT7uYlqBgVeSpPisB64EXpYvFL8VZ9jdKF8ozssXim8FTqTF1/V2d/U+093V+1bgZJztHaxbgVR3V+/Hu7t6X4yzkHyh+EfgDcADcdbRYv4GvDpfKMb6Nc0XilcChwK/jrOOOhgOfJpgfe8nXd87OAZeSZLicQNwRL5QPCtfKD4fdzGbyxeKswhme88Enou5nJrq7ur9P+CVwGcYOi3dUXkcOB04trurd3bcxWyULxRvBdoJQkM55nKa2WPAu/KF4nH5QvHRuIuBf34odwpBh0bDfM/VyM7Atwh2dD4h7mKalYFXkqT6egg4OV8ovilfKD4YdzHbki8U1+ULxe8SnB15KS3cJtrd1bu2u6v3MoK/69VA7LPtDW4lcDHw8u6u3l/F1cK8LZXv3yuAlxFsBucOzgO3AsgAh+YLxbg2INumfKH4d+DVwIeBp2Iup9YOA27s7Ej9vrMjdXDcxTQbA68kSfWxhGC26Yh8ofh/cRcTRr5QLOcLxc8ChwN/jLueWuru6n22u6v34wSz23+Lu54G9UuCoHtRd1fvyriL6U++UFycLxTPJPh/+te462kCPwUOzheKX8kXiqviLmZb8oXihnyh+CPgYOArQEPXG4G3APd1dqS+0dmR2inuYpqFgVeSpNpaD3wHmJQvFK/IF4rr4i6oWvlC8ZF8ofgWgk1VWnp9ZHdX7z3dXb3HAafgUTcblYDXdXf1vru7q7fpzjHOF4r35gvFNwLvAObFXU8DKgBH5QvFD+QLxSfjLiaMfKG4PF8oZgjW9/4q7npqbCTwWaC3syN1RmdHyjzXD79AkiTVzo1Ae75Q/GS+UFwcdzFRyReKMwnWR34KaLj1x1Hq7ur9NcGb6G6CNs+h6Bngo8Brurt683EXM1j5QvF3BP9PzwOWx1xOI3gS+ABwdL5QLMRdzGDkC8XH8oXi6UAncFfc9dTYbsBVwM/iLqTRGXglSYreI8Cb84ViV75QvD/uYmqhsj7y2wTrIy8Hmnbmuj/dXb2rurt6s8DLCdo9h4q1wH8Dk7q7en/Q3dXbMuua84Xi6nyhOI2gFfbHBEcqDTWrCdqAD84Xij/NF4ot8zXIF4q3AR3ABwkCfSt7d2dHav+4i2hkBl5JkqJTJtjp9/B8ofinuIuph3yhuCRfKJ5NsL73z3HXU0vdXb0Lu7t6PwAcDdwZdz019nvgsO6u3nO6u3pfiLuYWskXik/lC8UPAUcBt8dcTj39hmBDqky+UGzJzoV8odhXObv3YIIN1hp+vfkgtMyHFbVg4JUkafA2rtN9Wb5QvCxfKLbsbsZbky8UH84Xiv9BsL63oXefHqzurt47CALSB2m93WEfAE7s7up9W3dXb0McQ1MP+ULxToI22PcBC2Mup5buAY7PF4rvyheKQ2Idc75QXJEvFC8iCL7XxFxOLfwoXyguiLuIRmbglSRpcFpynW61Kut7X0mwI/WSmMupme6u3r7urt6Ns0dfJWgPbWZLgP8HtHd39c6Ku5g4VGYEf07Quj6V1trx9zng48DkfKF4c8y1xCJfKD6RLxTfS9Ch0dRrlSueIFh7/ZG4C2l0Bl5JkqrTC7ytldfpVmuz80+vZNvnnzb12ajdXb3Lu7t6v0SwCdL/xl1PFf7ZndDd1fut7q7ell2LPVCVGcHzCf6fXhd3PYO0DriMYJf4q/OFYlM/b1HIF4p3EITe9wBNt9s4sIzgjOSWW3tdKyPiLkCSpAb2zBZ+bylwCfCtfKG4ps71NJV8ofg8cFZnR+q7wDcJ2p039Xi+UFxW/8qi193VOw/4z6kzJx1PsInXETGXNBA54DPdXb33xV1II8oXio8Bp3Z2pI4FriDYmbyZ3ACcnS8UH467kEZTCYm/6OxI/Q74AnAOsH28VfVrPTADuChfKG7p3yZthTO8kiRt3T/41668awmOgJiULxS/adgduHyh+GC+UHwTcDKwcTb8WVqwFa+7q/cm4EjgTII20kY0B3hHd1fvCYbd/uULxb8Dk4EzCL5vG90jwH/kC8U3GXa3LV8orswXipcQLE34CY27+dMfCTZDPNOwG15bX180/1/b2toiGUdqBJlcIrIfeG87+HLa9zg9quHUQlatW8p/335wlEO+I5su/y7KARXo7EjtAqzNF4otu1ttvXR2pNqAPYFnW31zr6kzJ40HLiQ4r3h4zOVA0AqZBS7r7upt9jXHsejsSO0EXECw3nlkzOVsbmP3yZWt/mzVSmdHKkXQAt4Zdy0Vs4HP5wvFm+IupFaiyqLbYuCVtsDAq3ow8EpDw9SZkw4FLgW6Yiqhj+Cs2fO6u3oXxVRDS+nsSL2coE3/5LhrATYA3wfOd/Zv8Cofyp0KTAfiOt/2CeBLwM/zhWLLnH+9JfUIvK7hlSRJqqHurt4HgZOmzpz0HwTBd1Idb387cFZ3V2+xjvdseZVW4f/o7Ei9iSD4HhJTKX8jWKf7j5ju33Iq63t/1dmR+j1wNkHw3KFOt18GTAMuzReKrXxucF25hleSJKkOurt6/wQcDnweqHV7/EKCXWg7Dbu1ky8U/4/gGK7PAOU63vox4NR8oXicYbc2Kut7v0rwAdUPqe363vXAdwnOcv+KYTdaBl5JkqQ66e7qXdPd1fsNgjfR3yf6N9GrCNZxHtzd1fuL7q7eRt2Ep2XkC8W1+ULxMoKNj64maDGulReBbuCwfKHY7EcmNYV8obgoXyh+BEgBt9TgFm5IVWO2NEuSJNVZd1fvM8DHps6c9B2CY4yOiWDYa4EvdHf1LohgLIWULxSfBT7e2ZH6DsExRq+P+BY/B87JF4oLIx5XA5AvFGcDx3Z2pN4JfB04cJBDtvyGVI3CGV5JkqSYdHf13t3d1XsscDpQbVC9G3h9d1fvaYbd+OULxXvyheJxwLsIWo8H6y7g6Hyh+D7DbvzyheL/AocC5xKsuQ3rCeADwKsNu/Vh4JVqLPfYVHqe/iV9Ne1wUrN5avk9/PKBD8RdhqQG0d3V+yuCjY8uBAa6fu8ZYAqQ6u7q/XutalN18oXibwiCUQZYUcUQTwEfAjryheIdEZamQcoXiqvzheJ0gqUJ32NgbezLCL4XDs4Xij9t9d2XG4nHEklbEOWxRBvttcOr6DpoKvvu+Oqoh1YTWbHmWf46/6vcvegaarD/hccSSS1g6sxJ+wD/Dbx7Ky9ZS9AGPbW7q3dp3QpT1To7UnsR7L77/gG8fDXBbt7ZfKG4vKaFKRKdHalXEpzfe/wW/ng9MAO4yDW6/85zeKWY1CLwbnT4bu8gfeAF7Dh6r1rdQg1ofd9aCgtncMuCS1m9vpoOqAEx8EotZOrMSa8FLgBOBNqANcB1wCXdXb2PxFmbqtPZkTqKIBh1bOUlvwU+ly8U59WvKkWlsyN1MnAGwW7sqwiOjboiXyg+FGthDczAK8WkloEXYOSw7ejc9//x2n0+yYhhY2p5KzWAR56/kRvnXsjzK+fW+lYGXqkFTZ05aQywO/BUd1fv2rjr0eB0dqTagNOATwLtBB9k3AZ8I18o/i3O2qR6M/BKMal14N1op9H7kD7wAl6x29vqcTvV2bMvPsKNc89nzpKb63VLA68kSWoa9Qi8blolbdmSetxk6eon+M1DU/jRPW9j0fJ763FL1cGqdWVumJPhqtnH1TPsQnA+oyRJkioMvNKW1fVYhwVL72DG3Sfwh97PsmLtc/W8tSK0oW8dxad+yJV3dXDnk9+nr299vUtwzZckSdImRsRdgNSgbiNYV1NHfdy96Oc88OzvOXa/z/KavT/G8LaR9S1BVZtXvoWZc7t5ZkVs+1IsBubEdXNJkqRG5AyvtGW/jevGq9cvY9a8i/lu6VgeeX5WXGVogJasms+vHvggP733XXGGXYDrs+myZ/pJkiRtwhleactywCPAwXEV8PzKufzy/vdx0Pjj6Jo4lV23nxRXKdqCNeuXc8uCy7hj4VWs72uITVO/FXcBkiRJjcZdmqWtyOQS7wR+E3cdAG1tw3n1nh/huP0/z5gRibjLGdL62MA9T1/LXx7LsnxNw5wf/8tsuvzuuIuQJEkKw2OJpJhlcomfAu+Lu46NthuR4PgDzmPyhPcxrM0GjXp7/IW7mDm3myeX/SPuUja1ADgymy4/H3chkiRJYRh4pZhlcontgD8Bx8ddy6Z2H3sIXROzHJh4XdylDAkvrH6S3GNf5r5n/jfuUjb3HPCGbLrsmVaSJKnpGHilBlAJvd8H3hN3LZs7ZJeTOWHiRYwfs3/cpbSkdRtWcdsT3yb/+JWs3bAy7nI29xDwjmy6HOtOWZIkSdUy8EoNJJNLvAv4JrBv3LVsaviwURy198c5Zt9PM2r4DnGX0zLuf/Z6cvMuYenqJ+IuZXNrCL4PL86my6viLkaSJKlaBl6pwWRyie2BL1Z+bRdzOS+xw6g9eOMBX6J9j9MAn8dqLVp+LzfM7WbB0jviLmVLfg98LpsuPxp3IZIkSYNl4JUaVCaX2A+YDpwedy2b22vcqzhpYpZ9dkzFXUpTWbH2Of762Fe4e9E1QO1/+Ib0AHB2Nl32YGZJktQyDLxSg8vkEq8DLgcmx13L5g7f/Z2ccOAFjBu1Z9ylNLT1fWu5c+H3+PuCb7J6/bK4y9ncEuAC4Kpsurwu7mIkSZKiZOCVmkAmlxgGfAj4KrB7vNW81Mhh29G571m8dp8zGTFsTNzlNJxHnp/FjXMv4PmVc+MuZXPrgauACzxuSJIktSoDr9REMrnEjkA3cDYwMuZyXmKn0ftwwoEXcNhub4u7lIbw3Iu9zJx7PnOW3BR3KVuSI2hfvj/uQiRJkmrJwCs1oUwu8TKCXXTfEnctm9tvp6M46aAsE8YeHncpsVi1rszfFnydO5/8AX196+MuZ3NzCDakuj7uQiRJkurBwCs1sUwucSJwKXBY3LW8VBuTJ7yX4w84j7Ejd427mLrY0LeO2Yt+xk3zp7Fy7ZK4y9ncMiALXJpNl9fEXYwkSVK9GHilJpfJJUYAnwAuBsbHXM5LjB4+jtfv/3levddHGd7WUB3YkZpXvpWZc7t5ZsWDcZeyuT7gR8B52XT56ZhrkSRJqjsDr9QiMrnEzsCXgTOA4TGX8xK7bHcQJ068mEk7nxB3KZFasmo+s+ZexEOL/xx3KVuSBz6dTZdLcRciSZIUFwOv1GIyucThBG3O6bhr2dzLxr+BEydewq7bT4q7lEFZs345tzx+OXcsvIr1GxquQ/hx4Bzgl9l0ueEO+5UkSaonA6/UojK5xNuBrwMHxV3Lpoa1jeDVe32Y1+/3ecaMSMRdTkh99Dz9K/7y2FdYvqbhOoRXAdOB/86myy/GXYwkSVIjMPBKLSyTS4wmOMIoA4yLuZyX2H7kzhy3/zkkJ7yftraG6sDeoideKHLD3AxPLvtH3KVsya+AL2bT5QVxFyJJktRIDLzSEJDJJSYAXwE+BDTUg7T72EM5aWKWAxKdcZeyRcvWPMWseZdw3zP/G3cpW3I3cFY2Xb417kIkSZIakYFXGkIyuUQKuAI4Ou5aNnfILidz4sSLSYzZL+5SAFi3YRW3PfEd8o9fwdoNK+MuZ3PPAF8CfphNlzfEXYy2LZlMngJM3OS3zqHBdlSvkVypVAq9U10ymZxIcGb0UDfgr98Q+ZrNAOZu/I9SqTQ9ikGTyeQswu95cW5U9292yWTyHGBayMu2+PUbIt/HAzGgZ3+IfL0iee7rEXhH1PwOkgYkmy4XM7lEJ3A68DVg75hL+qeHFv+Z3iU5jtr74xyz79mMGj42tloeeO73zJp7MUtXPxFbDVuxFrgMmJpNl1+Iuxht2SYBd6gEW6kepmz6H8lkcmPImgHMHUQAPZUgNIR5Vqclk8lcqVQa0rvgVwLXOSEvy/lhgUKo1XMfOQOv1EAqO/f+IpNLXE/wD9UXgTHxVhVYv2EN+cevoOfpX/HGAzK073Eq9ezAXrTiPmbO6Wb+0tvrds8Q/gB8NpsuPxp3Ifp3yWRyPME/zGFnOiQNzhT45xvhGcB1pVIpN9CLS6XSkmQyeQZwbcj7Xg2kQl7TaqYR7oOCJQRHJ0qDNajnvhaGxXlzSVuWTZdfzKbLFz7y58RJi+7Zfn3c9Wxq+Zqnuf6Rs/iff7yJJ5bV/gP0FWuf44+9n2fG7HQjht0HgK5suvxWw25jqrT0PY9hV4rbFGBWMpm8tjL7OCClUuk64LqQ90pWnv0hKZlMTgFOCXnZ9FKpNLf/l0mhVPXcR83AKzWoye3tw+b8Zaepd/94t+F3fHsCLywcFXdJL7Fw2d384B8n89uHP8myNU9FPv76vrXcsfAqvnXXUcxe9FOgoY6tXQKcBbRn0+Ub4y5G/y6ZTE5MJpNFDLpSozkFKCaTyTBrc88g+LkbxrQ432DHpdLREvbnnq3MqrVqnvvIGHilxvUZ4HUAS+aO5rZL9+S+a3dhzfLGOibo3md+zbfuOppbHr+MdRtWRTJm7/OzuKr0em6ceyGr1y+LZMyIrAe+A7wsmy5fmU2X18VdkP5d5U3uLCAZdy2Stmg8wazPlH5fSdDaTHXttldXcU2zs5VZjSrUcx8lA6/UgCa3tx8CZDf9vb4+eLywA3/76l7Mu3lH+tY3zs7oazes5KbHvsp3Sq/jged+X/U4z73YyzX3vZtf3P8+Fq9suM0Nc8CrsunyJ7Pp8vNxF6NtupaX7rwsqTFdnUwmB/TBVJWtzemh1Npc2ZQvbJiwlVn1NuDnPioGXqnBTG5vHw78CBi9pT9ft2oYD/1hPLf89148c/92da2tP+VVj/PrBz/Gj+95B4tW3Dfg61atKzNzbjdXzT6OR5f8tYYVVmUu8I5sunxCNl0e+F9Ksai8uXVmV2oeYTakqqa1+Zyh0NpcZStzyVZmxSTsRnSDYuCVGs9ngY7+XrTiuRGUfrA7d83YneVPj6xDWQM3f+ltfG/2Cfyx9/OsWPvcVl/X17ee4lM/4lvFoyks/B4b+hqqQ3g5cC5wWDZd/l3cxah/lTd8Q2Y2R2oRE2vc2lxNEGxG5xC+s+XUWhQiDcCAn/soeCyR1EAqrcxfDnPNcw9vx61f3479OpcxqavMyO021Ki6cPrYwOxFP+X+567n9ft9jtfs9VGGtf0rmD9WznPD3AzPrHgwxiq3qA/4MXBeNl1eFHcxCmUK1Z+tuwTYONMx5M/wjFKpVGqc9RdNopm+Zpu0DKcrv6oxheD4kn6VSqXrksnkdYTbhfiUZDI5pVQqDegezabSHhr2w75za93K3Ezfx42gmb5e9X7uB8vAKzWI/lqZt6VvA8y/ZRxPzh7LwSeV2feoZbQ1SP/G6nUvcOPcCyk99RNOnHgJu21/MDfOvZCHFv857tK25HbgrGy6XIy7EFWlmlbmEsEbv1jPCJSa1SYtsdM3aasNO3OTTCaT4yszuANxBsGb7DAfcE1LJpO5Fl2vGrY91FZmDUqUzz3hlymE1iBviSUxwFbmbVm7Yhj3/2Zn8t/ci8WPjomorGgsXjmHX9z/Xq68q6MRw+5C4D1Ap2G3qYUNvKVSqZQy7ErRKJVKS0ql0hkEy0HCGvDza2vzv1Rm2mxlVmzq9dwPhoFXagCT29sPJ2Qr87Yse2okd353j4fXrRp2KjAvqnGj0EdjtFxXrAIuAQ7Opsu/yKbLDXXYr0IL+6avmn+cJfWjMvsTdllAqOe3yl2bT6nsZNwSKptxhQ3xNW9l1tBUj+e+WgZeKWaT29tHUGUr8zZsAD40/c3PXwccCpxHsAmT/uVa4OXZdPnCbLr8YtzFKBa+6ZNqp+ZtilS3a/PVlTbKVmArsxpNPZ770Ay8UvxqcYzKN2f39NwBkE2XV2fT5WnAJILNmIb6LObdwLHZdPm0bLq8IO5iJElAFRvODeXW5iqPYAv7tZJqrS4fPhl4pRhVWpkviHjYh4HzN//NbLq8KJsuf4hgnfDtEd+zGTwDfAxIZdPlW+IuRpI0eFW2Nk9p5tbmSitzNbsyu/u8hiQDrxSTTVqZR0U47Hrg/bN7elZt7QXZdPkuoBN4L8FmTa1uLfB1YFI2Xf5+Nl1uqEXEkqRBq6a1eVoTtzZfTbiZMVuZNaQZeKX41KKVefrsnp67+ntRNl3uy6bL1wAHE2yWtdWA3OTqWQzCAAAgAElEQVT+CByeTZe/kE2XX4i7GElS9Kpsba5mljR2yWRyCuHPPbWVWUOagVeKQY1ame8n2HF4wLLp8ovZdPkC4BDCb37RyB4ETsqmy2/JpsuPxF2MJKm2qmxtPieZTIYNj7HZ5LzTMGxl1pBn4JXqbHJ7+0jgZ0Tfyvyh2T09q6u5OJsuz8+my6cBrwf+EWFd9VYGPg28Mpsuz4y7GElSXZ1LFbs216KQGrGVWaqCgVeqvwzQHvGY02f39BQHO0g2Xf47QZv1FODZQVdVP+uB7wIvy6bLV2TT5XVxFyRJqq/K+bJhz9eemEwmG37X5somW2E32rKVWcLAK9XV5Pb2VxEE3iiFbmXelmy6vCGbLn+P4BijbxBs+tTI/gocmU2Xz8ymy4vjLkZNpS4H3kuqn1KpNIPqWpuj3lMjMrYyS4Nj4JXqpNLK/CNgRITDDqqVeVuy6fLSbLr8eeBw4E9Rjx+BecA7sunyG7Pp8r1xF6OGMDfk6xt+VkdqYmF3QA7birwtrdbafA7hPqCbayuzYhLnc79VBl6pfmrRypyNopV5mzdIlx/JpstvBk4CHqrlvQZoOXAecGg2Xf5d3MWooYSdzUgmk8liM21aIzWDZDJZzSkEkb3xrbK1OVmpu6FUfj6FrevUWtQibUvcz/22GHilOqhRK3MPMDXiMbeqsgnUEcDZBJtD1Vsf8GOC83SnZdPlyGe11fSqad9LArOSyeTzyWTynMqvhm1tlBpdZT1sNd0TYTs0tqnK1uZpyWSy0ZY6hJ15nm4rs+qtUZ77rYmytVLSFtSolXkdQStzXdfXVjaDujyTS/yMIGx/DBheh1vfDnw6my73e8awhrQZBDMhYVuqqFzzz3+smyzzlnjpG/vrKjNcUs1tMiuaJPymShstqVFIO5fgzNowPxOuBVI1qCW0ytc2bCtz2JltKbQGf+7/TVtfX180A7W1RTKO1Gomt7dngS9FPOzFs3t6Lop4zNAyucQRwOXA8TW6xULgi8AvsulyND+s1NIq/wi7NjeQq/yKLABXZr/mRDFWMyqVSqHf7Az1r9kAnVurNafJZHIK4WdJa1bPQFU6TcIuWUrVKkAM9e/jsM/+UP96DdC5pVJpelRZdFtsaZZqaHJ7e4rwa2/60wNkIx6zKtl0+d5suvwG4J0Em0hFZRXwZeDl2XT5GsOuBqryJtV2vkCaIPzPSSaTsyrHmkiNZgnhW48HrIlbm21lViur6XO/OQOvVCOT29tHE7QyR9nyG0src3+y6fJvgUPn3zLugfWrB9ft8dzD2z1LsCHVBdl0eUUkBWqoOZU6rQtqImngWjfpUgOaXocW/KbatbmKzX9sZVazqcdz/08GXql2LgBeEfGY2dk9Pf+IeMxIZNPl1Q/8bufev03bm4V37RD6+hcWjqLw7T24a8buD2TT5ceir1BDReUf0RNwpndLNm7S1XC70WpIuq4ercNV7tqcjuM5qcwsh12WcUYtapFqpC7P/aYMvFIN1KiVuUQdd2Wu1uoXhnPPL3fhtkv35On7tqe/pRnLFo2k5+e7ctule/L83DH1KVItr1QqzS2VSinCv8kdKqYlk8lGPndUre+6UqlUt+NzqmxtPieG1uZqWplzNalEil5dn/uN3KVZiliNWpnXELQyr4twzJpa+sQoZv9wN0btsJ5dJq1i3J5rGT1uPSPGbGDti8NYvmgUix8dw7KnRsZdqlpYqVSankwmZwBTcDOrzU1JJpNz496cR0PSGZUAWm9hd23euHt7Xd6gVzbYCrPkYC7g86tmEddz7wyvVAMXEn0r8yWze3rui3jMulizfDhP3T2WR/6c4N5f7cLdP96N+67bhcduGWfYVV2USqUlpVJpemWXzVNx1ndTjbA5j4aOGcBBcb3prbK1+ZRKEK2paluZS6VS2LXJUr3F+tyDM7xSpCa3tx9FbVqZ/QRXikCpVNrY0jgdoLJz8aaBbyjOAp+DawBVOxvPiZ7RCOGsVCrNqGzcFmbX8mnJZPK6Gtc/jXDnBdvKrEbWUM+9gVeKyOT29jEErcxRdk40XSuz1Ew2CcAbNdWHS5WZp/EEob3aWagpyWTy3EZ4U6KWcB2VDeMauF2+mtbmq6lRa3Plg7cwAdxWZjWahn7uDbxSdL4MvDziMZu2lVlS7W3WInZGZVfZamap09ToTMRKK7lCaISvWTKZnMNLux/6M7dUKh1Uq3qiVCqV5iaTyXMJt0HUKclk8pQtfEg2KMlkcuM64TCaopW5Eb6Pm0kjfL1a9bl3Da8UgUor82cjHraIn+BKCqHyyXqqikvDnPmpoSHsvz8T67HWNSpV7to8rRJQozSNcAFjhq3MqqGWfO4NvNIg1aiVeTXwfluZJYVVKpWqWfcf9Zt4NblKIJwb8rJmO9/5XCDMTGk1G0ttVWUtcZiwUM2mW9KAtepzb+CVBq8Wrcznz+7peSjiMSUNHWHfsLhTs7YkbLiaWGmrbwpV7to8pRJUoxD2zF3X2qseWu65N/BKgzC5vf21RN/KXAC+GfGYkiSFUlmvGrZ99pwatP3WTJWtzVcP9u+YTCaraWWuyTp7aVOt+NwbeKUqTW5v3x74MdG3Mn9odk/P+gjHlCSpWtW0xzf8mr7NVNPaXPWMVjKZTIa83lZm1VtLPfcGXql6XwFeFvGYtjJLkhpGZYOklprt2VyVrc3nVIJrNWxlVkNrtefewCtVYXJ7+zHAWREP2wqtzMsjGGNcBGNIkqLTUrM9W1Jla/O1Ye9TWesYJijbyqy4tMxzb+CVQqq0Mv8AiPK8tFW0RitzFLtKD49gDElSRAYx29Nsm6GFbm0Os1lP5esRZpdnW5kVm1Z67g28Uni1aGU+z1ZmSVIDq2a2p6F3bt1cla3N00K0NtvKrGbTEs+9gVcKoUatzLcCV0Q8piRJkanM9swIedmURpzt2ZZqd23u7wWVmeAwxxldZyuz4tYqz72BVxqgye3tOxB9K/NK4COze3o2RDimJEm1EHa2BxpwtmcAwrY2J7fV2lx58x/m67AEOCPE66Vaavrn3sArDdx0om9l/tLsnp7eiMeUJClylZbfpp/t6c8gWpu39vecRtDqOVBn2MqsRtEKz72BVxqAye3txwNnRjysrcySpGZTzWxPmI2aGkJUuzYnk8lTgFNCjGErsxpRUz/3Bl6pH5u0MkfJVmZJUtOpcrbnlGQyGWb9aqMYVGtz5UzSMBtV2cqshtTsz72BV+rfdOCAiMc811ZmSVKTavo1fQNRZWvzpsey2MqsVtK0z72BV9qGGrUy3wxcGfGYkrSpsGunfJOtAatytifdKLM9YVTR2jweuLryd50S4jpbmdXQmvm5N/BKW1GjVuYVBK3MfRGPK0nAP3eEDfNGG2BuLWpRSwvb7gsNMttThbB/1zQwK8TrlxB+JlmKQ1M+9wZeaeu+TvStzOfM7umZF/GYkgRAMpmcAhQJ10YJUKpBOWphldbbsC2O6comTk2lytbmMM6t3ENqaM363I+I8+ZSo5rc3n4i0W8ccTPwnYjHlDSEVd5ETCQIuIP5FD0XTUUaYmYQfN+F+YBlGuF3P45dqVSaUWnNjPqN+3WVtmmpWTTdc2/glTYzub19R+D7EQ9rK7NUJ8lkcg7h17AOZTNquVFOMplsxZ97uVKpdELcRcStVCotSSaT0wl3/MjEZDI5pUlD3rkE7cphOyi2pqVbmX32W1MzPve2NEv/7hvAvhGPaSuzpEZVzc6b0kYzaMI1fdWotB1H+bzYyqxm1VTPvYFX2kSllfm/Ih72L9jKLKkx+YZbg1Llmr6JlfXmTadUKk0nmiUAtjKraTXbc2/glSpq1Mq8DFuZJTWmGZU379JgNdVsTwTOYHBHebV0K7OGjKZ57g280r/UopX5c7N7ehZEPGYjWx/BGMMjGEPStk0vlUpRb8ynIaoy2xM2wE1MJpNNGXojaG22s0JNr5meewOvBExubz+Z6FuZZxH9jHGjWxbBGOMiGEPSls0FTiiVSs4uKVKV9tywIe6cZDIZ1QZQdTWI1uacrcxqFc3y3Bt4NeRNbm9PAN+LeNhlwH/ZyiypQZSAM0ql0kGlUskjiFQrYWc9xwNNuZa3Imxr8xKiP/JQilvDP/cGXgkuA/aKeMyh1sosqfGUCNrNDiqVSilnlVRrzTLbE5UqWpun28qsVtMMz73n8GpIm9ze/h/AByMedii2MkuKTwm4bpP/zpVKpVJcxWjImw5cHeL14wnO82zKmc9SqTQ9mUymCc7n3Zacm8SphTX0c9/W1xdNx2VbW1sk40j1Umllvp9oZ3eXAkfM7ul5PMIxm8bk9vbLgE8Pcpj5s3t6DoigHEmSJDWwqLLottjSrKGsFq3MZw/VsCtJkiQ1GgOvhqQatTL/eXZPz48iHlOSJElSlQy8GnImt7fvQvS7Mi+luXealCRJklqOgVdD0RXAnhGPefbsnp6FEY8pSZIkaRAMvBpSJre3vx14T8TD2sosSZIkNSADr4aMSivzVREPayuzJEmS1KAMvBpKrgD2iHjMT9nKLEmSJDUmA6+GhBq1Ml8/u6fnZxGPKUmSJCkiBl61vBq1Mj8PfDziMSVJkiRFyMCroeC7RN/KfNbsnp5FEY8pSZIkKUIj4i5A2pZMLrELcDbwZmBfYDlwC3BlNl2+s7/rJ7e3nwKcEnFZ18/u6fl5xGNKkiRJipiBVw0pk0uMAM4ELgYSm/zRLsD+wPsyucQ1wDnZdPmJLY0xub19N+A7EZdmK7MkSZLUJGxpVsPJ5BJdwD3A5bw07G7uPcDDmVzigkwusd0W/vw7wK4Rl2cr87atjGCM7SMYQ5IkSTLwqnFkcomDM7nEH4AbgEMHeNn2BLPAD2ZyidM2/mallfldEZf4a1uZ+7U6gjFGRTCGJEmSZEuz4pfJJXYCuoFPAyOrHGZ/4JeZXOKTix8dc9Gd3428lfk5ghZrSZIkSU3CwKvYZHKJYcBHganA7hENe8wuB636y+GnLuaRPydYs3x4RMNy5uyenmejGkySJElS7Rl4FYtMLnEscBlwZOSDt8G+HcvZs/1FHp21E/NvGceG9W2DGfHXs3t6rouqPEmSJEn1YeBVXWVyif2ArwGn1vpeI8Zs4JC3LGHfo5fx0PU788wDW9rXql+2MkuSJElNysCrusjkEtsD5wBfBMaEvX637Q/m9ft/gUcW38g9z4SbbB276zqSH32G5x7ejgevH8/yp0MtE7aVWZIkSWpSBl7VVCaXaANOJ5jV3Tvs9WNGJDhu/y+Q2vNDDGsbwWG7vpXUXh9m5pxuFi6bHWqsXV++ktd9fiUL8uPonZlg7cp+Nym3lVmSJElqYgZe1Uwml0gBVwBHh722rW04yQkf4PgDzmW7ES89inefcUk++qo/c88z1/GXeVmWrRn4sbhtw2D/Y5ax1+QVPHJDgsfvGEffhi2+9Gng42HrliRJktQ4DLyKXCaXmAB8FfggEHq3qAMTx9A1cSq7jz1kG69q45W7n8ohu/wHtz5+Obcv/C7rN6wZ8D1Gjt3AK/7zefZ77TIe/N3OLH7037qsPz67p2dx2NolSZIkNQ4DryKTySVGA2cTnKm7Q9jrx4/ZnxMmXswhu7xpwNeMGj6WNxzwJSZPeB+z5l3Mg8/9MdQ9x+25ltd84mmevnd7HvrDeF5cPALgmtk9Pb8LV70kSZKkRmPgVSQyucTbgW8AE8NeO2r4WI7Z7zMctdcZDB82qqr7J8bsxymH/g+PLb2NmXMyPL3igVDX73HEi+x26Erm58etWLl4xJdm91RVhiRJkqQG0tbX1xfNQG2DOudUTSqTSxwBXAq8MfzVbbTvcRpvPCDDDqN2j6ymvr71zF70M26aP40X1z5fzRBPAV8CfpxNl6N5QIaIye3tFwEXDnKYpbN7ehL9v0ySJEnNLKosui39blMrbUkml9g5k0t8G7ibKsLuPjum+K8jb+BtB18eadiFyoZXe36QT6XuoGPvjzGsLXQjw57AD4FCJpcIveGWJEmSpMZg4FVomVyiA7gfOBMYHubacaP25J2HXMVH2v/IXju8qib1bTRmxE50TZzKxyffzMvGv6GaIV4N3JrJJb4YcWmSJEmS6sDAq1AyucTewA3AhDDXjRg2mmP3+xyfevXtHL7bO6hi8+aq7br9JN5z+C949yt+zi7bHRT28mHA9Ewu8bEalCZJkiSphgy8Cut8INT6ysN2exufTN3Ocft/kZHDtqtRWf2btHOaTyT/xokTL2b0iB3DXv61TC4ReudpSZIkSfEx8Cqsdwz0hRN2OIIPvfJ63nXIDHYavXctaxqwYW0jOWrvj/Op1O1MnvB+2gb+COwEHFvD0iRJkiRFzMCrAcvkEuOBfneYGjtyV94y6Zt87Mgb2W+no+pQWXhjR+7Kmyd9nY9NnsX+O712oJcdXMuaWkQ5gjF2imAMSZIkyXN4Fco2g8iwtpF07P0xjt3vs4wePq5eNQ3KhLGH88FX/pYHnvs9uXmXUF71eNwlSZIkSYqIgVeRmbTzGznhwMEewRqPw3Z9K8PaRnLtAx+KuxRJkiRJEbGlWZIkSZLUkgy8kiRJkqSWZOCVJEmSJLUkA68kSZIkqSUZeCVJkiRJLcnAK0mSJElqSQZeSZIkSVJLMvBKkiRJklqSgVeSJEmS1JIMvJIkSZKklmTglSRJkiS1JAOvJEmSJKklGXglSZIkSS3JwCtJkiRJakkGXklRWhPFIJPb20dFMY4kSZKGNgOvpCi9GNE420c0jiRJkoYwA68kSZIkqSUZeCVJkiRJLcnAK0mSJElqSSPiLkDS0LD9ruvYYfe1ACxbNJKVz/vjR5IkSbXlO05JNTV+4moOecsSEvutfsnvL350DI/8OUF5/uiYKpMkSVKrM/BKqontxq/j5W9ewp6v2vLGzbu8bBVHn7WIhaWxPPKn8axaOrzOFUqSJKnVGXglRWr4qD4mHr+UiW94gWEj+vp9/d7JFUw44kXm5HZi3t92ZMO6tjpUKUmSpKHAwCspEplcom3Bbc937P6KFxmz0/pQ1w4f1cfBJ5fZ96jlPPSH8Sy6x2N4JUmSNHgGXkmDlsklUsAV+7122dGDGWe7nddx5AefpW992x/fNDxxZjZdvieiEiVJkjQEGXglVS2TS0wAvgJ8CIisF7lteF8ncHcml/gecH42XX42qrElSZI0dBh4FZmV68ps6FvHsLbm/LZascZMNVCZXGI0cDaQAcbV6DbDgDOA0zO5xEXAt7Pp8toa3UuSJEktaFjcBah1LFh6B1fPPp45S26Ou5RQlq15it89/Cn+9OgX4i6lKWRyibcD9wPTCBl2Rw0fy4hhY8LecifgUuDeTC7xprAXS5Ikaehqzqk4xaXfKdBnX3yEn993GgfvfCInTryEnbc7sB51VWXdhtXcvvC73Pr45axdv+WjczYzoBe1qkwucThB8EyHv7qN9j1O440HZNjQt47cvEu479nfhh3k5cCfM7nE/wGfyabLD4evQ5IkSUNJW19f/8eGDGigNo8SGQoyucTDwMEDee2wtpEctfcUjtnvM4weXquu1+o88NwfyM27mPKqx8Nc9upsulysVU2NKpNL7Ax8maC9OPRhufvsmOKkiVn2Gveql/z+4y/cxcw53Ty5/B/VlLUOuBK4JJsul6sZQJIkSfGKKotui4FXoWRyiS8C08NcM3bkrrzhgAyvmnA6bTF30T+94n5umNPN/KW3hb30XqA9my7X/qlsEJlcYgTwCeBiYHzY68eN2pMTDryAw3d/B1vbz6qPDdzz9LXkHpta7RrqZ4Hzge9n0+VwZyFJkiQpVgZeNZxMLjES+AtwTNhrJ+xwBCcdlGW/HTuiL6wfL65dzE3zpzH7qZ/Rx4awl68E3pBNl++oQWkNKZNLnEjQvnxY2GtHDBvNa/f5JJ37nsXIYdsN6Jo165dzy4LLuGPhVazvq2pfqh7g7Gy6fHM1F0uSJKn+DLxqSJlcYhzwPeC0aq5/xW5vI33ghew0eu9oC9uCDX1ruevJH3Lzgq+xet0L1QwxH3hPNl0OPSXcjDK5xMuAbwJvqeb6w3Z7GycceAE7jd6nqvsvWTWfG+dewMOLb6jqeuDXwBey6fJj1Q4gSZKk+jDwqqFlcokuglnAQ8NeO2LYaDr3+X+8dt9PDXgWMKxHl/yFmXMuYPHKR6u5/EWC1u2vZdPlldFW1ngyucSOQDfBUUMjw14/YYcj6Jr4Zfbf6ehI6plXvoWZc7t5ZsVD1Vy+CvgG8NVsurwikoIkSZIUOQOvGl5lneeZBOs8E2Gv33H0XqQPvIDDd3s7W1vnGdbilY8yc84FPLrkL9UOcQ1wTjZdfiKSghpYJpcYBnwY+Aqwe9jrx47cleMPOI8jJ7wn8vXZG/rWMXvRT7npsWmsXFfVvlRPAucAPx9Ka68lSZKahYFXTSOTS+xCsJPvFKrYyXffHV/DSQdNZc8d2quuYdW6pfx9wTe488n/YUPfumqGuItgHehQaV9+HXA5MDnstcPaRtKx98c4dt/PMHrEjtEXt4lV68rcPP9r3PXUD+nrq2pfqgJwVjZdvjPi0iRJkjQIBl41nUwucQRwGfCG8Fe38ao9TueNB2QYO2q3AV/V17ee2Yt+zk3zp/Hi2sXhbwtPA+cCP8mmy6F3tGo2mVxiP4J27dOruf7gnU/ghIkXs8t2B0VbWD+effERbpx7PnOW3FztED8Bzsumy09GV5UkSZKqZeBV08rkEm8n2PzowLDXjhq+A8fsdzZH7f1xhrdteznpY0tvY+acbp5ecX81Za4hWIOczabLy6oZoJlkcontgS9WfoVeOL3r9pPomvhlDhp/fOS1hfHw4pnMmnchz6+cV83lK4AscGk2XV4VbWWSJEkKw8CrppbJJUYDnwW+BOwQ9vrxYw7gxIkX8/JdTvq3PyuvWkBu3iU88Nwfqi3veuCz2XR5brUDNItMLtFGMJs7Hdg37PVjRuzEcft/gdSeH2ZY24jI66vG+r61FBbO4O8Lvsma9curGeIx4HPZdPl/o61MkiRJA2XgVUvI5BJ7Al8FPkAVO1NNTBxL10FT2W37l7N2/Yvc8nhwXuu6DaurKec+gnW6Ve9o1UwyuUSSYJ1uZ9hr29qGM3nC+3jD/uex3cjx0RcXgRVrnuWv87/C3Yt+AVT1s+xm4NPZdPmeSAuTJElSvwy8aimZXOI1BOt7Q59d09Y2nMN3ewePlW9l2ZpF1dz+eeB8YEY2Xa5qR6tmkskl9iD4kOFDVPEhwwGJTk6amGX3saFPnIrFU8vvYeacbha8UKjm8g3ADOCCbLr8bLSVSZIkaWsMvGo5lfba9xC01+5dh1uuB74DXJhNl5fU4X6xyuQSo4DPABlgXNjrE2P248SJF3PILidHXlvt9XH/s79n1ryLeGF1VftSlQmO1/p2Nl1eG21tkiRJ2pyBVy0rk0uMJTgj9QvAmBrd5kbgM9l0+YEajd9QMrnE24BvAKG3Tx41fCyv2/fTHL33Jxg+bFT0xdXRug2ryD/xLfKPX8m6DVXtS/UQwffNDRGXJkmSpE0YeNXyMrnEAQSzvadGOGwvwYZEVe9o1UwyucQrCFrF0+GvbqN9j1N54wEZdhi1R9SlxeqF1U8ya97F3P/s76od4s8E6717IyxLkiRJFQZeDRmZXOJYgs2VXjWIYV4ApgKXZ9PlNZEU1uAyucSnga8DobdP3mfHFF0Tp7L3uCOjL6yBPP7CXdwwJ8NTy3uquXwV8LFsuvyziMuSJEka8gy8GlIyucQw4KME56TuFuLSPuAHQCabLj9di9oaUSaXeC8QOoiNG7Un6QPP54jd30kV+1k1pT420PP0r/jLY1lWrAm9L9UG4G3ZdPmPNShNkiRpyDLwakjK5BI7EeyofBYwsp+X30pwrMzsmhfWQDK5xAjgcWDCQK8ZMWw0r93nk3Tu8/8YOXz72hXXwNasX87fF1xKYeHVrO8LtS/VfOCgbLq8vkalSZIkDTkGXg1pmVziYIJNmN68hT9eAHwRuDabLtf+SWkwlRbwvw309Yft9jbSB5xPYsy+NayqeTy/ch6z5l3Ew4tD7UvVkU2X76xVTZIkSUNNPQJv6HV/Ur1k0+VHgLdkcokk8FZgX4KjY+4CfjNU1uluxYAOyJ0w9nC6DprK/juFPvq4pe283YGcdtiPmbvkb8ycez7PvvjwQC47FDDwSpIkNREDrxpeNl0uAaW462gw223rD7cfuQtvOOA8jpzwXtoYVq+ams7E8a/njMl/pfTUT7hp/nRWrStv6+W2sUiSJDUZ3wlLLeiEAy9g8oT3G3YHYFjbCF6910c4ceJFcZciSZKkiPluWJKANidwJUmSWo6BV5IkSZLUkgy8kiRJkqSWZOCVJEmSJLUkA68kSZIkqSUZeCVJkiRJLcnAK0mSJElqSQZeSZIkSVJLMvBKkiRJklqSgVeSJEmS1JIMvJIkSZKklmTglSRJkiS1JAOvJEmSJKklGXglSZIkSS3JwCtJkiRJakkGXkmSJElSSzLwSpIkSZJakoFXkiRJktSSDLySJEmSpJZk4JUkSZIktSQDryRJkiSpJRl4JUmSJEktycArSZIkSWpJBl5JkiRJUksy8EqSJEmSWpKBV5IkSZLUkgy8kiRJkqSWZOCVJEmSJLUkA68kSZIkqSUZeCVJkiRJLcnAK0mSJElqSQZeSZIkSVJLMvBKkiRJklqSgVeSJEmS1JIMvJIkSZKklmTglSRJkiS1JAOvJEmSJKklGXglSZIkSS3JwCtJkiRJakkGXkmSJElSSzLwSpIkSZJakoFXkiRJktSSDLySJEmSpJZk4JVa0NLVT8ZdQtNZsmpB3CVIkiQpYgZeqQXdPH8619z3bp57sTfuUhreMyse5Kf3/id/X/CNuEuRJElSxEbEXYCkqrzQ3wseXfJX5s7+O6/e68O8fr8vMGbETvWoq1tjeQMAAAbdSURBVGmsXLuEm+ZPo7Top/T1rR/IJUtrXZMkSZKiZeCVmtOdA3nRhr51FBZ+j3uf+Q3H738ukye8j7a24bWuraFt6FtH8akfcvP8r7FqXagMW6pVTZIkSaqNtr6+vmgGamuLZBxJA5PJJW4FOsNcs/vYQznpoK9wwE6vrVFVjW3OkpuYOff8alq9Z2bT5ZNqUZMkSdJQFVUW3RbX8ErN66PAc2EueGbFg/zknndw3YMfoTyENmlavHIOv7z/ffz8vtOrCbvPAZ+sQVmSJEmqMWd4pSaWySUmAdcCrwp77fBhozh670/wun0/zajhY6MvrgGsXvcCf3/8UgoLv8eGvrXVDFEE3pdNlx+OuDRJkqQhrx4zvAZeqcllcokRwMeALwO7hL1+3KgJvPHADK/c/RSgNZ7jPjZw96JruOmxr7JibahJ8I2eAb4E/DCbLm+ItjpJkiSBgVdSCJlcYjxwIfApIPTOVHuPm0zXQVPZZ1wy8trqacHSO7hhbjeLlt9bzeVrgcuAqdl0ud+dsCVJklQ9A6+k0DK5xKEEoe3Eaq5/5e6n8MYDM4wbtWe0hdXY0tULmTXvYh549vpqh/gD8NlsuvxohGVJkiRpKwy8kqqWySXeDHwTmBT22pHDt+d1+36ao/f+BCOGjY6+uAit3bCS/ONXctsT32LdhtXVDPEA8JlsunxjxKVJkiRpGwy8kgYlk0uMAs4Czgd2DHt9Ysy+pA+8kMN2fUvktQ1eH/c9+ztmzb2YZWueqmaAJQQt4N/Npsvroq1NkiRJ/THwSopEJpfYHcgSHGUU+mHdf6fXctJBU9lj7Csir60aTy7/BzfMyfDEC8VqLl8PXA1ckE2XF0dbmSRJkgbKwCspUplc4kjgcuCYsNe2MYwjJ7yXNxxwHtuPDL0ZdCSWr3mGvzyWpefpXwFV/ez6C0H7clU7WkmSJCk6Bl5JNZHJJU4DpgP7h7129Igdef1+n+c1e32EYW0joy9uC9ZvWMMdT17NLf+/vbsHkaOM4zj+u3hRTxEnRjD4El8SC6NYBAQJBFEHUwWsLBRSKIgomPgS38YochlEUWInWChaiVVAQYxLIlhooVgIKoqnCYghGjOo0cTL3VlsY6HgTnbvNsPn0+7+n+epFr7M8OyBXflr7mibJWaSPFSXze4hHw0AgJYELzAyVa+YSrI9yaNJzhp0fuXUmmxaM521K24e+tn+6avD7+b9madz5Nj+NuO/J9mZ5KW6bFrdaAUAwGgIXmDkql5xcfpPe29vM792xU3ZtGY6K6fWDvVch45+mfdmduS75sM24wtJXk/yeF02B4d6MAAAhkLwAoum6hUb0v//3usGnV02MZnrLrwzN6x+OGdOnntS5/hz9kj27X8unx58IwsLc22W+CjJ/XXZtLrRCgCAxSF4gUVV9YplSbYkeTbJqkHnz1q+Mjde+ljWr7ojExOnDTQ7v3Ain/z4Wj7Y/0KOnWgG3TpJfkj/Fe0367IZ/a8nAAAnRfACS6LqFeckeSLJg0lOH3T+grOvzqY1O3PZuRv+1/e/PbIve2aeyk9/fD3oVklyLMnzSZ6ry+aPNgsAALD4BC+wpKpecUWSF5Pc2mZ+3fmbU17+VIozV//r57/8OZM9M0/n61/2tD3iW0m212VzoO0CAAAsDcELjIWqV9yU/v/3XjPo7OSyM3L9Rfdk4yXbsvy0/mXQx+d+y4cHduXjH17J/MJsmyN9lmRrXba70QoAgKUneIGxUfWKySR3J5lOct6g8+ecvio3X/5k5uZns/f7Okdnf25zjENJqiSv1mUz32YBAADGg+AFxk7VK1YkeSbJvUkGu5mqvdn0nzBP12Xz6yLtCQDACAleYGxVvWJdkl1JbhnxVu8kebAum29GvA8AAItI8AJjr+oVm9O/2OrKIS/9ZZIH6rJ5b8jrAgAwBhYjeJeNfAeg0+qyeTv9y6weSTKM142bJFuTXCt2AQA4GZ7wAkNT9YoLkuxMcleSQX8U5pK8kmRHXTaHh302AADGi1eagVNS1SvWJ3kpycb/ObI3yba6bD4f3akAABgnghc4ZVW9YiLJbUmeT7L6P772XfoXUu1etIMBADAWBC9wyqt6xVSS+5JsSXJVkvkkXyR5PcnLddkcX8LjAQCwRE6p4AUAAIBx4pZmAAAAOknwAgAA0EmCFwAAgE4SvAAAAHSS4AUAAKCTBC8AAACdJHgBAADoJMELAABAJwleAAAAOknwAgAA0EmCFwAAgE4SvAAAAHSS4AUAAKCTBC8AAACdJHgBAADoJMELAABAJwleAAAAOknwAgAA0EmCFwAAgE4SvAAAAHSS4AUAAKCTBC8AAACd9DeXj7Qrsd10EQAAAABJRU5ErkJggg==;" vertex="1" parent="1">
          <mxGeometry x="-111.13999999999999" y="614.52" width="172.29" height="110" as="geometry" />
        </mxCell>
        <mxCell id="xMjrJX3AMS1QwowmWkhw-17" value="" style="shape=curlyBracket;whiteSpace=wrap;html=1;rounded=1;flipH=1;labelPosition=right;verticalLabelPosition=middle;align=left;verticalAlign=middle;size=0.5;" vertex="1" parent="1">
          <mxGeometry x="90" y="600" width="20" height="320" as="geometry" />
        </mxCell>
        <mxCell id="xMjrJX3AMS1QwowmWkhw-47" style="edgeStyle=orthogonalEdgeStyle;rounded=0;orthogonalLoop=1;jettySize=auto;html=1;entryX=0.25;entryY=1;entryDx=0;entryDy=0;" edge="1" parent="1" source="xMjrJX3AMS1QwowmWkhw-48" target="xMjrJX3AMS1QwowmWkhw-28">
          <mxGeometry relative="1" as="geometry" />
        </mxCell>
        <mxCell id="xMjrJX3AMS1QwowmWkhw-24" value="" style="strokeWidth=2;html=1;shape=mxgraph.flowchart.database;whiteSpace=wrap;" vertex="1" parent="1">
          <mxGeometry x="402.74" y="830" width="90" height="60" as="geometry" />
        </mxCell>
        <mxCell id="xMjrJX3AMS1QwowmWkhw-54" style="edgeStyle=orthogonalEdgeStyle;rounded=0;orthogonalLoop=1;jettySize=auto;html=1;" edge="1" parent="1" source="xMjrJX3AMS1QwowmWkhw-28" target="xMjrJX3AMS1QwowmWkhw-44">
          <mxGeometry relative="1" as="geometry" />
        </mxCell>
        <mxCell id="xMjrJX3AMS1QwowmWkhw-68" value="" style="edgeStyle=orthogonalEdgeStyle;rounded=0;orthogonalLoop=1;jettySize=auto;html=1;" edge="1" parent="1" source="xMjrJX3AMS1QwowmWkhw-28" target="xMjrJX3AMS1QwowmWkhw-66">
          <mxGeometry relative="1" as="geometry" />
        </mxCell>
        <mxCell id="xMjrJX3AMS1QwowmWkhw-78" style="edgeStyle=orthogonalEdgeStyle;rounded=0;orthogonalLoop=1;jettySize=auto;html=1;" edge="1" parent="1" source="xMjrJX3AMS1QwowmWkhw-28" target="xMjrJX3AMS1QwowmWkhw-45">
          <mxGeometry relative="1" as="geometry" />
        </mxCell>
        <mxCell id="xMjrJX3AMS1QwowmWkhw-28" value="" style="rounded=0;whiteSpace=wrap;html=1;" vertex="1" parent="1">
          <mxGeometry x="352.74" y="520" width="190" height="140" as="geometry" />
        </mxCell>
        <mxCell id="xMjrJX3AMS1QwowmWkhw-7" value="" style="shape=image;imageAspect=0;aspect=fixed;verticalLabelPosition=bottom;verticalAlign=top;image=data:image/png,iVBORw0KGgoAAAANSUhEUgAAA7wAAAJiCAYAAADkAM7cAAAACXBIWXMAAAsTAAALEwEAmpwYAAAgAElEQVR4nOzdd5xU5aH/8c8WusAAIgiCFIktcXQcM+pojDqK6eXmGnOT6zW9GXtMdFAsO8YayzWmmnrT773R/JIbV8cWXePqujp2g3QRUJERpLO7vz/OGpHQZjizZ3b283698g/M85xvsgH2u+cpdV1dXUiSJEmSVGvqow4gSZIkSVIlWHglSZIkSTXJwitJkiRJqkkWXkmSJElSTbLwSpIkSZJqkoVXkiRJklSTLLySJEmSpJpk4ZUkSZIk1SQLryRJkiSpJll4JUmSJEk1ycIrSZIkSapJFl5JkiRJUk2y8EqSJEmSapKFV5IkSZJUkyy8kiRJkqSaZOGVJEmSJNUkC68kSZIkqSZZeCVJkiRJNcnCK0mSJEmqSRZeSZIkSVJNsvBKkiRJkmqShVeSJEmSVJMsvJIkSZKkmmThlSRJkiTVJAuvJEmSJKkmWXglSZIkSTXJwitJkiRJqkkWXkmSJElSTbLwSpIkSZJqkoVXkiRJklSTLLySJEmSpJpk4ZUkSZIk1SQLryRJkiSpJll4JUmSJEk1ycIrSZIkSapJFl5JkiRJUk2y8EqSJEmSalJjWBPV1dWFNZUkqZfJ5mMZ4GzgUCAGLAL+DFyZyxRnR5lNkiRVp66uroo/oy6sh1h4JanvyeZjewHXAB/cykc2ANcCuVymuKLHgkmSpKpn4ZUkVaVsPjYMyAJnAv12YMhLwHnAT3OZYmcls0mSpN7BwitJqirZfKweOAX4FrBbGVO0A6fnMsX7w8wlSZJ6HwuvJKlqZPOxI4DrgUQI0/0G+EYuU1wQwlySJKkXsvBKkiKXzccmAlcAJ4U89RrgSuCKXKa4JuS5JUlSlbPwSpIik83HBgPndv9nUAUftbD7Gb/NZYqV/5dPkiRVBQuvJKnHZfOxOoK3uVcAE3rw0S3AablMsb0HnylJkiJi4ZUk9ahsPnYwwT7ddKlj6+oaSIz9FO8Y/VHuWXAl84ot5UToAn4CnJ/LFJeWM4EkSeodLLySpB6RzcfGEJy8fApQ8l/ok2JpTpiSY7ch+/7j155d9n/cPmcmxbVlnUu1EmgCrstliuvLmUCSJFU3C68kqaKy+Vh/4AxgBjC01PGxgRM5fsrF7DPqvVv8/Y2d63hw0fe4f+H1rO9YVU7E2cBZuUzxj+UMliRJ1cvCK0mqmGw+9kHg28DUUsf2bxjCERNO57DxX6ahvv92P79y/RLumncZhaW/LSMpAHcAZ+YyxafKnUCSJFUXC68kKXTZfGx/4FrguNJH1xEfcyLHTsqyS/8xJY9etPJRmmdneWHlI6U/GjqA7wIzc5niq+VMIEmSqoeFV5IUmmw+NhK4GPgy0FDq+D2GJZk+pYnxQw/aySRdPPHS/5Kfewkr1y8pZ4LlwAXA93OZ4sadDCNJkiJi4ZUk7bRsPtYIfBG4FBhR6vih/ceSmXwh79jto5RxntVWbehYzf0v3MDfXriJjZ3rypniKYJlzneEFkqSJPUYC68kaadk87HjCJYv71/q2Mb6ARy2x1c4Yo/T6NcwOPxw3YprF5KfewlPv1L2uVS3AmfnMsXZIcaSJEkVZuGVJJUlm4/tBVwNfKic8fvt+kEyky8kNnBCuMG2Yf5rf+O22VmWrirrXKr1wHVAUy5TXBluMkmSVAkWXklSSbL52DAgS3DV0PaPT97MmCH7c8LUHHsOPyz0bDuii04eXfJL7pr3LVZvWFbOFEuB84Cf5TLFznDTSZKkMFl4JUk7JJuP1QOnAJcBJR+fPLjfKI6ZdB4Hjf0kddSHHa9k6zau4N4F1/DQizfT2bWhnCkeAU7LZYoPhBxNkiSFxMIrSdqubD6WBq4HDi51bH1dP9457rMcNfFsBjQOCz/cTlq2Zja3z7mQWa/my53iN8DXc5niCyHGkiRJIbDwSpK2KpuPTQCuBE4qZ/y0kRmOn3IJowZNDTdYBTy//E5unzOTV1bPKmf4GuAK4Mpcprgm3GSSJKlcFl5J0j/J5mODgHOBbwCDSh2/6+BpHD/lEvYacUzo2Sqps2sDD7/4E+5dcDVrN75WzhQLga8Dv8tlipX/F1aSJG2ThVeS9A/ZfKwOOBG4Cij5+OSBjcM5auI5HDLuM9TXNYaer6es3rCMu+dfQfviX9BFWedS3Q+cnssU20OOJkmSSmDhlSQBkM3HEgT7dI8odWxdXQOJsZ/i6D2/yeB+I8MPF5Glq56meXaWea+VdS5VF/BjIJvLFJeGm0ySJO0IC68k9XHZfGwMkAM+A5T8F+2kWJrpU5oYM2S/0LNVi2de+TN3zJ1Jce3CcoavBC4Frs9liuvDTSZJkrbFwitJfVQ2H+sPnA5cAAwtdXxs4ASOm3wx++76vtCzVaONnet4cNH3uG/hdWzoWF3OFM8DZ+Uyxf8XcjRJkrQVFl5J6oOy+dgHgWuAvUod269hMEdOOINDx3+JxvoB4YercivXL+HOuTkef+l35U5xO3BmLlN8OsRYkiRpCyy8ktSHZPOxPYEfAMeXM/6A3U7k2MlZhvYfG26wXmjRyke5bfb5LFpZ1rlUHcC1BPt7XeYsSVKFWHglqY/I5mN7E5wevGupY8cPTXDC1MsYP/Sg8IP1al088dL/kJ97KSvXLylngruA91h6JUmqDAuvJPUB3dcNtQKHlDJuaP+xZCZfwDt2+xfKOM+qz9jQsZr7F17P3xZ9l42d60od/q1cpnh+JXJJktTXWXglqQ/I5mOHATt8t05j/QAOG/9ljphwOv0aBlcwWW0prl1Afu4lPP1KSedSvQ6M8i2vJEnh64nC21jxJ0iStmeH79bdb9cPkJk8k9jACZXMU5NiAyfysX1/xLzXHqB59gyWrnpqR4btAhwAtFU2nSRJqgQLryRFb9z2PjBmyP6cMLWJPYcf3hN5atqk4YfzhYPuoH3JL7l7/uWs3rBse0O2+/WRJEnVqT7qAJKkbW/APWrPr/OFRN6yG6K6ugYO3v1kTk3+jWkjM9v7uP9WSpLUS/mPuCRVuT2HH06df11XxMDG4Yzb5cCoY0iSpArxOyhJkiRJUk2y8EqSJEmSapKFV5IkSZJUkyy8kiRJkqSaZOGVJEmSJNUkC68kSZIkqSZZeCVJkiRJNcnCK0mSJEmqSRZeSZIkSVJNsvBKkiRJkmqShVeSJEmSVJMsvJIkSZKkmmThlSRJkiTVJAuvJEmSJKkmWXglSZIkSTXJwitJkiRJqkkWXkmSJElSTbLwSpIkSZJqkoVXkiRJklSTLLySJEmSpJpk4ZUkSZIk1SQLryRJkiSpJll4JUmSJEk1ycIrSZIkSapJFl5JkiRJUk2y8EqSJEmSapKFV5IkSZJUkyy8kiRJkqSaZOGVJEmSJNUkC68kSZIkqSZZeCVJkiRJNcnCK0mSJEmqSRZeSZIkSVJNsvBKkiRJkmqShVeSJEmSVJMsvJIkSZKkmmThlSRJkiTVJAuvJEmSJKkmWXglSZIkSTXJwitJkiRJqkkWXkmSJElSTbLwSpIkSZJqUmPUAapRNh/bGzgS2A14EbgzlykujDaVJEmSJKkUFt5NZPOxvYArgY9s9lsd2XzsF0A2lym+2PPJJEmSJEmlsvAC2XxsGJAFzgT6beEjDcApwMey+dhlwLW5THFtzyWUJEmSJJWqT+/hzeZj9dl87DPALOBctlx2N7ULcBnwdDYf+2il80mSJEmSytdnC282HzsCeBi4mWCvbikmA/+TzcfuyuZjB4QeTpIkSZK00/rckuZsPjYRuAI4KYTpjgbas/nYD4ELcpniKyHMKUmSJEkKQZ8pvNl8bDDBsuVzgUEhTt0AfAk4KZuPXQR8J5cpbgxxfkmSJElSGWp+SXM2H6vL5mOfAJ4FZhJu2d1UDLgOeCKbj02v0DMk9UEvrHgY6Io6Rk1a37GKJauejDqGJEmqkJouvNl87GDgPuBXwIRSxtbVNTBh2DvLeew+wG3ZfOxP2XzsbeVMIEmbumveZdz82Ht4YeUjUUepIV08/tLvuLHtMJ5bdtv2PtzRE4kkSVL4anJJczYfG0NwmvKngbpSx0+KpTlhSo7dhuzLwhUPcdvsGSx+vVDqNO8Djs/mYzcAl+YyxddKnUBSn/Hy9j6waOWj/Pix93LAbv/KsZOzDO2/e0/kqkkvrHyE5tlZFq18dIeHVDKPJEmqnLqurnCWydXVldwrQ5fNx/oDZwAzgKGljo8NnMjxUy5mn1Hvfcuvd9FJYelvuHNujlUbyjqX6mWCe35vzmWKneVMIKl2ZfOxo4G7dvTz/RoGc8SE0zls/JdprB9QwWS1ZeX6xeTnNvHES/9dyrAVwOhcpri+QrEkSeqzwuqi21IzhTebj30Q+DYwtdSx/RuG/OObx4b6/lv93LqOldy34DoeXPR9Ors2lBPzMeD0XKb413IGS6pN2XysHmgDDiplXGzgBDKTZ7Lfrh+oTLAasbFzLX9b9D3uX3AdGzrXlDr8ylym+I1K5JIkqa+z8O6AbD62P3AtcFw54+NjPs6xk7Ls0n/MDo95dc1c7pg7k+eWNZfzSIDfAd/IZYrzyp1AUm3J5mPTgBZgdKlj9xx+OCdMbWLMkP3DD9bLPf3KH8nPvYTi2oXlDH8IeHcuUyy5JUuSpO2z8G5DNh8bCVwMfJngaqCS7DH0YKZPzTF+aEkvVN5izvJ7aZ4zg5dX/72c4WuBq4ArcpniqrJDSKoZ3feE/xw4qtSxddRz0NhPcsyk8xjcb1T44XqZJauepHn2Bcx/7YFyhncBPwDO9u9nSZIqx8K7Bdl8rBH4InApMKLU8UP7jyUz+ULesdtHKeM8q3/S2bWRRxb/jLvnX8najcVyplgEfAP4VS5T9N4RSWTzsY8DVwB7ljp2QOMwjpp4Du8c9xnq6/qFH67KrdrwCnfPu5xHl/ySLso6MuE+4LRcpvhYyNEkSdJmLLybyeZjxxEsXy553V5j/QAO2+MrHLHHafRrGBx6tjUbi9wz/wraFv+Mrq6ybrD4G3BGLlN8KORoknqhbD42CPg6wQ/ESv5La9SgqUyfeil7jTg29GzVqLNrAw+9+GPuXXA16zauKGeK+cC5uUzxdyFHkyRJW2Hh7ZbNx/YCrgY+VM74/Xb9IJnJFxIbWNJVvGV5efVzNM+ewZzyzqXqIljOeF4uU1wcbjJJvVE2H9uD4G3vv5Uzfq8RxzB96qWMGrRXuMGqyPPL76R59gUsWzO7nOGrgcuBq92rK0lSz+rzhTebjw0juM7nDGDrxydvxZgh+3PC1Bx7Dj8s9Gzb89yy27h9zkyWr51XzvDXgRxwbS5TXBdqMEm9UjYfOxy4Djik1LH1dY0cMu4zHDXxHAY2Dg8/XESWrXme5tkX8PzyHb7RaXO/IniruyjEWJIkaQf12cLbfUXHKcBlwI4fn9xtcL9RHDPpPA4a+0nqqA8tV6k6ujbw4KLvcd+C61jf8Xo5U8wFzsplireEHE1SL9T9d+PJwLeAsaWOH9xvJEfveR6JsZ+krq7ks/6qxtqNr3Hvgqt5+MUf09m1sZwpHia4Iu5vIUeTJEkl6JOFN5uPpYHrgYNLHVtf1493jvssR008mwGNw0LJE4ZV61/mznk5Hlv6G4JVyyW7i2B/7xPhJpPUG2XzsaHA+cBZlLX6ZT+mT80xafjhoWerpK6uDtqX/JK753+L1RteLWeKJcB5wM88JFCSpOj1qcLbvU/tKuCkcsZPG5nh+CmXMGrQ1J3KUUmLXy9w2+wZLFxR1rlUHQTXZFyQyxSXhZtMUm+UzcemANcAHy5n/L67vp/jJs8kNnBiuMEqYN5rD9A8O8vSVU+XM3w98G3gslymuDLcZJIkqVx9ovB2n0R6LsFJpINKHb/r4GkcP+US9hpxTFnP73ldPPnyLeTnXsKKdS+WM0ERmAnclMsUy1rLJ6m2ZPOxYwhWxry91LGN9QM4dPyXOHLCGRU5wX5nFdcu4I65F/PMK38qd4pbCO7TnRNiLEmSFIKaLrzZfKwOOJHgrW7JxycPbBzOURPP4ZBxn6G+rrHU4ZHb0LmGBxbeSMsL/8nGzrLOpXoGODOXKTaHHE1SL9R9R/nngSZgZKnjh/Yfy7GTZ3DAbh8jjDvKd9b6jlXcv/B6/rbou3R0ri9niicJ9umWfaKVJEmqrJotvNl8LEHwNuKI0p/TQGLspzh6z28yuF/J39NVndfWLSI/92KeevnWcqf4E8Hbi7+HGEtSL5X56N7HjT1gdfPEw1fW1ZVxZt/4oQlOmJpj/NBE+OF2SBePv/R77pybY+X6JeVM8CowA/ihq2AkSapuNVd4s/nYGILrdj5DGa8QJg0/nOlTc4wZsl/pAavcghWt3DY7y5LXyzqXagPBDxCacpnia+Emk9RbJOLxgcBjwN67jNnAvh9azq57l3e17AG7/SvHTp7B0P4lHwZdthdWPkLz7BksWtlezvAO4DvARblMcXm4ySRJUiXUTOHN5mP9gdOBC4Chpc4dGziB4yZfzL67vq/8gL1AF508tuQ33DUvx6oNr5QzxUsEbzZuzmWKneGmk1TtEvH4VcA5m/7abvuvYZ8PvsqQXUt/2dmvYTBHTjiDQ8d/icb6AWHF/Ccr1y/hzrlNPP7S78ud4naCk+yfCTGWJEmqsJoovNl87IMEp4juVeqcPfXNVrVZ17GS+xZcy4OLfkBn14ZypniU4Ju/v4YcTVKVSsTjhwIt8M+Xj9c3dLHnu1ayV+Y1GgeW/rOw4IeOF7Hvru8PIembNnauC+4qX3gdGzpWlzPFLIK7yss+0UqSJEWnVxfebD62P8E1EMeXM98Bu53IsZOzPbqcrtq8umYut8+5kL+/enu5U/wOODeXKc4PMZakKrPpUuZtfW7A0A6mvafIhHe+Xta5VHsOP5wTQtpW8swrf+KOuRdRXLuwnOErgEuBG3KZYlknWkmSpOj1ysKbzcdGAhcBXwEaSp0nODDlMsYPPSiUXLVg9vJ7uH3OBby8uqxzqdYCVwKX5zLF8jbzSapqiXj8WuCMHf38sD3Ws9+HXmXElNJPiK+jnsTubxwcOKrk8UtXPc1ts7PMf+2BkscCXcDNQDaXKb5UzgSSJKl69LrCm83HDiG483BcqeOH9h9LZvIFvGO3f6EarsSoNp1dG2lb/FPumX8VazcWy5niCeC9uUzxhZCjSYpQIh4/EriXUv/irIPd46vY+/1FBo0ofX/vgMZhvHvi1zlk3Kepr+u33c+v3rCMu+dfTvvi/6KLso4YuI/gmqFHyxksSZKqT68qvDPuHLEbwb2Ho0sZ11g/gMPGf5kjJpxOv4bBoWSpZWs2Frl73uU8suTndHV1lDr8aeDgXKa4tgLRJPWwRDw+GChQxhkJb2jo18Xko1cw5ZjXaOhX+r8HowbtxfSpl7DXiGO3+PudXRt4+MWfcM+Cq1i3cUU5ERcA5wK/y2WKlf9XUZIk9ZjeVnivIPimZIftt+sHyEyeSWzghFAy9CUvrXqW5jkzmFu8r9Sh5+QyxWsqkUlSz0rE49cRnIC/0wYO72CfDyxn94NWlTV+rxHHMn3qJYwa9Gb3fn75nTTPvpBla54vZ8o1wOXAVW7HkCSpNvW2wjuLHXzLMGbI/pwwtYk9hx8eyrP7smeX/YU75sxk+dodPpfqnlymeHQlM0mqvLKXMm/b/dOvWHBefWPXtUCy1MH1df1457jP8PbRH+We+Vfy/PI7y83xa4ID99yCIUlSDetthXcj2zmkanC/URy95zdJ7P4p6v755gyVqaNzPQ+++H3uW3At6zu2+3ZmSS5T3L0nckmqjDCWMm/BGiDeXijMyuZj9cDJBG9Yx4T4jO1pI9inW9aJVpIkqXfpicIbZuvcatmtr+vHoeO/yNeSD3Lw7idbdkPWUN+f9B5f49Tkg8THnMR2XvgM6qFYkirnMsItuwDntxcKswBymWJnLlP8KTANuAKo9NU/S4FPAynLriRJClOYb3i3OtGeww/nPw74QyjP0fZd/9DBvLZuqysBX8tlirGezCMpPIl4/GjgrpCnvR84qr1Q2OLxydl8bArBveofCvm564FrgVwuU1wZ8tySJKnK9cQb3saKP0GSFIpEPL4L8OOQp10DfGZrZRcglynOAT6czccyBAX17SE891bgrO65JUmSKsK1xZLUe1wBTAp5zn8sZd6eXKaYBw4CTgVeLfN5TwKZXKb4YcuuJEmqNAuvJPUC3UuZvxLytPcDN5QyIJcpbsxlit8h2N/7n8COXgj+KvBV4KBcplj28c2SJEmlcEmzJFW5Ci1lXgWcvK2lzNuSyxRfBU7L5mPfJ9jfe/xWPtoB3ATMzGWKy8tKKkmSVCYLryRVv0osZf5Ge6Ewd2cnyWWKTwHTs/nY+4AzgHcB/YHlwJ8JDqR6dmefI0mSVA4LryRVsUQ8fgzhL2W+h+Cta2hymeKfCQou2XxscC5TXB3m/JIkSeVwD68kValEPD4M+GnI064iOJW5YvcAWHYlSVK1sPBKUvW6BpgQ8pyhLGWWJEnqDSy8klSFEvH48cDnQp72HkJeyixJklTNLLySVGW6lzL/KORpK76UWZIkqdpYeCWp+lRiKfOZLmWWJEl9jYVXkqpIhZYy30H4b4wlSZKqnoVXkqpEIh4fTvjFdCXwOZcyS5KkvsjCK0nV43rCX8p8dnuhsCDkOSVJknoFC68kVYFEPP4+4D9CntalzJIkqU+z8EpSxBLxeAz4QcjTupRZkiT1eRZeSYredcC4kOc8y6XMkiSpr7PwSlKEKrSU+f/aCwWXMkuSpD7PwitJEanQUubXgC+EPKckSVKvZOGVpOjcQPhLmc9oLxQWhTynJElSr2ThlaQIJOLxDwP/HvK0/9deKPw05DklSZJ6LQuvJPWwRDw+CvheyNO6lFmSJGkzFl5J6nk3AGNCntOlzJIkSZux8EpSD+peyvxvIU/7J5cyS5Ik/TMLryT1kAotZX4V+HzIc0qSJNUEC68k9ZxKLGU+rb1QWBLynJIkSTXBwitJPSARj/8L4S9lvrW9UPhlyHNKkiTVDAuvJFVYIh4fTWWWMn8p5DklSZJqioVXkirvJmDXkOd0KbMkSdJ2WHglqYIS8fi/Ah8LeVqXMkuS/iGdStZFnUGqVhZeSaqQ7qXMN4U87Su4lFmSBKRTyTPTqeQqYEM6lfxVOpWcHHUmqdpYeCWpciqxlPkrLmWWJKVTyb2BbwODgQbgE8Cz6VTy6nQqGYs0nFRFLLySVAEVWsr83+2Fwu9DnlOS1Dvtu4Vf6w+cDTyfTiW/lk4l+/VwJqnqWHglKWSJeHwslVnK/JWQ55Qk1aZRBHe/P5VOJT8cdRgpShZeSQrf96jMUuaXQ55TklTbpgF/SKeS96ZTyWTUYaQoWHglKUSJePyTwIdCntalzJKknfEu4OF0Kvlf6VRyQtRhpJ5k4ZWkkHQvZb4h5GldyixJCssngb+nU8nL0qnksKjDSD3BwitJ4fkeMDLkOb/oUmZJUogGAucBs9Kp5JfSqWRj1IGkSrLwSlIIKrSU+VfthcL/hjynJEkAuwHfBR5Pp5LvizqMVCkWXknaSRVayrwUOC3kOSVJ2ty+wJ/SqWQ+nUrGow4jhc3CK0k770eEv5T5S+2FwrKQ55QkaWuOBR5Np5I/SaeS46IOI4XFwitJOyERj58ChL0U7FfthcItIc8pSdL21AGnEOzvvTidSu4ScR5pp1l4JalMiXh8PHBdyNO6lFmSFLXBwIUExfez6VTSzqBey//zSlL5fgAMD3lOlzJLkqrFWIJtO4+lU8lDog4jlcPCK0ll6F7K/N6Qp/25S5klSVXoHcC96VTynVEHkUpl4ZWkElVoKfOLwOkhzylJUlgGATdGHUIqlYW3j+lYXzckEY8fFHUOqZerxFLmL7QXCsWQ55QkKUyHpFPJqVGHkErRGHUA9ayuzrpGoD0Rj/8WuKC9UJgVdSbVrmw+Nohg2e/7gYMI9gIBLAbmAncD/5PLFF+MJmHpEvH45wl/KfPP2guFP4c8pyRJlbAXMDvqENKOsvD2XR8HPpaIx38CXNJeKCyMOpBqRzYf6w98FTiXN0vupsYABwIfAb6dzcd+CczIZYov9FzK0iXi8YnANSFP+yJwRshzSpJUKYOiDiCVwiXNfVsD8Dng74l4/NuJeHzXqAOp98vmYx8Enga+zZbL7uYagf8A/p7Nx2Z2vxWuOol4vI7gpMqhIU/tUmZJkqQKsfAKYCBwJjAnEY9flIjHvWRcJcvmY/tn87HbgVuBcvb3DAIuAp7L5mMfz+ZjdWHmC8HngONCntOlzJIkSRXUI4V37cbX6Oja0BOP6vPWd6xiY+facocPBWYC8xLx+JmJeLwq37SpumTzsZHZfOw/gQLhFMIJwG+Av2bzsUQI8+20Ci1lXoinMkuSJFVUjxTepaue4ruPHMlzy5p74nF9VBePv/Q7bmw7jFUbXtnZyUYRLEd9LhGPfzYRj7vXW/8km481ZvOxrwLPA6cSLJEP0xFAWzYf+1E2HxsT8tw7rIJLmT/XXii8FvKckiRJ2kSYhXfjtn7z1TVz+e3TJ/PLJz/Oy6ufC/GxemHlI9z82Hu45bmv8fr6pdv87LrXS/qSTyD4Rv+pRDx+Yvc3/hLZfOw44DGC+/hGVPBRdcBngVnZfOzr3Ydh9bRKLGX+UXuhcHvIc0qSJGkzYRbe9h350Ozl9/C99qO5bXaWNRs9p2VnrFy/mD8891V+/Nh7WbTy0R0as2LhgHIe9TbgtwTXGZ1QzgSqDdl8bK9sPnYLcDuwfw8+eihwJfBU96FYPSIRj08Grg152oXA2SHPKUmSpC0Is/DevKMf7Orq4KEXf8SND6d4+MUf09m1zZfD2szGzrXct/A6bnz4MJ546b9LGruobcjOPPpA4C+JePzeRDx++M5MpN4lm48Ny+ZjVwBPAR+KMMpewK3ZfKw5m49VtHB3r2j4MbBTf2i24HPthRxWJpcAACAASURBVMKKkOeUJEnSFoRZeH8E/KWUAWs2FvnL7PP4waPHMqf41xCj1K6nX/kjNz1yBHfP+xYbOteUNHbxo0N4+dlQzqF6F9CSiMf/XyIej4cxoapTNh+rz+Zjnwb+TnCnbhRLirfkeKCQzcduyOZjIyv0jK8A7w55TpcyS5Ik9aDQCm8uU+wE/oXgjUhJXlr1LP/1xL/y26f/g+Vr54cVqaYsWfUkP3v8I/z3M5+nuHZhaYO7YN5fh1H49aiwY70feDQRj/8qEY/vFfbkilY2HzsceIjgz3Rkh0ZtQwPwNYL9vV/N5mOhHa7WvZT5irDm6+ZSZkmSpB5W19XVFc5EdW+eZ5TNx44CrgdKfvvXUNePQ8d/iSMnnkH/Bq+DXbXhFe6edzmPLvklXXSWPH75nAE8fctIViyq+Iu5DoK3/Be3FwqLK/0wVU42H9sDuAo4KeosJXoSOCOXKd65M5N0L2W+i/Df7h7TXijcHfKckqQ+Kp1Kfhj4QwSP/khLa9stETxXNSisLrotFSm8ECyFBD4PXAqMLnW+If1Hk5k0gwPGnEhdz9yeVFU6uzbw0Is3c++Ca1i3sfTtfmuWN/Lcn0aw+LHBFUi3TWuB/wSuaC8UlvX0w1W+bD42iGDZ8jeA3nwH863AWblMcU45gxPx+FcJTp8O003thcJXQ55TktSHWXhVC3p14X1DNh8bDswkuKezX6nzjtvlQKZPbWLCsEN2LmAvMuvVPLfPuZBla2aXPLZjfR1z7hrO3HuG0bEh0luEXgOuAa5tLxRejzKIti2bj9UBJxK81Z0QcZywrCc4XTmXyxRX7uigRDw+BXiccA+qmge8wz8HkqQwWXhVC2qi8L4hm4/tTfAN6HvKmf/toz9CZvKFDBswrpzhvcKyNc/TPPsCnl9+V1njVy9rvPuh740ZtebVxgNCjrYzXgZywHfbC4X1UYfRW2XzsQTB9oMjos5SIUuBbwI/7z5nYKsS8Xg9cC/h/2/hUmZJUugsvKoFPVF4e2ytcC5TfC6XKb4XeC/wXKnjn3z5D9zYdhh/XXANGzvXhh8wQms3vkbznAv47iNHlVt2HwYOv/bjrxyz5tXGA4GPAc+EGrJ8o4HrgOcT8fgpiXg8tIOFVL5sPjYmm4/9CGijdssuBIdt/QRo7T6Ea1tOI/z/LW6y7EqSJEWnx97wbiqbj/UDvgpcBAwv9VnDB4wnM3km+4/+IBDpst2d0tXVQfuSX3L3/G+xesOr5UyxGDgf+FkuU3zLF7K7WH4KuITqWqb6DHAB8L/thULlf6Sjt8jmY/2B0wm+BkMjjhOFXwPn5jLFFzb9xUQ8Pg0oEO7e5Xm4lFmSVCG+4VUtqKklzVuSzcdGExxq9XnKeNs8cfihTJ9yKbvvUk0reHfMvNceoHl2lqWrni5n+DqC5eGXbW9/YiIe709wn+j5lHF4WAU9ApzXXijcEXWQviKbj32QYF91X79Cag1wOXBVLlNcU6GlzF3Asb7dlSRVioVXtaDmC+8bsvnYAcANwFFlPJmDxv4bx+x5HkP6V1Of27Li2gXcMfdinnnlT+VOcQtwdqkn0Cbi8V2AMwnuAS35rXoF3UNQfB+MOkityuZj+wPfBo6POkuVWQCce9s5e47r6uLbIc99fXuhcEbIc0qS9A8WXtWCPlN435DNx/4FuBqYVOrYAQ1DOXLimaTGf4GGupIPg6649R2ruH/h9fxt0Xfp6Czr7KYngdNzmWJ5J1p1S8TjowiunfkaMHBn5grZrcCM9kLhyaiD1IpsPjYCuJjgDX9DxHGq1vK5AzqfvmVk/YoXQrur+nkg3l4orA5rQkmSNmfhVS3oc4UXIJuPDQTOIliCW/LVICMHTeH4KRfztpHV8jKri8df+j13zs2xcv2SciZ4FZgB/DCXKW4MK1UiHh8HXAh8juopQ13AL4GZ7YVCWXeoCrL5WCPwBYLtAiMjjvMW/Rt2YWj/sSxb83zUUd6qCxY+tAuz/hJj3cqd+uPQBRzVXijcF1IySZK2yMKrWtAnC+8bsvnYOIJ9dv9ezvipI97N8VMuZfTgt4WaqxQvrHyE5tkzWLSyvZzhHcB3gItymeLycJO9KRGP70VwsNVJVM8JYBuAHwJN7YXC4qjD9CbZfOxYglOx3x51lreq46Cxn+CYPc9nUL8RPLL459w9/wrWbixGHewtNq6t5/n8cOb/dSidHWX9cXApsySpR1h4VQv6dOF9QzYfSxHcE5oqdWxdXQOH7P4Z3r3nOQxsjIUfbitWrl/MnXNzPP7S78ud4nbgjFym2GNXCyXi8TjBfbnv66ln7oA1BHu7L28vFKqrGVWZbD42hWCf7oeizrK5icNSTJ/a9E+Hy63ZWOSe+VfStvindHV1RJRuy1a90sizt47kpadLOrTZpcySpB5j4VUtsPB2y+ZjdQRX7FwOjCt1/KDGGEdPOo/E2E9RX1e5a2A3dq7jb4u+y/0Lr2dDR1nf884CzsplimWfaLWzEvF4GrgMeFdUGbbgNeBKgrdnq6IOU02y+dhQIEtwIFlom1DDMGzAOI6bfNF2rw97efVzNM+5gDnL7+25cDvolecG8cytI3h96XbPBXApsySpR1l4VQssvJvJ5mNDCPb2nkUZBy7tNmQfpk/JMTkW5u0jgadf+X/k515Mce3CcoavINhveUMuUyzrRKuwJeLxE4BvAQdGnWUTSwjeQv+gvVCoiv+dopLNx+qBkwl+CDQm4jhv0Vg/kPSEr5He41Qa63f8j+lzy5q5fc6FLF87r3LhytDVCQtahjKrOcaGNVu9Pe269kLhzJ7MJUnq2yy8qgUW3q3I5mOTCd74fayc8fuMeg/HTbmYEQP33OksS1c9zW2zs8x/7YFyhncBNwPZXKb40k6HCVkiHq8D/hVoAqZFHGdT84CLgF+0Fwqd0Ubpedl87HCCZf7JqLNsbv/RH+a4yTMZNqDkhRgAdHRtoHXR9/nrgmtZ3/F6yOl2zobV9fz9LzEWPjiUrrf+v+454MD2QmFtNMkkSX2RhVe1wMK7Hdl87N0E3/gfsJ2P/pOGun4cuseXOXLC6fRv2KXkZ6/esIy7519O++L/oouyOtd9BNcMPVrO4J6UiMcbgVMITnWeEG2at3iG4I3/re2FQuX/tEQsm4/tQfCDnk9EnWVzu+8S54SpTUwY9s5Q5lu1/mXunHcZjy39NcHPharHyiX9eOYPI1n2/ECATiDtPdKSpJ5m4VUtsPDugGw+1kBwtU4TsGup43fpvxvHTspywJgTqWOryxX/obNrAw+/+BPuWXAV6zauKD0wzAe+kcsUf1vO4Cgl4vFBwJcI9oyOijjOplqB89sLhZ26o7haZfOxQcDXgW8CJZ2iVGlD+o/m2EnnEx9z0g79+SnV4tcL3DZ7BgtXPBT63Dtr6ZODmXPXsB/e9cdnvxB1FklS32PhVS2w8JYgm4/FgJnAqUDJJ1ONG3og06c0MWHYIVv9zPPL76R59oXl3iG6hmC/5VW5THFNORNUi0Q8vgtwDnA2UPrr8cq5k6D4Vl87KkP3YW0nErzVnRhxnLdoqOtHavwXOXLiGQxoGFrhp3Xx5Mu3kJ97CSvWvVjhZ5VsPcHp2JflMsWVUYeRJPUdFl7VAgtvGbL52N4E95CeUM74t+/2UTKTLnjLHsRla56nefaFPL/8znJj/Ro4N5cpvlDuBNUoEY/vSrCk+MuUcYhYBd0CZNsLhaejDlKubD52EMFy/SOjzrK5vUedwHGTL2LkoMk9+twNnWt4YOGNtLxwIxs7q2677BLgPODnuUyxz+0rlyT1PAuvaoGFdydk87H3EBTft5U6tl/9INITvkZi7Kd44IXv8NCLN9PZtbGcGG0E+3TLOtGqt0jE4xMI9vd+GmiIOM4bOoFfADPbC4X5UYfZUdl8bDeCk6g/y7bu8onA6MF7M33KpUwZcVSkOV5bt4j83Et46uWq/Lf2YYI7tGv6z7wkKXoWXtUCC+9OyuZj/QiWOM8Ehpc+Qx1lHpizlGC/ZZ9625OIx6cR7KU+Meosm9gAfA+4rL1QWBJ1mK3J5mP9gdOAC4BhEcd5i4GNMY7e8xscvPvJFb3HulQLVrTSPHsGi19/POooW/Irgr36NbWqQ5JUPSy8qgUW3pBk87HRBEXsc1CBk3XetB64Fsj15f18iXj8IOAyylxWXiGrCJYIX9VeKBSjDrOpbD72foJ9oNV09RN1dQ0kdz+Fd+95LoMaY1HH2aIuOiks/Q13zs2xasMrUcfZ3GqCfftX9/Z9+5Kk6mPhVS2w8IYsm4/FCUpPJdZk3gqclcsU51Rg7l4pEY+/i6D4pqPOsonlwBXADe2FQqQlJJuP7Uuw7P74KHNsyZQRRzF9yqWMHrx31FF2yLqOldy34DoeXPR9Ors2RB1nc/MJ9vD/LuogkqTaYeFVLbDwVkg2H/sYcBUwKYTpniTYs1f2iVa1LhGPv49gX2o86iybWAJcAtzcXiis78kHZ/OxEcBFwFepnj3PAIwYOInjp1zC3qOmRx2lLK+umcsdc2fy3LLmqKNsyX3AablM8bGog0iSej8Lr2qBhbeCsvnYQIJrdc4DhpQxxasE+y1/kMsUyzrRqi9JxOP1wMeBS4GpEcfZ1GyCPd6/bi8UKrrfOpuPNQKfJ1heP7KSzypV/4ZdOHLiGRw6/ks01PWLOs5Om7P8XprnzODl1X+POsrmuoAfATNymeJLUYeRJPVeFl7VAgtvD8jmY+OBbwH/voNDOoCbgJm5THF5xYLVqEQ83khwAvGFwLjtfLwnPQHMaC8U/liJybP52DEEy+nfXon5y1fHgWNO4thJWYb0Hx11mFB1dm3kkcU/4+75V7J2Y1Vt2wZYQbDC4D9zmWKPrjCQJNUGC69qgYW3B2XzsUMJ9lOmtvGx24Ezc5lir73ftVok4vFBBEt6vwmMijjOph4EzmsvFO4JY7JsPjYFuAb4cBjzhWnCsHdywtQmdt+lmlaah2/NxiJ3z7ucR5b8nK6ujqjjbG4Wwd8pf446iCSpd7HwqhZYeHtYNh+rAz4JnMNb95s+BFyayxT/FEmwGpaIx2PAWd3/KWdpeaXcTlB828sZnM3HhgLnE/z36h9msJ01bMA4MpMv5O2jP0yVXfVbUS+tepbb51zAnOJfo46yJc0ExfeZqINIknoHC69qgYU3Qtl8bCSwK7C4L18x1FMS8fhoIAt8meoqiP8NXNBeKDy7Ix/u/qHJfxAskx9byWClaqwfSHqPUzl8wqn0qx8UdZzIPLvsL9wx5yKWr50XdZTNdQA3Ahe7XULlSqeSuwErWlrb1kadRVJlWXhVCyy86nMS8fhEghOMT6Z6TjDuAH4OXNReKCzY2oey+dhhBPt0D+mpYDtq/9EfJjP5QoYPGB91lKrQ0bmeB1/8PvctuI71Ha9HHWdzywgOxPuhB+JpR6RTyRhwLsFd86OBTuAB4LKW1ra/RJlNO6epeVo/4ESCbTGjCa45+/WM6bNuizSYqoKFtzqlU8l3EVzJ2R94FPi/ltY2/z3fCguv+qxEPL4vwYnO/xJ1lk2sB74LNLUXCq+88YvdB59dCfxbVMG2ZvddDmD61CYmDtvW1vS+6/X1L3HXvMt4bOlvCA5QripPEFx5dlfUQVSd0qlkA8HJ75cSrEjaktuAM1pa257rsWAKRVPztPcA3wb22cJv3wecPmP6rEd7NpXCkk4ljwe+AhxI8P1FC3B9S2vbDl9dZ+GtLulU8giC84AO3uy35gNfb2lt+33Pp6p+Fl71eYl4/GDgMuD4qLNsYhVwzYTU6ze9/cRlXyA4eGtwxJneYki/XTl2cpb4mJOooz7qOFXvxdcfo3n2DBaueDjqKFvyB+CcXKY4J+ogqh7pVPIYgm+s3rEDH98IfAe4uKW1zeXyVa6pedreBEX3vdv5aBdwM5CdMX2W15z1EulUcl+Cr+8JW/jtN76mM1pa25buwFwW3iqQTiUnELz4OGk7H70XOK2lte3xyqfqPSy8UrdEPP5ugn2xh0YcBYDdD1zNPh9Y3jkwtrGq2mR9XT8OHf9Fjpx4BgMahkYdp5fp4smXbyE/9xJWrHsx6jCbWwdcC+RymWLVrcFWz0mnklOAq4GPlDH8FYIr4X7o8rrq09Q8bTjBvfCnAqVciL6C4C3/DTOmz/KasyqVTiVHEHx9vwo0bufjKwm+pte3tLZt9Wtq4Y1WOpUcBHyDYEvJjh6O0gn8gOCHGssqla03sfBKm0nE4x8CmojoPtth49ez34dfZcSUdVE8fpv2HjWd4yZfzMhBk6OO0qtt6FzDAwtvpOWF/2RjZ9V9nRcD5wE/z2WKVbcGW5WTTiWHEhzsdyY7f7DfEwTLnF0uXwWamqfV8+bS9J25EH0WcNaM6bO8UaKKdG89+ALB3etb23qwNbOBs1pa2/64lbktvBFIp5J1wMcJ3upOKHOaIsEPQG7q6z+AtPBKW5CIx+sJ9steBEztiWc2DOhi7/ctZ8/DV1bdTT6jB7+N46dcytQR7446Sk15bd0i8nMv5qmXb406ypY8BHw2lyk+GXUQVVY6laznzZPfx4Q8/a0E30y7XD4iTc3TjiI47DDMC9FvB86YMX2W15xFLJ1KHk3w9d2RrQfbkif4IdVTm81v4e1h6VQyAdxAcChVGJ4m+NreEdJ8vY6FV9qGRDzeH/gswRK9il0BNHjURpKff4khozdU6hFlGdgY4917fp3k7qdQX7e91VEq14IVrdw2O8uS15+IOsrm1gGfzmWKv446iCpjGweghGl99zNyLa1tKyr4HG2iqXnaJOAq4GMVekQHcBMwc8b0We7b7mHpVHIycA3lbT3Ymg7g+8AFLa1tr3Y/5xyC/x/1tD5XeNOp5BiCM2U+TWVeffTZH0BaeKUdkIjHBwGnE+yjiIU596CRGzn01CUMHN4R5rQ7pa6ugYPHnszRk77JoMZQ/+tqK7ro5LElv+GueTlWbXhl+wN6TifwyVym+Juogyg86VRyInAF2z8AJUxLgfOBn7a0tnX24HP7lKbmaUMItiWcDQzsgUe+SnDN2Q9mTJ/Vp5dN9oR0KrkLb249GFChxywn+CHVBoI/s7tU6Dnb0mcKbzqV7A+cAcwAKn04ynqCA81yLa1tfea8DguvVIJEPB4Dvk5Qfofs7Hz1DV0c+rUlDJ9QPWeATIm9i+OnXMpuQ7Z0S4UqbV3HSv664Nu0LvohnV1V88Z/PZDKZYo7fJWFqlM6lRzMmweg9EQZ2pJ24PSW1rb7I3p+TWpqnlYHfJLgBxnjIojwJMEy5zsjeHbN697TeTLB1oPdI47TE/pE4U2nkh8kKKA9sn1uE4sJbgD5RUtrW82f12HhlcqQiMfHEvzU80uUdtLlW0w99jXe9t5iaLl2xoiBkzhuykXsM+o9UUcR8OqaOdw+ZyZ/f/X2qKO8oY2g9Ppmrhfq/mb5EwQHoIyPOM4bfkdwb+SCqIP0dk3N095JsOevGi5Ev5XgYKs+t2yyUtKp5KEEX99Dos7Sg2q68KZTyf0JbkY4LuIorQTXGD0UcY6KsvBKOyERj08iONjqZErcb9E4oJOjL1xE48Bo+0P/hl04cuIZHDruizTU7+zBrArb7OV3c/ucC3l59d+jjgLw/lym+OeoQ6g06VTynQTLEw+LOssWrCXYH3hFS2vbqqjD9DZNzdPGEbzxOznqLJtZT/c1ZzOmz1oZdZjeKp1Kjid4Y//JqLNEoCYLbzqVHAlcDHwZaIg4zqZ+BnyzpbVtSdRBKsHCK4UgEY/vB+SAD+/omPGHvM4BJ0V5PVodB445iWMmnc8u/XeLMIe2p7NrI22Lf8I9869m7cZIVwT8MZcpfijKANpx6VRyHMEBKP8RdZYdsIhgqfWv+sLyup3V1DxtIMEeziwhbK+poKUEyyZ/PmP6LFeH7KDuu1fPJtiLPTjiOFGpqcKbTiUbgS8SXA02IuI4W/M6wbWc127rbubeyMIrhSgRj7+T4Kftx2zvswed/DJj46srH2oLJgw7hOlTmxi3y4GRPF/lWbNhOXfPv4JHlvycrq5IDjlbA8RymWJN/UNYa9Kp5EDgLIJtF9VchrbkQYL9vTW9vG5nNDVP+yjB6byTIo5Sijbg9BnTZz0QdZBql04lTyTYerBn1FkiVjOFN51KHkew4mH/qLPsoG3ezdwbWXilCkjE48cSvFl559Y+c9T5ixg8qmcPtBw2YByZyRfy9tEfpuou+9UOe2nVMzTPuYC5xfuiePxBHl5VvdKp5McIlghPijjKzvoFwfK6F6MOUi2amqcdQHDf6rsjjrIzfg2cO2P6rBeiDlJt0qnkgQT7dI+MOkuV6PWFN51K7gVcDfTWlVG3E9zf2+vv27bwShWSiMfrCP6SuwzYd/PfP/5bC2jo3zMr9xrrB5De42scPuFU+tUP6pFnqvKeXfYX7pgzk+Vr5/fkY0/IZYrNPflAbV/3N8vXAUdFnSVEqwhWzHy7pbVtTdRhotLUPG00cAnwBaA+4jhhWANcDlw1Y/qsPvt1fUM6ldyNYBnp5/An0ZvqtYU3nUoOI9hucAbQ2w9H6QBuBC5qaW2rjlNWy2DhlSosEY/XA/9OcEjBP5Yoveeanikp+43+EMdNnsnwAdVyMKvC1NG5ngdf/D73LbiW9R09cubPR3KZYq/8JqQWdX+zfCnweWr3m+V5wLktrW2/jzpIT2pqntYP+Cowk5Dvf68SCwmu+fvdjOmz+ty+7e67V78GXAgMizhONep1hTedStYDpxC86BgTbZrQvUJwT/CPWlrbItlTtTN6ovDWwk8jpbK1Fwqd7YXCz4C3AacBPXIC3thd3sEpB9zKx/b5gWW3hjXU9ye9x9c4Nfkg8TEnUbudR5tKp5L906nkOcAsgjd/tfyFnwT8Lp1K3tv9JrvmNTVPew/wOMG+v1osuwATgN8Af21qnpaIOkxPSqeS7yO4t/hqLLs1IZ1KpoGHgJupvbILsCvwPeCRdCr5rqjDVCPf8EqbSMTjuwCnveea+blKzD+k364cM+l8Dhz7Cer8eVOf8+Lrj3Hb7CwvrGir1CN8wxuxdCr5AYJDi6ZFnSUCXQTfUGZbWtteijpM2Jqap+0NfBt4b9RZelgX8GMgO2P6rKVRh6mUdCq5L8EPMaZHnaUX6BVveNOp5ASCQ8ZOijpLD+tV96i7pFmKSDYfC/VPX31dP1LjP8+7Jp7FgIahYU6tXqeLJ1++hTvmXMzK9YvDntzCG5F0Krk/QRk6PuosVWAFwb7H62vh+oym5mnDCZYunwr0izhOlFYSLNG/fsb0Wb3+6/qGdCo5gje/vtV092o1q+rC23111LkE16n11cNR1hLcE31FtZ+zYOGVIhJm4Z0US/P+va5m5KApYU2pGrChcw33LbiW+xdeH+a0Ft4elk4lRxKcAfBl/GZ5c88DZ/fW6zOamqfVE+y/vhQYHXGcavI8cPaM6bN65df1Dd13r77x9R0VcZzepioLbzqVrANOJDgNf0LEcarFP/bjV+s96u7hlWpAfLcTLbv6J/3qB3H4Hl+NOobKlE4lG9Op5NcIvvn3zdCW7QXcmk4lb+9+A95rNDVPOwpoJ9gXZ9l9q72AW5uapzU3NU/rVV/XN6RTyWMIvr43YdmtCelUMgH8lWDvuWX3TW/sx+8z5yxsSWPUASRJ6k3SqeR0guXL+0WdpZc4DiikU8nvAxe0tLa9GnWgrWlqnjaJ4O3QxyKO0hscDxSamqfdBFw0Y/qsqv26viGdSk4hOIzqI1FnUTjSqeQYIAd8hto+IHBnHQm0p1PJHwIzWlrbXo46UE+y8EqStAPSqeTbCL5Z/kDUWXqhBuArwCfSqeRFwE0trW0bo430pqbmaUOA84CzgYERx+lNGgiu7/lkU/O0C4Hvz5g+q2q+rm9Ip5JDgfOBM4EBEcdRCLqvjjoduADwcJQdU0dwc8DHu/8evrGa/h6uJJc0S5K0DelUsiGdSl5CcFWJZXfnjACuBx7vXoIYuabmaZ8E/g5kseyWayRwI/BoU/O0d0ec5R/SqWRdOpU8BXgO+CaW3ZrQfRr+UwQnMFt2Szec4ETyJ7pXLNU8C68kSdt2HcFbhL58Qm/Y9gXuTqeS+0QZoql52neA/wLGRZmjhrwduLupedqpUQdJp5IHA63AT4DdI46jEHT/8PFnwB8J9pJr5+wD3JZOJb/bfeBXzbLwSpK0FelUcjTBoVQK3zCCvXeRaGqe9hGCZdYK33VNzdMi2+OeTiUzQAtwSFQZVBEXAidHHaIGfYlguX/NsvBKkrR1B0QdoMZ9oPt6mCh8OaLn9gUNBHsFe1w6lewH/BSXL9eU7rt1T4s6Rw07J8K/iyvOwitJ0tYNizpAjesHjI3o2e+I6Ll9RVRveDPA+IiercrZB4hFHaKG7Q5MjDpEpVh4JUlSlKJ6qzAoouf2Ff0jeu7UiJ6ryhoedYA+oGZ/wGvhlSRJUq2o2WWZkspj4ZUkSZIk1SQLryRJkiSpJll4JUmSJEk1ycIrSZIkSapJFl5Jknq//wWmE1zHsh/wVWBhpIkk7YiHgBejDqHQdADfB44HPgc8H20cgSfZSZLUmz0MnNHS2vbAJr/2IvBMOpX8CXAu8A28gkeqNk8Cp7e0tt2VTiUHAmcB5wNDoo2lnZAHzmppbXvijV9Ip5K/AE4HZlDD1/5UO9/wSpLU+ywGPg0culnZ/YeW1rY1La1tFwNvA37dk+EkbdWrwFeAg1pa2+4CaGltW9vS2nYZsDfwiyjDqSyzgY+0tLYdt2nZBWhpbVvf0tp2FcHfwz8CuqII2NdZeCVJ6j3WAZcDe7e0tv20pbWtc3sDWlrbXmhpbfs3IE3wRlhSz+sAbgD2amlt+25La9vGzT/Q0tq2qKW17WTgMKC1pwOqZCuBbwL7t7S23bKtD7a0ti1taW37PHAwcF9PhNObLLyS/j97dx7nVl3vepCziwAAIABJREFUf/w13aEUUtayQ7EICI400QFHEDQwyHW/srhv16LoD3EFzLDaaHtd2Fyget1FBb2K26U0CgoBAklx2GFoSwuFspSmtKV75/fHSbXUtjMnc5KTZF7Px6N/0OZ8z6fDnGne+X6+36+k5vBb4NB8oXhevlBcFvbiykzwUQQzw09FXZykrboReGW+UPx0vlBc0t+L84XiHQSh94O4vrcR9QE/BCblC8Xp+UJx9UAvzBeKd+cLxWOB04D5tSpQL2XglSSpsd0LHJ8vFN+ZLxTnDWagfKG4IV8o/oigdXIawYyxpNroBd6aLxS78oXiA2EuzBeKfflC8ScEz+pX8VltFHng1flC8SP5QvHpqgcpFK8FDgXOB16MqrhBatnvMQOvJEmNaTn/Wut3c5QD5wvFZflC8TyCN1wzoxxbEi8QbBh3eL5Q/MNgBsoXisvzheKXCJ7V/42iOFXlceDdwDH5QrEUxYCVfRamEqzv/VkUYw7CcmBuzDXUjLs0S5LUeFYD6XyhWNN1fPlCcV5nR+pkgjdb767lvaQhoA/4AZAZzOzfllS6O/6zsyN1HMFa4COiHF9btQ7IAtPzheLK/l48deakNuBUgln5NcAXu7t6f7+ta/KF4kLg/Z0dqW8D3wGOHHTV4f0wTGt2s3GGV5KkxnN5rcPuRpWNr84k+IRfUnXuAlL5QvG/og67m6p0exwJfIJg0yTV1pn5QvGiAYbdI4G/Ab8EDiRoR79+6sxJN06dOekV/V1fWbt9DMGuz/V0O8GRWC3LwCtJUuO5pp43yxeKZWBQrZfSEHd6vlCcXY8b5QvF9flC8Srg8nrcb4jrt9V46sxJu0+dOel7QIkgsG7uBKBn6sxJV06dOWnnbY2VLxRXEGxQWA8rgQsI9oho6Q88bWmWJKnxPBzDPVt2/ZZUB8/HcM/FMdxzSNnWzO7UmZNGAWcRbDy1Yz9DDQc+Bbx36sxJ5wNXd3f1/tvRVBUrqqk1pF8CX8gXik/U4V6xc4ZXkqQGky8UV8Vw2629+aq1ery5k6TIVNqX7wO+Rv9hd1PjgW8RzPgeWova+nE3wcZb7x4qYRcMvJIkKV5r4y5AkkJ6PzBpENcfBpwSUS0D8SwwhWCd+a11vG9DsKVZkiRJkgYuiknDekw8riOYUb4oXygurcP9GpKBV5IkSZJay0zg7Hyh+FDchcTNwCtJkiRJreFR4DP5QvGPcRfSKFzDK0mSJEnNbRlwDvAKw+5LOcMrSZIkSc2pD/gJcG6+UFwUdzGNyMArSZIkSc2nAJyVLxTvjLuQRmZLsyRJkiQ1j6eADwBHG3b75wyvJEmSJDW+NcA3gWy+UFwedzHNwsArSZIkSQM3O4Ixerby+89t5fevBz6XLxTnRHDvIcWWZkmSJEkaoO6u3p8AxwB3V3H57UBHd1fvb7fy5z8Hejf57weArnyh+HbDbnUMvJIkSZIUQndX761ACvgv4JkBXLIQeB/Q2d3Vu9V1t/lCcQlwJPAu4GSgPV8o3jj4iocuW5olSZIkaTOdHand84XiVsNsd1fvBuB/ps6cdB3QDZwNjNzsZauArwHTu7t6VwzkvvlCcQXwm+qq1uac4ZUkSZIGJxHDPcfHcM+h5sudHam2/l7U3dX7QndX7xeBVwB/2OSPrgUO7e7qvWCgYVfRM/BKkiRJg3NNZ0fqiHrcqLMjNayzI/URgtlE1dYUIN/ZkXrNQF7c3dXb293V+1bgdQTrdE/r7up9rJYFqn+2NEuSJEmDczRwd2dH6ntAd75QXFyLm3R2pF4HXAYkazG+tuhooNDZkfox8KV8ofhkfxd0d/Xma1+WBsoZXkmSJGnwhgMfBx7t7Eid3dmRimxiqbMjtV9nR+oXwC0YduPyQeCRzo5UprMjtV3cxWjgDLySJElSdBLApcC9nR2pkwYzUGdHavvOjtRFwMPA6RHUpsEZC0wFHuzsSJ0SdzEaGAOvJEmSFL1DgP/r7Ej9qbMj9fIwF3Z2pNo6O1LvJgi6FwJjalGgqrY/cG1nR+rvnR2pyXEXo20z8EqSJEm1czLBbO83OztS/e7m3NmRSgF54Bpgn1oXp0E5Bih2dqR+0NmR2iPuYrRlBl5JkiSptkYCnyFYA3pGZ0dq+OYv6OxITejsSP0IuJNgoyQ1hzbgw0BvZ0fqnM6O1Oi4C9JLGXglSZKk+tgNuAoodXakjgPo7EiN7uxInQv0EmyM1O+5r2pI44BpBOt73xl3MfoXjyWSJEmS6qsduKmzI3UbsB+2LreSA4HfdHakbgLOzheK98Rd0FDnDK8kSVu3Ku4CJLW012LYbVXHE5zNfHVnR2r3uIsZygy8kiRtXV/cBUiSmtYwYArB+t7PdXakRsVd0FBk4JUkSZKk2tkR+DpwX2dH6q1xFzPUGHglSZIkqfYmAdd3dqRmdXakXhF3MUOFgVeSpMayJqb7LovpvnFZH3cBkoasNNDT2ZH6dmdHape4i2l1Bl5JkhrL/THd976Y7huXx+MuoMU9EdN9/SCj9pbHcM9nY7hnrQ0HzgQe7exInd3ZkfL0nBox8EqS1Fi+G9N9ZwFzYrp3HK6Nu4AW95uY7vtYTPcdSh6O4Z4PAQtiuG89JIBLgXs7O1JviruYVmTglSSpcVwL/E8cN84XihuA04Clcdw/BlcQvIlW9G4AfhfTvWcCT8d076Hgb/lCse7dEflCcT1wfr3vW2eHAH/u7Ej9X2dH6tC4i2klBl5JkuK3BPh/wLsrwTMW+UKxBBwJ/CGuGuqlu6t3OfB6hsDftY76gKuB/+zu6o3lSK98obgG+C9gbRz3b3FlghbcWOQLxZ8AZwGr46qhTk4imO29rLMjNT7uYlqBgVeSpPisB64EXpYvFL8VZ9jdKF8ozssXim8FTqTF1/V2d/U+093V+1bgZJztHaxbgVR3V+/Hu7t6X4yzkHyh+EfgDcADcdbRYv4GvDpfKMb6Nc0XilcChwK/jrOOOhgOfJpgfe8nXd87OAZeSZLicQNwRL5QPCtfKD4fdzGbyxeKswhme88Enou5nJrq7ur9P+CVwGcYOi3dUXkcOB04trurd3bcxWyULxRvBdoJQkM55nKa2WPAu/KF4nH5QvHRuIuBf34odwpBh0bDfM/VyM7Atwh2dD4h7mKalYFXkqT6egg4OV8ovilfKD4YdzHbki8U1+ULxe8SnB15KS3cJtrd1bu2u6v3MoK/69VA7LPtDW4lcDHw8u6u3l/F1cK8LZXv3yuAlxFsBucOzgO3AsgAh+YLxbg2INumfKH4d+DVwIeBp2Iup9YOA27s7Ej9vrMjdXDcxTQbA68kSfWxhGC26Yh8ofh/cRcTRr5QLOcLxc8ChwN/jLueWuru6n22u6v34wSz23+Lu54G9UuCoHtRd1fvyriL6U++UFycLxTPJPh/+te462kCPwUOzheKX8kXiqviLmZb8oXihnyh+CPgYOArQEPXG4G3APd1dqS+0dmR2inuYpqFgVeSpNpaD3wHmJQvFK/IF4rr4i6oWvlC8ZF8ofgWgk1VWnp9ZHdX7z3dXb3HAafgUTcblYDXdXf1vru7q7fpzjHOF4r35gvFNwLvAObFXU8DKgBH5QvFD+QLxSfjLiaMfKG4PF8oZgjW9/4q7npqbCTwWaC3syN1RmdHyjzXD79AkiTVzo1Ae75Q/GS+UFwcdzFRyReKMwnWR34KaLj1x1Hq7ur9NcGb6G6CNs+h6Bngo8Brurt683EXM1j5QvF3BP9PzwOWx1xOI3gS+ABwdL5QLMRdzGDkC8XH8oXi6UAncFfc9dTYbsBVwM/iLqTRGXglSYreI8Cb84ViV75QvD/uYmqhsj7y2wTrIy8Hmnbmuj/dXb2rurt6s8DLCdo9h4q1wH8Dk7q7en/Q3dXbMuua84Xi6nyhOI2gFfbHBEcqDTWrCdqAD84Xij/NF4ot8zXIF4q3AR3ABwkCfSt7d2dHav+4i2hkBl5JkqJTJtjp9/B8ofinuIuph3yhuCRfKJ5NsL73z3HXU0vdXb0Lu7t6PwAcDdwZdz019nvgsO6u3nO6u3pfiLuYWskXik/lC8UPAUcBt8dcTj39hmBDqky+UGzJzoV8odhXObv3YIIN1hp+vfkgtMyHFbVg4JUkafA2rtN9Wb5QvCxfKLbsbsZbky8UH84Xiv9BsL63oXefHqzurt47CALSB2m93WEfAE7s7up9W3dXb0McQ1MP+ULxToI22PcBC2Mup5buAY7PF4rvyheKQ2Idc75QXJEvFC8iCL7XxFxOLfwoXyguiLuIRmbglSRpcFpynW61Kut7X0mwI/WSmMupme6u3r7urt6Ns0dfJWgPbWZLgP8HtHd39c6Ku5g4VGYEf07Quj6V1trx9zng48DkfKF4c8y1xCJfKD6RLxTfS9Ch0dRrlSueIFh7/ZG4C2l0Bl5JkqrTC7ytldfpVmuz80+vZNvnnzb12ajdXb3Lu7t6v0SwCdL/xl1PFf7ZndDd1fut7q7ell2LPVCVGcHzCf6fXhd3PYO0DriMYJf4q/OFYlM/b1HIF4p3EITe9wBNt9s4sIzgjOSWW3tdKyPiLkCSpAb2zBZ+bylwCfCtfKG4ps71NJV8ofg8cFZnR+q7wDcJ2p039Xi+UFxW/8qi193VOw/4z6kzJx1PsInXETGXNBA54DPdXb33xV1II8oXio8Bp3Z2pI4FriDYmbyZ3ACcnS8UH467kEZTCYm/6OxI/Q74AnAOsH28VfVrPTADuChfKG7p3yZthTO8kiRt3T/41668awmOgJiULxS/adgduHyh+GC+UHwTcDKwcTb8WVqwFa+7q/cm4EjgTII20kY0B3hHd1fvCYbd/uULxb8Dk4EzCL5vG90jwH/kC8U3GXa3LV8orswXipcQLE34CY27+dMfCTZDPNOwG15bX180/1/b2toiGUdqBJlcIrIfeG87+HLa9zg9quHUQlatW8p/335wlEO+I5su/y7KARXo7EjtAqzNF4otu1ttvXR2pNqAPYFnW31zr6kzJ40HLiQ4r3h4zOVA0AqZBS7r7upt9jXHsejsSO0EXECw3nlkzOVsbmP3yZWt/mzVSmdHKkXQAt4Zdy0Vs4HP5wvFm+IupFaiyqLbYuCVtsDAq3ow8EpDw9SZkw4FLgW6Yiqhj+Cs2fO6u3oXxVRDS+nsSL2coE3/5LhrATYA3wfOd/Zv8Cofyp0KTAfiOt/2CeBLwM/zhWLLnH+9JfUIvK7hlSRJqqHurt4HgZOmzpz0HwTBd1Idb387cFZ3V2+xjvdseZVW4f/o7Ei9iSD4HhJTKX8jWKf7j5ju33Iq63t/1dmR+j1wNkHw3KFOt18GTAMuzReKrXxucF25hleSJKkOurt6/wQcDnweqHV7/EKCXWg7Dbu1ky8U/4/gGK7PAOU63vox4NR8oXicYbc2Kut7v0rwAdUPqe363vXAdwnOcv+KYTdaBl5JkqQ66e7qXdPd1fsNgjfR3yf6N9GrCNZxHtzd1fuL7q7eRt2Ep2XkC8W1+ULxMoKNj64maDGulReBbuCwfKHY7EcmNYV8obgoXyh+BEgBt9TgFm5IVWO2NEuSJNVZd1fvM8DHps6c9B2CY4yOiWDYa4EvdHf1LohgLIWULxSfBT7e2ZH6DsExRq+P+BY/B87JF4oLIx5XA5AvFGcDx3Z2pN4JfB04cJBDtvyGVI3CGV5JkqSYdHf13t3d1XsscDpQbVC9G3h9d1fvaYbd+OULxXvyheJxwLsIWo8H6y7g6Hyh+D7DbvzyheL/AocC5xKsuQ3rCeADwKsNu/Vh4JVqLPfYVHqe/iV9Ne1wUrN5avk9/PKBD8RdhqQG0d3V+yuCjY8uBAa6fu8ZYAqQ6u7q/XutalN18oXibwiCUQZYUcUQTwEfAjryheIdEZamQcoXiqvzheJ0gqUJ32NgbezLCL4XDs4Xij9t9d2XG4nHEklbEOWxRBvttcOr6DpoKvvu+Oqoh1YTWbHmWf46/6vcvegaarD/hccSSS1g6sxJ+wD/Dbx7Ky9ZS9AGPbW7q3dp3QpT1To7UnsR7L77/gG8fDXBbt7ZfKG4vKaFKRKdHalXEpzfe/wW/ng9MAO4yDW6/85zeKWY1CLwbnT4bu8gfeAF7Dh6r1rdQg1ofd9aCgtncMuCS1m9vpoOqAEx8EotZOrMSa8FLgBOBNqANcB1wCXdXb2PxFmbqtPZkTqKIBh1bOUlvwU+ly8U59WvKkWlsyN1MnAGwW7sqwiOjboiXyg+FGthDczAK8WkloEXYOSw7ejc9//x2n0+yYhhY2p5KzWAR56/kRvnXsjzK+fW+lYGXqkFTZ05aQywO/BUd1fv2rjr0eB0dqTagNOATwLtBB9k3AZ8I18o/i3O2qR6M/BKMal14N1op9H7kD7wAl6x29vqcTvV2bMvPsKNc89nzpKb63VLA68kSWoa9Qi8blolbdmSetxk6eon+M1DU/jRPW9j0fJ763FL1cGqdWVumJPhqtnH1TPsQnA+oyRJkioMvNKW1fVYhwVL72DG3Sfwh97PsmLtc/W8tSK0oW8dxad+yJV3dXDnk9+nr299vUtwzZckSdImRsRdgNSgbiNYV1NHfdy96Oc88OzvOXa/z/KavT/G8LaR9S1BVZtXvoWZc7t5ZkVs+1IsBubEdXNJkqRG5AyvtGW/jevGq9cvY9a8i/lu6VgeeX5WXGVogJasms+vHvggP733XXGGXYDrs+myZ/pJkiRtwhleactywCPAwXEV8PzKufzy/vdx0Pjj6Jo4lV23nxRXKdqCNeuXc8uCy7hj4VWs72uITVO/FXcBkiRJjcZdmqWtyOQS7wR+E3cdAG1tw3n1nh/huP0/z5gRibjLGdL62MA9T1/LXx7LsnxNw5wf/8tsuvzuuIuQJEkKw2OJpJhlcomfAu+Lu46NthuR4PgDzmPyhPcxrM0GjXp7/IW7mDm3myeX/SPuUja1ADgymy4/H3chkiRJYRh4pZhlcontgD8Bx8ddy6Z2H3sIXROzHJh4XdylDAkvrH6S3GNf5r5n/jfuUjb3HPCGbLrsmVaSJKnpGHilBlAJvd8H3hN3LZs7ZJeTOWHiRYwfs3/cpbSkdRtWcdsT3yb/+JWs3bAy7nI29xDwjmy6HOtOWZIkSdUy8EoNJJNLvAv4JrBv3LVsaviwURy198c5Zt9PM2r4DnGX0zLuf/Z6cvMuYenqJ+IuZXNrCL4PL86my6viLkaSJKlaBl6pwWRyie2BL1Z+bRdzOS+xw6g9eOMBX6J9j9MAn8dqLVp+LzfM7WbB0jviLmVLfg98LpsuPxp3IZIkSYNl4JUaVCaX2A+YDpwedy2b22vcqzhpYpZ9dkzFXUpTWbH2Of762Fe4e9E1QO1/+Ib0AHB2Nl32YGZJktQyDLxSg8vkEq8DLgcmx13L5g7f/Z2ccOAFjBu1Z9ylNLT1fWu5c+H3+PuCb7J6/bK4y9ncEuAC4Kpsurwu7mIkSZKiZOCVmkAmlxgGfAj4KrB7vNW81Mhh29G571m8dp8zGTFsTNzlNJxHnp/FjXMv4PmVc+MuZXPrgauACzxuSJIktSoDr9REMrnEjkA3cDYwMuZyXmKn0ftwwoEXcNhub4u7lIbw3Iu9zJx7PnOW3BR3KVuSI2hfvj/uQiRJkmrJwCs1oUwu8TKCXXTfEnctm9tvp6M46aAsE8YeHncpsVi1rszfFnydO5/8AX196+MuZ3NzCDakuj7uQiRJkurBwCs1sUwucSJwKXBY3LW8VBuTJ7yX4w84j7Ejd427mLrY0LeO2Yt+xk3zp7Fy7ZK4y9ncMiALXJpNl9fEXYwkSVK9GHilJpfJJUYAnwAuBsbHXM5LjB4+jtfv/3levddHGd7WUB3YkZpXvpWZc7t5ZsWDcZeyuT7gR8B52XT56ZhrkSRJqjsDr9QiMrnEzsCXgTOA4TGX8xK7bHcQJ068mEk7nxB3KZFasmo+s+ZexEOL/xx3KVuSBz6dTZdLcRciSZIUFwOv1GIyucThBG3O6bhr2dzLxr+BEydewq7bT4q7lEFZs345tzx+OXcsvIr1GxquQ/hx4Bzgl9l0ueEO+5UkSaonA6/UojK5xNuBrwMHxV3Lpoa1jeDVe32Y1+/3ecaMSMRdTkh99Dz9K/7y2FdYvqbhOoRXAdOB/86myy/GXYwkSVIjMPBKLSyTS4wmOMIoA4yLuZyX2H7kzhy3/zkkJ7yftraG6sDeoideKHLD3AxPLvtH3KVsya+AL2bT5QVxFyJJktRIDLzSEJDJJSYAXwE+BDTUg7T72EM5aWKWAxKdcZeyRcvWPMWseZdw3zP/G3cpW3I3cFY2Xb417kIkSZIakYFXGkIyuUQKuAI4Ou5aNnfILidz4sSLSYzZL+5SAFi3YRW3PfEd8o9fwdoNK+MuZ3PPAF8CfphNlzfEXYy2LZlMngJM3OS3zqHBdlSvkVypVAq9U10ymZxIcGb0UDfgr98Q+ZrNAOZu/I9SqTQ9ikGTyeQswu95cW5U9292yWTyHGBayMu2+PUbIt/HAzGgZ3+IfL0iee7rEXhH1PwOkgYkmy4XM7lEJ3A68DVg75hL+qeHFv+Z3iU5jtr74xyz79mMGj42tloeeO73zJp7MUtXPxFbDVuxFrgMmJpNl1+Iuxht2SYBd6gEW6kepmz6H8lkcmPImgHMHUQAPZUgNIR5Vqclk8lcqVQa0rvgVwLXOSEvy/lhgUKo1XMfOQOv1EAqO/f+IpNLXE/wD9UXgTHxVhVYv2EN+cevoOfpX/HGAzK073Eq9ezAXrTiPmbO6Wb+0tvrds8Q/gB8NpsuPxp3Ifp3yWRyPME/zGFnOiQNzhT45xvhGcB1pVIpN9CLS6XSkmQyeQZwbcj7Xg2kQl7TaqYR7oOCJQRHJ0qDNajnvhaGxXlzSVuWTZdfzKbLFz7y58RJi+7Zfn3c9Wxq+Zqnuf6Rs/iff7yJJ5bV/gP0FWuf44+9n2fG7HQjht0HgK5suvxWw25jqrT0PY9hV4rbFGBWMpm8tjL7OCClUuk64LqQ90pWnv0hKZlMTgFOCXnZ9FKpNLf/l0mhVPXcR83AKzWoye3tw+b8Zaepd/94t+F3fHsCLywcFXdJL7Fw2d384B8n89uHP8myNU9FPv76vrXcsfAqvnXXUcxe9FOgoY6tXQKcBbRn0+Ub4y5G/y6ZTE5MJpNFDLpSozkFKCaTyTBrc88g+LkbxrQ432DHpdLREvbnnq3MqrVqnvvIGHilxvUZ4HUAS+aO5rZL9+S+a3dhzfLGOibo3md+zbfuOppbHr+MdRtWRTJm7/OzuKr0em6ceyGr1y+LZMyIrAe+A7wsmy5fmU2X18VdkP5d5U3uLCAZdy2Stmg8wazPlH5fSdDaTHXttldXcU2zs5VZjSrUcx8lA6/UgCa3tx8CZDf9vb4+eLywA3/76l7Mu3lH+tY3zs7oazes5KbHvsp3Sq/jged+X/U4z73YyzX3vZtf3P8+Fq9suM0Nc8CrsunyJ7Pp8vNxF6NtupaX7rwsqTFdnUwmB/TBVJWtzemh1Npc2ZQvbJiwlVn1NuDnPioGXqnBTG5vHw78CBi9pT9ft2oYD/1hPLf89148c/92da2tP+VVj/PrBz/Gj+95B4tW3Dfg61atKzNzbjdXzT6OR5f8tYYVVmUu8I5sunxCNl0e+F9Ksai8uXVmV2oeYTakqqa1+Zyh0NpcZStzyVZmxSTsRnSDYuCVGs9ngY7+XrTiuRGUfrA7d83YneVPj6xDWQM3f+ltfG/2Cfyx9/OsWPvcVl/X17ee4lM/4lvFoyks/B4b+hqqQ3g5cC5wWDZd/l3cxah/lTd8Q2Y2R2oRE2vc2lxNEGxG5xC+s+XUWhQiDcCAn/soeCyR1EAqrcxfDnPNcw9vx61f3479OpcxqavMyO021Ki6cPrYwOxFP+X+567n9ft9jtfs9VGGtf0rmD9WznPD3AzPrHgwxiq3qA/4MXBeNl1eFHcxCmUK1Z+tuwTYONMx5M/wjFKpVGqc9RdNopm+Zpu0DKcrv6oxheD4kn6VSqXrksnkdYTbhfiUZDI5pVQqDegezabSHhr2w75za93K3Ezfx42gmb5e9X7uB8vAKzWI/lqZt6VvA8y/ZRxPzh7LwSeV2feoZbQ1SP/G6nUvcOPcCyk99RNOnHgJu21/MDfOvZCHFv857tK25HbgrGy6XIy7EFWlmlbmEsEbv1jPCJSa1SYtsdM3aasNO3OTTCaT4yszuANxBsGb7DAfcE1LJpO5Fl2vGrY91FZmDUqUzz3hlymE1iBviSUxwFbmbVm7Yhj3/2Zn8t/ci8WPjomorGgsXjmHX9z/Xq68q6MRw+5C4D1Ap2G3qYUNvKVSqZQy7ErRKJVKS0ql0hkEy0HCGvDza2vzv1Rm2mxlVmzq9dwPhoFXagCT29sPJ2Qr87Yse2okd353j4fXrRp2KjAvqnGj0EdjtFxXrAIuAQ7Opsu/yKbLDXXYr0IL+6avmn+cJfWjMvsTdllAqOe3yl2bT6nsZNwSKptxhQ3xNW9l1tBUj+e+WgZeKWaT29tHUGUr8zZsAD40/c3PXwccCpxHsAmT/uVa4OXZdPnCbLr8YtzFKBa+6ZNqp+ZtilS3a/PVlTbKVmArsxpNPZ770Ay8UvxqcYzKN2f39NwBkE2XV2fT5WnAJILNmIb6LObdwLHZdPm0bLq8IO5iJElAFRvODeXW5iqPYAv7tZJqrS4fPhl4pRhVWpkviHjYh4HzN//NbLq8KJsuf4hgnfDtEd+zGTwDfAxIZdPlW+IuRpI0eFW2Nk9p5tbmSitzNbsyu/u8hiQDrxSTTVqZR0U47Hrg/bN7elZt7QXZdPkuoBN4L8FmTa1uLfB1YFI2Xf5+Nl1uqEXEkqRBq6a1eVoTtzZfTbiZMVuZNaQZeKX41KKVefrsnp67+ntRNl3uy6bL1wAHE2yWtdWA3OTqWQzCAAAgAElEQVT+CByeTZe/kE2XX4i7GElS9Kpsba5mljR2yWRyCuHPPbWVWUOagVeKQY1ame8n2HF4wLLp8ovZdPkC4BDCb37RyB4ETsqmy2/JpsuPxF2MJKm2qmxtPieZTIYNj7HZ5LzTMGxl1pBn4JXqbHJ7+0jgZ0Tfyvyh2T09q6u5OJsuz8+my6cBrwf+EWFd9VYGPg28Mpsuz4y7GElSXZ1LFbs216KQGrGVWaqCgVeqvwzQHvGY02f39BQHO0g2Xf47QZv1FODZQVdVP+uB7wIvy6bLV2TT5XVxFyRJqq/K+bJhz9eemEwmG37X5somW2E32rKVWcLAK9XV5Pb2VxEE3iiFbmXelmy6vCGbLn+P4BijbxBs+tTI/gocmU2Xz8ymy4vjLkZNpS4H3kuqn1KpNIPqWpuj3lMjMrYyS4Nj4JXqpNLK/CNgRITDDqqVeVuy6fLSbLr8eeBw4E9Rjx+BecA7sunyG7Pp8r1xF6OGMDfk6xt+VkdqYmF3QA7birwtrdbafA7hPqCbayuzYhLnc79VBl6pfmrRypyNopV5mzdIlx/JpstvBk4CHqrlvQZoOXAecGg2Xf5d3MWooYSdzUgmk8liM21aIzWDZDJZzSkEkb3xrbK1OVmpu6FUfj6FrevUWtQibUvcz/22GHilOqhRK3MPMDXiMbeqsgnUEcDZBJtD1Vsf8GOC83SnZdPlyGe11fSqad9LArOSyeTzyWTynMqvhm1tlBpdZT1sNd0TYTs0tqnK1uZpyWSy0ZY6hJ15nm4rs+qtUZ77rYmytVLSFtSolXkdQStzXdfXVjaDujyTS/yMIGx/DBheh1vfDnw6my73e8awhrQZBDMhYVuqqFzzz3+smyzzlnjpG/vrKjNcUs1tMiuaJPymShstqVFIO5fgzNowPxOuBVI1qCW0ytc2bCtz2JltKbQGf+7/TVtfX180A7W1RTKO1Gomt7dngS9FPOzFs3t6Lop4zNAyucQRwOXA8TW6xULgi8AvsulyND+s1NIq/wi7NjeQq/yKLABXZr/mRDFWMyqVSqHf7Az1r9kAnVurNafJZHIK4WdJa1bPQFU6TcIuWUrVKkAM9e/jsM/+UP96DdC5pVJpelRZdFtsaZZqaHJ7e4rwa2/60wNkIx6zKtl0+d5suvwG4J0Em0hFZRXwZeDl2XT5GsOuBqryJtV2vkCaIPzPSSaTsyrHmkiNZgnhW48HrIlbm21lViur6XO/OQOvVCOT29tHE7QyR9nyG0src3+y6fJvgUPn3zLugfWrB9ft8dzD2z1LsCHVBdl0eUUkBWqoOZU6rQtqImngWjfpUgOaXocW/KbatbmKzX9sZVazqcdz/08GXql2LgBeEfGY2dk9Pf+IeMxIZNPl1Q/8bufev03bm4V37RD6+hcWjqLw7T24a8buD2TT5ceir1BDReUf0RNwpndLNm7S1XC70WpIuq4ercNV7tqcjuM5qcwsh12WcUYtapFqpC7P/aYMvFIN1KiVuUQdd2Wu1uoXhnPPL3fhtkv35On7tqe/pRnLFo2k5+e7ctule/L83DH1KVItr1QqzS2VSinCv8kdKqYlk8lGPndUre+6UqlUt+NzqmxtPieG1uZqWplzNalEil5dn/uN3KVZiliNWpnXELQyr4twzJpa+sQoZv9wN0btsJ5dJq1i3J5rGT1uPSPGbGDti8NYvmgUix8dw7KnRsZdqlpYqVSankwmZwBTcDOrzU1JJpNz496cR0PSGZUAWm9hd23euHt7Xd6gVzbYCrPkYC7g86tmEddz7wyvVAMXEn0r8yWze3rui3jMulizfDhP3T2WR/6c4N5f7cLdP96N+67bhcduGWfYVV2USqUlpVJpemWXzVNx1ndTjbA5j4aOGcBBcb3prbK1+ZRKEK2paluZS6VS2LXJUr3F+tyDM7xSpCa3tx9FbVqZ/QRXikCpVNrY0jgdoLJz8aaBbyjOAp+DawBVOxvPiZ7RCOGsVCrNqGzcFmbX8mnJZPK6Gtc/jXDnBdvKrEbWUM+9gVeKyOT29jEErcxRdk40XSuz1Ew2CcAbNdWHS5WZp/EEob3aWagpyWTy3EZ4U6KWcB2VDeMauF2+mtbmq6lRa3Plg7cwAdxWZjWahn7uDbxSdL4MvDziMZu2lVlS7W3WInZGZVfZamap09ToTMRKK7lCaISvWTKZnMNLux/6M7dUKh1Uq3qiVCqV5iaTyXMJt0HUKclk8pQtfEg2KMlkcuM64TCaopW5Eb6Pm0kjfL1a9bl3Da8UgUor82cjHraIn+BKCqHyyXqqikvDnPmpoSHsvz8T67HWNSpV7to8rRJQozSNcAFjhq3MqqGWfO4NvNIg1aiVeTXwfluZJYVVKpWqWfcf9Zt4NblKIJwb8rJmO9/5XCDMTGk1G0ttVWUtcZiwUM2mW9KAtepzb+CVBq8Wrcznz+7peSjiMSUNHWHfsLhTs7YkbLiaWGmrbwpV7to8pRJUoxD2zF3X2qseWu65N/BKgzC5vf21RN/KXAC+GfGYkiSFUlmvGrZ99pwatP3WTJWtzVcP9u+YTCaraWWuyTp7aVOt+NwbeKUqTW5v3x74MdG3Mn9odk/P+gjHlCSpWtW0xzf8mr7NVNPaXPWMVjKZTIa83lZm1VtLPfcGXql6XwFeFvGYtjJLkhpGZYOklprt2VyVrc3nVIJrNWxlVkNrtefewCtVYXJ7+zHAWREP2wqtzMsjGGNcBGNIkqLTUrM9W1Jla/O1Ye9TWesYJijbyqy4tMxzb+CVQqq0Mv8AiPK8tFW0RitzFLtKD49gDElSRAYx29Nsm6GFbm0Os1lP5esRZpdnW5kVm1Z67g28Uni1aGU+z1ZmSVIDq2a2p6F3bt1cla3N00K0NtvKrGbTEs+9gVcKoUatzLcCV0Q8piRJkanM9swIedmURpzt2ZZqd23u7wWVmeAwxxldZyuz4tYqz72BVxqgye3tOxB9K/NK4COze3o2RDimJEm1EHa2BxpwtmcAwrY2J7fV2lx58x/m67AEOCPE66Vaavrn3sArDdx0om9l/tLsnp7eiMeUJClylZbfpp/t6c8gWpu39vecRtDqOVBn2MqsRtEKz72BVxqAye3txwNnRjysrcySpGZTzWxPmI2aGkJUuzYnk8lTgFNCjGErsxpRUz/3Bl6pH5u0MkfJVmZJUtOpcrbnlGQyGWb9aqMYVGtz5UzSMBtV2cqshtTsz72BV+rfdOCAiMc811ZmSVKTavo1fQNRZWvzpsey2MqsVtK0z72BV9qGGrUy3wxcGfGYkrSpsGunfJOtAatytifdKLM9YVTR2jweuLryd50S4jpbmdXQmvm5N/BKW1GjVuYVBK3MfRGPK0nAP3eEDfNGG2BuLWpRSwvb7gsNMttThbB/1zQwK8TrlxB+JlmKQ1M+9wZeaeu+TvStzOfM7umZF/GYkgRAMpmcAhQJ10YJUKpBOWphldbbsC2O6comTk2lytbmMM6t3ENqaM363I+I8+ZSo5rc3n4i0W8ccTPwnYjHlDSEVd5ETCQIuIP5FD0XTUUaYmYQfN+F+YBlGuF3P45dqVSaUWnNjPqN+3WVtmmpWTTdc2/glTYzub19R+D7EQ9rK7NUJ8lkcg7h17AOZTNquVFOMplsxZ97uVKpdELcRcStVCotSSaT0wl3/MjEZDI5pUlD3rkE7cphOyi2pqVbmX32W1MzPve2NEv/7hvAvhGPaSuzpEZVzc6b0kYzaMI1fdWotB1H+bzYyqxm1VTPvYFX2kSllfm/Ih72L9jKLKkx+YZbg1Llmr6JlfXmTadUKk0nmiUAtjKraTXbc2/glSpq1Mq8DFuZJTWmGZU379JgNdVsTwTOYHBHebV0K7OGjKZ57g280r/UopX5c7N7ehZEPGYjWx/BGMMjGEPStk0vlUpRb8ynIaoy2xM2wE1MJpNNGXojaG22s0JNr5meewOvBExubz+Z6FuZZxH9jHGjWxbBGOMiGEPSls0FTiiVSs4uKVKV9tywIe6cZDIZ1QZQdTWI1uacrcxqFc3y3Bt4NeRNbm9PAN+LeNhlwH/ZyiypQZSAM0ql0kGlUskjiFQrYWc9xwNNuZa3Imxr8xKiP/JQilvDP/cGXgkuA/aKeMyh1sosqfGUCNrNDiqVSilnlVRrzTLbE5UqWpun28qsVtMMz73n8GpIm9ze/h/AByMedii2MkuKTwm4bpP/zpVKpVJcxWjImw5cHeL14wnO82zKmc9SqTQ9mUymCc7n3Zacm8SphTX0c9/W1xdNx2VbW1sk40j1Umllvp9oZ3eXAkfM7ul5PMIxm8bk9vbLgE8Pcpj5s3t6DoigHEmSJDWwqLLottjSrKGsFq3MZw/VsCtJkiQ1GgOvhqQatTL/eXZPz48iHlOSJElSlQy8GnImt7fvQvS7Mi+luXealCRJklqOgVdD0RXAnhGPefbsnp6FEY8pSZIkaRAMvBpSJre3vx14T8TD2sosSZIkNSADr4aMSivzVREPayuzJEmS1KAMvBpKrgD2iHjMT9nKLEmSJDUmA6+GhBq1Ml8/u6fnZxGPKUmSJCkiBl61vBq1Mj8PfDziMSVJkiRFyMCroeC7RN/KfNbsnp5FEY8pSZIkKUIj4i5A2pZMLrELcDbwZmBfYDlwC3BlNl2+s7/rJ7e3nwKcEnFZ18/u6fl5xGNKkiRJipiBVw0pk0uMAM4ELgYSm/zRLsD+wPsyucQ1wDnZdPmJLY0xub19N+A7EZdmK7MkSZLUJGxpVsPJ5BJdwD3A5bw07G7uPcDDmVzigkwusd0W/vw7wK4Rl2cr87atjGCM7SMYQ5IkSTLwqnFkcomDM7nEH4AbgEMHeNn2BLPAD2ZyidM2/mallfldEZf4a1uZ+7U6gjFGRTCGJEmSZEuz4pfJJXYCuoFPAyOrHGZ/4JeZXOKTix8dc9Gd3428lfk5ghZrSZIkSU3CwKvYZHKJYcBHganA7hENe8wuB636y+GnLuaRPydYs3x4RMNy5uyenmejGkySJElS7Rl4FYtMLnEscBlwZOSDt8G+HcvZs/1FHp21E/NvGceG9W2DGfHXs3t6rouqPEmSJEn1YeBVXWVyif2ArwGn1vpeI8Zs4JC3LGHfo5fx0PU788wDW9rXql+2MkuSJElNysCrusjkEtsD5wBfBMaEvX637Q/m9ft/gUcW38g9z4SbbB276zqSH32G5x7ejgevH8/yp0MtE7aVWZIkSWpSBl7VVCaXaANOJ5jV3Tvs9WNGJDhu/y+Q2vNDDGsbwWG7vpXUXh9m5pxuFi6bHWqsXV++ktd9fiUL8uPonZlg7cp+Nym3lVmSJElqYgZe1Uwml0gBVwBHh722rW04yQkf4PgDzmW7ES89inefcUk++qo/c88z1/GXeVmWrRn4sbhtw2D/Y5ax1+QVPHJDgsfvGEffhi2+9Gng42HrliRJktQ4DLyKXCaXmAB8FfggEHq3qAMTx9A1cSq7jz1kG69q45W7n8ohu/wHtz5+Obcv/C7rN6wZ8D1Gjt3AK/7zefZ77TIe/N3OLH7037qsPz67p2dx2NolSZIkNQ4DryKTySVGA2cTnKm7Q9jrx4/ZnxMmXswhu7xpwNeMGj6WNxzwJSZPeB+z5l3Mg8/9MdQ9x+25ltd84mmevnd7HvrDeF5cPALgmtk9Pb8LV70kSZKkRmPgVSQyucTbgW8AE8NeO2r4WI7Z7zMctdcZDB82qqr7J8bsxymH/g+PLb2NmXMyPL3igVDX73HEi+x26Erm58etWLl4xJdm91RVhiRJkqQG0tbX1xfNQG2DOudUTSqTSxwBXAq8MfzVbbTvcRpvPCDDDqN2j6ymvr71zF70M26aP40X1z5fzRBPAV8CfpxNl6N5QIaIye3tFwEXDnKYpbN7ehL9v0ySJEnNLKosui39blMrbUkml9g5k0t8G7ibKsLuPjum+K8jb+BtB18eadiFyoZXe36QT6XuoGPvjzGsLXQjw57AD4FCJpcIveGWJEmSpMZg4FVomVyiA7gfOBMYHubacaP25J2HXMVH2v/IXju8qib1bTRmxE50TZzKxyffzMvGv6GaIV4N3JrJJb4YcWmSJEmS6sDAq1AyucTewA3AhDDXjRg2mmP3+xyfevXtHL7bO6hi8+aq7br9JN5z+C949yt+zi7bHRT28mHA9Ewu8bEalCZJkiSphgy8Cut8INT6ysN2exufTN3Ocft/kZHDtqtRWf2btHOaTyT/xokTL2b0iB3DXv61TC4ReudpSZIkSfEx8Cqsdwz0hRN2OIIPvfJ63nXIDHYavXctaxqwYW0jOWrvj/Op1O1MnvB+2gb+COwEHFvD0iRJkiRFzMCrAcvkEuOBfneYGjtyV94y6Zt87Mgb2W+no+pQWXhjR+7Kmyd9nY9NnsX+O712oJcdXMuaWkQ5gjF2imAMSZIkyXN4Fco2g8iwtpF07P0xjt3vs4wePq5eNQ3KhLGH88FX/pYHnvs9uXmXUF71eNwlSZIkSYqIgVeRmbTzGznhwMEewRqPw3Z9K8PaRnLtAx+KuxRJkiRJEbGlWZIkSZLUkgy8kiRJkqSWZOCVJEmSJLUkA68kSZIkqSUZeCVJkiRJLcnAK0mSJElqSQZeSZIkSVJLMvBKkiRJklqSgVeSJEmS1JIMvJIkSZKklmTglSRJkiS1JAOvJEmSJKklGXglSZIkSS3JwCtJkiRJakkGXklRWhPFIJPb20dFMY4kSZKGNgOvpCi9GNE420c0jiRJkoYwA68kSZIkqSUZeCVJkiRJLcnAK0mSJElqSSPiLkDS0LD9ruvYYfe1ACxbNJKVz/vjR5IkSbXlO05JNTV+4moOecsSEvutfsnvL350DI/8OUF5/uiYKpMkSVKrM/BKqontxq/j5W9ewp6v2vLGzbu8bBVHn7WIhaWxPPKn8axaOrzOFUqSJKnVGXglRWr4qD4mHr+UiW94gWEj+vp9/d7JFUw44kXm5HZi3t92ZMO6tjpUKUmSpKHAwCspEplcom3Bbc937P6KFxmz0/pQ1w4f1cfBJ5fZ96jlPPSH8Sy6x2N4JUmSNHgGXkmDlsklUsAV+7122dGDGWe7nddx5AefpW992x/fNDxxZjZdvieiEiVJkjQEGXglVS2TS0wAvgJ8CIisF7lteF8ncHcml/gecH42XX42qrElSZI0dBh4FZmV68ps6FvHsLbm/LZascZMNVCZXGI0cDaQAcbV6DbDgDOA0zO5xEXAt7Pp8toa3UuSJEktaFjcBah1LFh6B1fPPp45S26Ou5RQlq15it89/Cn+9OgX4i6lKWRyibcD9wPTCBl2Rw0fy4hhY8LecifgUuDeTC7xprAXS5Ikaehqzqk4xaXfKdBnX3yEn993GgfvfCInTryEnbc7sB51VWXdhtXcvvC73Pr45axdv+WjczYzoBe1qkwucThB8EyHv7qN9j1O440HZNjQt47cvEu479nfhh3k5cCfM7nE/wGfyabLD4evQ5IkSUNJW19f/8eGDGigNo8SGQoyucTDwMEDee2wtpEctfcUjtnvM4weXquu1+o88NwfyM27mPKqx8Nc9upsulysVU2NKpNL7Ax8maC9OPRhufvsmOKkiVn2Gveql/z+4y/cxcw53Ty5/B/VlLUOuBK4JJsul6sZQJIkSfGKKotui4FXoWRyiS8C08NcM3bkrrzhgAyvmnA6bTF30T+94n5umNPN/KW3hb30XqA9my7X/qlsEJlcYgTwCeBiYHzY68eN2pMTDryAw3d/B1vbz6qPDdzz9LXkHpta7RrqZ4Hzge9n0+VwZyFJkiQpVgZeNZxMLjES+AtwTNhrJ+xwBCcdlGW/HTuiL6wfL65dzE3zpzH7qZ/Rx4awl68E3pBNl++oQWkNKZNLnEjQvnxY2GtHDBvNa/f5JJ37nsXIYdsN6Jo165dzy4LLuGPhVazvq2pfqh7g7Gy6fHM1F0uSJKn+DLxqSJlcYhzwPeC0aq5/xW5vI33ghew0eu9oC9uCDX1ruevJH3Lzgq+xet0L1QwxH3hPNl0OPSXcjDK5xMuAbwJvqeb6w3Z7GycceAE7jd6nqvsvWTWfG+dewMOLb6jqeuDXwBey6fJj1Q4gSZKk+jDwqqFlcokuglnAQ8NeO2LYaDr3+X+8dt9PDXgWMKxHl/yFmXMuYPHKR6u5/EWC1u2vZdPlldFW1ngyucSOQDfBUUMjw14/YYcj6Jr4Zfbf6ehI6plXvoWZc7t5ZsVD1Vy+CvgG8NVsurwikoIkSZIUOQOvGl5lneeZBOs8E2Gv33H0XqQPvIDDd3s7W1vnGdbilY8yc84FPLrkL9UOcQ1wTjZdfiKSghpYJpcYBnwY+Aqwe9jrx47cleMPOI8jJ7wn8vXZG/rWMXvRT7npsWmsXFfVvlRPAucAPx9Ka68lSZKahYFXTSOTS+xCsJPvFKrYyXffHV/DSQdNZc8d2quuYdW6pfx9wTe488n/YUPfumqGuItgHehQaV9+HXA5MDnstcPaRtKx98c4dt/PMHrEjtEXt4lV68rcPP9r3PXUD+nrq2pfqgJwVjZdvjPi0iRJkjQIBl41nUwucQRwGfCG8Fe38ao9TueNB2QYO2q3AV/V17ee2Yt+zk3zp/Hi2sXhbwtPA+cCP8mmy6F3tGo2mVxiP4J27dOruf7gnU/ghIkXs8t2B0VbWD+effERbpx7PnOW3FztED8Bzsumy09GV5UkSZKqZeBV08rkEm8n2PzowLDXjhq+A8fsdzZH7f1xhrdteznpY0tvY+acbp5ecX81Za4hWIOczabLy6oZoJlkcontgS9WfoVeOL3r9pPomvhlDhp/fOS1hfHw4pnMmnchz6+cV83lK4AscGk2XV4VbWWSJEkKw8CrppbJJUYDnwW+BOwQ9vrxYw7gxIkX8/JdTvq3PyuvWkBu3iU88Nwfqi3veuCz2XR5brUDNItMLtFGMJs7Hdg37PVjRuzEcft/gdSeH2ZY24jI66vG+r61FBbO4O8Lvsma9curGeIx4HPZdPl/o61MkiRJA2XgVUvI5BJ7Al8FPkAVO1NNTBxL10FT2W37l7N2/Yvc8nhwXuu6DaurKec+gnW6Ve9o1UwyuUSSYJ1uZ9hr29qGM3nC+3jD/uex3cjx0RcXgRVrnuWv87/C3Yt+AVT1s+xm4NPZdPmeSAuTJElSvwy8aimZXOI1BOt7Q59d09Y2nMN3ewePlW9l2ZpF1dz+eeB8YEY2Xa5qR6tmkskl9iD4kOFDVPEhwwGJTk6amGX3saFPnIrFU8vvYeacbha8UKjm8g3ADOCCbLr8bLSVSZIkaWsMvGo5lfba9xC01+5dh1uuB74DXJhNl5fU4X6xyuQSo4DPABlgXNjrE2P248SJF3PILidHXlvt9XH/s79n1ryLeGF1VftSlQmO1/p2Nl1eG21tkiRJ2pyBVy0rk0uMJTgj9QvAmBrd5kbgM9l0+YEajd9QMrnE24BvAKG3Tx41fCyv2/fTHL33Jxg+bFT0xdXRug2ryD/xLfKPX8m6DVXtS/UQwffNDRGXJkmSpE0YeNXyMrnEAQSzvadGOGwvwYZEVe9o1UwyucQrCFrF0+GvbqN9j1N54wEZdhi1R9SlxeqF1U8ya97F3P/s76od4s8E6717IyxLkiRJFQZeDRmZXOJYgs2VXjWIYV4ApgKXZ9PlNZEU1uAyucSnga8DobdP3mfHFF0Tp7L3uCOjL6yBPP7CXdwwJ8NTy3uquXwV8LFsuvyziMuSJEka8gy8GlIyucQw4KME56TuFuLSPuAHQCabLj9di9oaUSaXeC8QOoiNG7Un6QPP54jd30kV+1k1pT420PP0r/jLY1lWrAm9L9UG4G3ZdPmPNShNkiRpyDLwakjK5BI7EeyofBYwsp+X30pwrMzsmhfWQDK5xAjgcWDCQK8ZMWw0r93nk3Tu8/8YOXz72hXXwNasX87fF1xKYeHVrO8LtS/VfOCgbLq8vkalSZIkDTkGXg1pmVziYIJNmN68hT9eAHwRuDabLtf+SWkwlRbwvw309Yft9jbSB5xPYsy+NayqeTy/ch6z5l3Ew4tD7UvVkU2X76xVTZIkSUNNPQJv6HV/Ur1k0+VHgLdkcokk8FZgX4KjY+4CfjNU1uluxYAOyJ0w9nC6DprK/juFPvq4pe283YGcdtiPmbvkb8ycez7PvvjwQC47FDDwSpIkNREDrxpeNl0uAaW462gw223rD7cfuQtvOOA8jpzwXtoYVq+ams7E8a/njMl/pfTUT7hp/nRWrStv6+W2sUiSJDUZ3wlLLeiEAy9g8oT3G3YHYFjbCF6910c4ceJFcZciSZKkiPluWJKANidwJUmSWo6BV5IkSZLUkgy8kiRJkqSWZOCVJEmSJLUkA68kSZIkqSUZeCVJkiRJLcnAK0mSJElqSQZeSZIkSVJLMvBKkiRJklqSgVeSJEmS1JIMvJIkSZKklmTglSRJkiS1JAOvJEmSJKklGXglSZIkSS3JwCtJkiRJakkGXkmSJElSSzLwSpIkSZJakoFXkiRJktSSDLySJEmSpJZk4JUkSZIktSQDryRJkiSpJRl4JUmSJEktycArSZIkSWpJBl5JkiRJUksy8EqSJEmSWpKBV5IkSZLUkgy8kiRJkqSWZOCVJEmSJLUkA68kSZIkqSUZeCVJkiRJLcnAK0mSJElqSQZeSZIkSVJLMvBKkiRJklqSgVeSJEmS1JIMvJIkSZKklmTglSRJkiS1JAOvJEmSJKklGXglSZIkSS3JwCtJkiRJakkGXkmSJElSSzLwSpIkSZJakoFXkiRJktSSDLySJEmSpJZk4JVa0NLVT8ZdQtNZsmpB3CVIkiQpYgZeqQXdPH8619z3bp57sTfuUhreMyse5Kf3/id/X/CNuEuRJElSxEbEXYCkqrzQ3wseXfJX5s7+O6/e68O8fr8vMGbETvWoq1tjeQMAAAbdSURBVGmsXLuEm+ZPo7Top/T1rR/IJUtrXZMkSZKiZeCVmtOdA3nRhr51FBZ+j3uf+Q3H738ukye8j7a24bWuraFt6FtH8akfcvP8r7FqXagMW6pVTZIkSaqNtr6+vmgGamuLZBxJA5PJJW4FOsNcs/vYQznpoK9wwE6vrVFVjW3OkpuYOff8alq9Z2bT5ZNqUZMkSdJQFVUW3RbX8ErN66PAc2EueGbFg/zknndw3YMfoTyENmlavHIOv7z/ffz8vtOrCbvPAZ+sQVmSJEmqMWd4pSaWySUmAdcCrwp77fBhozh670/wun0/zajhY6MvrgGsXvcCf3/8UgoLv8eGvrXVDFEE3pdNlx+OuDRJkqQhrx4zvAZeqcllcokRwMeALwO7hL1+3KgJvPHADK/c/RSgNZ7jPjZw96JruOmxr7JibahJ8I2eAb4E/DCbLm+ItjpJkiSBgVdSCJlcYjxwIfApIPTOVHuPm0zXQVPZZ1wy8trqacHSO7hhbjeLlt9bzeVrgcuAqdl0ud+dsCVJklQ9A6+k0DK5xKEEoe3Eaq5/5e6n8MYDM4wbtWe0hdXY0tULmTXvYh549vpqh/gD8NlsuvxohGVJkiRpKwy8kqqWySXeDHwTmBT22pHDt+d1+36ao/f+BCOGjY6+uAit3bCS/ONXctsT32LdhtXVDPEA8JlsunxjxKVJkiRpGwy8kgYlk0uMAs4Czgd2DHt9Ysy+pA+8kMN2fUvktQ1eH/c9+ztmzb2YZWueqmaAJQQt4N/Npsvroq1NkiRJ/THwSopEJpfYHcgSHGUU+mHdf6fXctJBU9lj7Csir60aTy7/BzfMyfDEC8VqLl8PXA1ckE2XF0dbmSRJkgbKwCspUplc4kjgcuCYsNe2MYwjJ7yXNxxwHtuPDL0ZdCSWr3mGvzyWpefpXwFV/ez6C0H7clU7WkmSJCk6Bl5JNZHJJU4DpgP7h7129Igdef1+n+c1e32EYW0joy9uC9ZvWMMdT17NLf+/vbsHkaOM4zj+u3hRTxEnRjD4El8SC6NYBAQJBFEHUwWsLBRSKIgomPgS38YochlEUWInWChaiVVAQYxLIlhooVgIKoqnCYghGjOo0cTL3VlsY6HgTnbvNsPn0+7+n+epFr7M8OyBXflr7mibJWaSPFSXze4hHw0AgJYELzAyVa+YSrI9yaNJzhp0fuXUmmxaM521K24e+tn+6avD7+b9madz5Nj+NuO/J9mZ5KW6bFrdaAUAwGgIXmDkql5xcfpPe29vM792xU3ZtGY6K6fWDvVch45+mfdmduS75sM24wtJXk/yeF02B4d6MAAAhkLwAoum6hUb0v//3usGnV02MZnrLrwzN6x+OGdOnntS5/hz9kj27X8unx58IwsLc22W+CjJ/XXZtLrRCgCAxSF4gUVV9YplSbYkeTbJqkHnz1q+Mjde+ljWr7ojExOnDTQ7v3Ain/z4Wj7Y/0KOnWgG3TpJfkj/Fe0367IZ/a8nAAAnRfACS6LqFeckeSLJg0lOH3T+grOvzqY1O3PZuRv+1/e/PbIve2aeyk9/fD3oVklyLMnzSZ6ry+aPNgsAALD4BC+wpKpecUWSF5Pc2mZ+3fmbU17+VIozV//r57/8OZM9M0/n61/2tD3iW0m212VzoO0CAAAsDcELjIWqV9yU/v/3XjPo7OSyM3L9Rfdk4yXbsvy0/mXQx+d+y4cHduXjH17J/MJsmyN9lmRrXba70QoAgKUneIGxUfWKySR3J5lOct6g8+ecvio3X/5k5uZns/f7Okdnf25zjENJqiSv1mUz32YBAADGg+AFxk7VK1YkeSbJvUkGu5mqvdn0nzBP12Xz6yLtCQDACAleYGxVvWJdkl1JbhnxVu8kebAum29GvA8AAItI8AJjr+oVm9O/2OrKIS/9ZZIH6rJ5b8jrAgAwBhYjeJeNfAeg0+qyeTv9y6weSTKM142bJFuTXCt2AQA4GZ7wAkNT9YoLkuxMcleSQX8U5pK8kmRHXTaHh302AADGi1eagVNS1SvWJ3kpycb/ObI3yba6bD4f3akAABgnghc4ZVW9YiLJbUmeT7L6P772XfoXUu1etIMBADAWBC9wyqt6xVSS+5JsSXJVkvkkXyR5PcnLddkcX8LjAQCwRE6p4AUAAIBx4pZmAAAAOknwAgAA0EmCFwAAgE4SvAAAAHSS4AUAAKCTBC8AAACdJHgBAADoJMELAABAJwleAAAAOknwAgAA0EmCFwAAgE4SvAAAAHSS4AUAAKCTBC8AAACdJHgBAADoJMELAABAJwleAAAAOknwAgAA0EmCFwAAgE4SvAAAAHSS4AUAAKCTBC8AAACd9DeXj7Qrsd10EQAAAABJRU5ErkJggg==;" vertex="1" parent="1">
          <mxGeometry x="360" y="533.98" width="175.48" height="112.04" as="geometry" />
        </mxCell>
        <mxCell id="xMjrJX3AMS1QwowmWkhw-35" value="" style="strokeWidth=2;html=1;shape=mxgraph.flowchart.database;whiteSpace=wrap;" vertex="1" parent="1">
          <mxGeometry x="-60" y="860" width="90" height="50" as="geometry" />
        </mxCell>
        <mxCell id="xMjrJX3AMS1QwowmWkhw-72" style="edgeStyle=orthogonalEdgeStyle;rounded=0;orthogonalLoop=1;jettySize=auto;html=1;" edge="1" parent="1" source="xMjrJX3AMS1QwowmWkhw-40">
          <mxGeometry relative="1" as="geometry">
            <mxPoint x="300" y="360" as="targetPoint" />
          </mxGeometry>
        </mxCell>
        <mxCell id="xMjrJX3AMS1QwowmWkhw-40" value="" style="sketch=0;points=[[0,0,0],[0.25,0,0],[0.5,0,0],[0.75,0,0],[1,0,0],[0,1,0],[0.25,1,0],[0.5,1,0],[0.75,1,0],[1,1,0],[0,0.25,0],[0,0.5,0],[0,0.75,0],[1,0.25,0],[1,0.5,0],[1,0.75,0]];outlineConnect=0;fontColor=#232F3E;fillColor=#01A88D;strokeColor=#ffffff;dashed=0;verticalLabelPosition=bottom;verticalAlign=top;align=center;html=1;fontSize=12;fontStyle=0;aspect=fixed;shape=mxgraph.aws4.resourceIcon;resIcon=mxgraph.aws4.machine_learning;" vertex="1" parent="1">
          <mxGeometry x="352.74" y="120" width="170" height="170" as="geometry" />
        </mxCell>
        <mxCell id="xMjrJX3AMS1QwowmWkhw-42" value="DEVICE" style="text;html=1;align=center;verticalAlign=middle;resizable=0;points=[];autosize=1;strokeColor=none;fillColor=none;rotation=90;" vertex="1" parent="1">
          <mxGeometry x="80" y="700" width="70" height="30" as="geometry" />
        </mxCell>
        <mxCell id="xMjrJX3AMS1QwowmWkhw-44" value="REQUEST" style="text;html=1;align=center;verticalAlign=middle;resizable=0;points=[];autosize=1;strokeColor=none;fillColor=none;rotation=0;" vertex="1" parent="1">
          <mxGeometry x="407.74" y="710" width="80" height="30" as="geometry" />
        </mxCell>
        <mxCell id="xMjrJX3AMS1QwowmWkhw-46" value="Server" style="text;html=1;align=center;verticalAlign=middle;resizable=0;points=[];autosize=1;strokeColor=none;fillColor=none;rotation=0;" vertex="1" parent="1">
          <mxGeometry x="470.48" y="530" width="60" height="30" as="geometry" />
        </mxCell>
        <mxCell id="xMjrJX3AMS1QwowmWkhw-50" value="" style="edgeStyle=orthogonalEdgeStyle;rounded=0;orthogonalLoop=1;jettySize=auto;html=1;entryX=0.491;entryY=1.053;entryDx=0;entryDy=0;entryPerimeter=0;" edge="1" parent="1" source="xMjrJX3AMS1QwowmWkhw-24" target="xMjrJX3AMS1QwowmWkhw-48">
          <mxGeometry relative="1" as="geometry">
            <mxPoint x="459" y="790" as="sourcePoint" />
            <mxPoint x="353" y="660" as="targetPoint" />
          </mxGeometry>
        </mxCell>
        <mxCell id="xMjrJX3AMS1QwowmWkhw-48" value="RESPONSE" style="text;html=1;align=center;verticalAlign=middle;resizable=0;points=[];autosize=1;strokeColor=none;fillColor=none;" vertex="1" parent="1">
          <mxGeometry x="310" y="720" width="90" height="30" as="geometry" />
        </mxCell>
        <mxCell id="xMjrJX3AMS1QwowmWkhw-55" style="edgeStyle=orthogonalEdgeStyle;rounded=0;orthogonalLoop=1;jettySize=auto;html=1;entryX=0.5;entryY=0;entryDx=0;entryDy=0;entryPerimeter=0;" edge="1" parent="1" source="xMjrJX3AMS1QwowmWkhw-44" target="xMjrJX3AMS1QwowmWkhw-24">
          <mxGeometry relative="1" as="geometry" />
        </mxCell>
        <mxCell id="xMjrJX3AMS1QwowmWkhw-45" value="REQUEST" style="text;html=1;align=center;verticalAlign=middle;resizable=0;points=[];autosize=1;strokeColor=none;fillColor=none;rotation=0;" vertex="1" parent="1">
          <mxGeometry x="200" y="694.52" width="80" height="30" as="geometry" />
        </mxCell>
        <mxCell id="xMjrJX3AMS1QwowmWkhw-60" style="edgeStyle=orthogonalEdgeStyle;rounded=0;orthogonalLoop=1;jettySize=auto;html=1;entryX=0;entryY=0.25;entryDx=0;entryDy=0;" edge="1" parent="1" source="xMjrJX3AMS1QwowmWkhw-58" target="xMjrJX3AMS1QwowmWkhw-28">
          <mxGeometry relative="1" as="geometry" />
        </mxCell>
        <mxCell id="xMjrJX3AMS1QwowmWkhw-58" value="RESPONSE" style="text;html=1;align=center;verticalAlign=middle;resizable=0;points=[];autosize=1;strokeColor=none;fillColor=none;" vertex="1" parent="1">
          <mxGeometry x="170" y="540" width="90" height="30" as="geometry" />
        </mxCell>
        <mxCell id="xMjrJX3AMS1QwowmWkhw-59" style="edgeStyle=orthogonalEdgeStyle;rounded=0;orthogonalLoop=1;jettySize=auto;html=1;exitX=0.25;exitY=0.2;exitDx=0;exitDy=0;exitPerimeter=0;entryX=0.42;entryY=0.973;entryDx=0;entryDy=0;entryPerimeter=0;" edge="1" parent="1" source="xMjrJX3AMS1QwowmWkhw-17" target="xMjrJX3AMS1QwowmWkhw-58">
          <mxGeometry relative="1" as="geometry" />
        </mxCell>
        <mxCell id="xMjrJX3AMS1QwowmWkhw-62" value="" style="edgeStyle=orthogonalEdgeStyle;rounded=0;orthogonalLoop=1;jettySize=auto;html=1;" edge="1" parent="1" source="xMjrJX3AMS1QwowmWkhw-57" target="xMjrJX3AMS1QwowmWkhw-8">
          <mxGeometry relative="1" as="geometry" />
        </mxCell>
        <mxCell id="xMjrJX3AMS1QwowmWkhw-57" value="RESPONSE" style="text;html=1;align=center;verticalAlign=middle;resizable=0;points=[];autosize=1;strokeColor=none;fillColor=none;" vertex="1" parent="1">
          <mxGeometry x="560" y="694.52" width="90" height="30" as="geometry" />
        </mxCell>
        <mxCell id="xMjrJX3AMS1QwowmWkhw-73" style="edgeStyle=orthogonalEdgeStyle;rounded=0;orthogonalLoop=1;jettySize=auto;html=1;entryX=0.25;entryY=0;entryDx=0;entryDy=0;" edge="1" parent="1" source="xMjrJX3AMS1QwowmWkhw-63" target="xMjrJX3AMS1QwowmWkhw-28">
          <mxGeometry relative="1" as="geometry" />
        </mxCell>
        <mxCell id="xMjrJX3AMS1QwowmWkhw-63" value="RESPONSE" style="text;html=1;align=center;verticalAlign=middle;resizable=0;points=[];autosize=1;strokeColor=none;fillColor=none;" vertex="1" parent="1">
          <mxGeometry x="250" y="360" width="90" height="30" as="geometry" />
        </mxCell>
        <mxCell id="xMjrJX3AMS1QwowmWkhw-70" value="" style="edgeStyle=orthogonalEdgeStyle;rounded=0;orthogonalLoop=1;jettySize=auto;html=1;" edge="1" parent="1" source="xMjrJX3AMS1QwowmWkhw-65" target="xMjrJX3AMS1QwowmWkhw-40">
          <mxGeometry relative="1" as="geometry" />
        </mxCell>
        <mxCell id="xMjrJX3AMS1QwowmWkhw-71" value="" style="edgeStyle=orthogonalEdgeStyle;rounded=0;orthogonalLoop=1;jettySize=auto;html=1;" edge="1" parent="1" source="xMjrJX3AMS1QwowmWkhw-65" target="xMjrJX3AMS1QwowmWkhw-46">
          <mxGeometry relative="1" as="geometry" />
        </mxCell>
        <mxCell id="xMjrJX3AMS1QwowmWkhw-65" value="REQUEST" style="text;html=1;align=center;verticalAlign=middle;resizable=0;points=[];autosize=1;strokeColor=none;fillColor=none;rotation=0;" vertex="1" parent="1">
          <mxGeometry x="397.74" y="400" width="80" height="30" as="geometry" />
        </mxCell>
        <mxCell id="xMjrJX3AMS1QwowmWkhw-69" style="edgeStyle=orthogonalEdgeStyle;rounded=0;orthogonalLoop=1;jettySize=auto;html=1;" edge="1" parent="1" source="xMjrJX3AMS1QwowmWkhw-66" target="xMjrJX3AMS1QwowmWkhw-8">
          <mxGeometry relative="1" as="geometry" />
        </mxCell>
        <mxCell id="xMjrJX3AMS1QwowmWkhw-66" value="REQUEST" style="text;html=1;align=center;verticalAlign=middle;resizable=0;points=[];autosize=1;strokeColor=none;fillColor=none;rotation=0;" vertex="1" parent="1">
          <mxGeometry x="620" y="575" width="80" height="30" as="geometry" />
        </mxCell>
        <mxCell id="xMjrJX3AMS1QwowmWkhw-74" value="REACT NATIVE APPLICATION" style="text;html=1;align=center;verticalAlign=middle;resizable=0;points=[];autosize=1;strokeColor=none;fillColor=none;" vertex="1" parent="1">
          <mxGeometry x="770" y="810" width="190" height="30" as="geometry" />
        </mxCell>
        <mxCell id="xMjrJX3AMS1QwowmWkhw-75" value="MACHINE LEARNING INFERENCE" style="text;html=1;align=center;verticalAlign=middle;resizable=0;points=[];autosize=1;strokeColor=none;fillColor=none;" vertex="1" parent="1">
          <mxGeometry x="322.73999999999995" y="90" width="220" height="30" as="geometry" />
        </mxCell>
        <mxCell id="xMjrJX3AMS1QwowmWkhw-76" value="DATABASE" style="text;html=1;align=center;verticalAlign=middle;resizable=0;points=[];autosize=1;strokeColor=none;fillColor=none;" vertex="1" parent="1">
          <mxGeometry x="402.73999999999995" y="860" width="90" height="30" as="geometry" />
        </mxCell>
        <mxCell id="xMjrJX3AMS1QwowmWkhw-77" value="DATABASE" style="text;html=1;align=center;verticalAlign=middle;resizable=0;points=[];autosize=1;strokeColor=none;fillColor=none;" vertex="1" parent="1">
          <mxGeometry x="-60.00000000000006" y="880.38" width="90" height="30" as="geometry" />
        </mxCell>
      </root>
    </mxGraphModel>
  </diagram>
</mxfile>
